<?xml version="1.0" standalone="no"?>
<!DOCTYPE svg PUBLIC "-//W3C//DTD SVG 1.1//EN" "http://www.w3.org/Graphics/SVG/1.1/DTD/svg11.dtd" >
<svg xmlns="http://www.w3.org/2000/svg" xmlns:xlink="http://www.w3.org/1999/xlink" version="1.1">
<metadata>
Created by FontForge 20200427 at Thu Dec 12 00:07:11 2013
 By www
Copyright (c) 2008, 2013 by Nick Shinn. Published by Shinn Type Foundry. All rights reserved. Customized and extended for Riot Games by Monotype Imaging, Inc.
</metadata>
<defs>
<font id="BeaufortforLOL-Bold" horiz-adv-x="548" >
  <font-face 
    font-family="BeaufortforLOL-Bold"
    font-weight="700"
    font-stretch="normal"
    units-per-em="1000"
    panose-1="2 2 8 3 5 0 0 2 0 4"
    ascent="742"
    descent="-258"
    x-height="466"
    cap-height="666"
    bbox="-153 -237 1081 1001"
    underline-thickness="50"
    underline-position="-125"
    unicode-range="U+000D-FEFF"
  />
<missing-glyph horiz-adv-x="512" 
d="M0 718h512v-718h-512v718zM462 50v617h-412v-617h412zM223 253q0 55 15 82t48 60q46 41 46 79q0 34 -23.5 59.5t-52.5 25.5q-70 0 -82 -95l-50 8q14 137 135 137q54 0 89 -36t35 -95q0 -32 -11.5 -57t-52.5 -64q-34 -31 -41 -46q-7 -17 -7 -77h-46zM222 184h56v-67h-56
v67z" />
    <glyph glyph-name="uniFB01" unicode="fi" horiz-adv-x="604" 
d="M90 384h-78v82h78v29q0 94 46.5 148t128.5 54q22 0 38 -3t24 -4v-119q-23 39 -61 39q-48 0 -48 -83v-61h109v-82h-109v-266q0 -40 7.5 -65t19 -39t22.5 -14h-228q21 0 36 33t15 85v266zM411 323q0 91 -55 91h-13l196 75v-383q0 -49 15 -77.5t35 -28.5h-229q11 0 23 12
t20 34.5t8 59.5v217zM388 613q0 32 21.5 53t57.5 21q35 0 56.5 -21t21.5 -53t-21.5 -54t-56.5 -22q-36 0 -57.5 22t-21.5 54z" />
    <glyph glyph-name="uniFB02" unicode="fl" horiz-adv-x="608" 
d="M90 384h-78v82h78v29q0 94 46.5 148t129.5 54q13 0 62 -7v-119q-23 39 -61 39q-49 0 -49 -83v-61h110v-82h-110v-266q0 -40 7.5 -65t19 -39t22.5 -14h-228q21 0 36 33t15 85v266zM412 517q0 54 -13 81t-46 27h-9l196 72v-591q0 -36 7 -58.5t19 -35t23 -12.5h-227
q11 0 22.5 11.5t19.5 33.5t8 61v411z" />
    <glyph glyph-name=".notdef" horiz-adv-x="512" 
d="M0 718h512v-718h-512v718zM462 50v617h-412v-617h412zM223 253q0 55 15 82t48 60q46 41 46 79q0 34 -23.5 59.5t-52.5 25.5q-70 0 -82 -95l-50 8q14 137 135 137q54 0 89 -36t35 -95q0 -32 -11.5 -57t-52.5 -64q-34 -31 -41 -46q-7 -17 -7 -77h-46zM222 184h56v-67h-56
v67z" />
    <glyph glyph-name="glyph1" horiz-adv-x="0" 
 />
    <glyph glyph-name="uni000D" unicode="&#xd;" horiz-adv-x="213" 
 />
    <glyph glyph-name="space" unicode=" " horiz-adv-x="213" 
 />
    <glyph glyph-name="exclam" unicode="!" horiz-adv-x="300" 
d="M39 666h223q-18 -7 -29 -39.5t-15 -89.5l-12 -203q-4 -52 -21.5 -96t-34.5 -62l-8 12q-16 22 -30.5 62.5t-16.5 83.5l-12 203q-4 53 -14.5 86.5t-29.5 42.5zM73 59q0 31 21 52t56 21t56.5 -21t21.5 -52q0 -32 -21.5 -52.5t-56.5 -20.5t-56 20.5t-21 52.5z" />
    <glyph glyph-name="quotedbl" unicode="&#x22;" horiz-adv-x="530" 
d="M366 331q-23 36 -38.5 83.5t-15.5 93.5v158h114v-158q0 -46 -16.5 -95t-40.5 -82h-3zM157 331q-22 35 -37.5 82.5t-15.5 94.5v158h114v-158q0 -46 -16.5 -95t-40.5 -82h-4z" />
    <glyph glyph-name="numbersign" unicode="#" horiz-adv-x="563" 
d="M109 203h-92v56h104l35 153h-99v57h111l42 197h66l-42 -197h143l41 197h68l-42 -197h89v-57h-102l-34 -153h102v-56h-116l-46 -203h-64l44 203h-143l-46 -203h-64zM331 259l33 153h-142l-34 -153h143z" />
    <glyph glyph-name="dollar" unicode="$" horiz-adv-x="555" 
d="M64 241q25 -65 77 -103.5t120 -38.5q44 0 73 18.5t29 52.5t-30.5 61t-115.5 66q-74 34 -110 76.5t-36 100.5q0 69 38.5 115t105.5 62v93h119v-87q73 -10 116 -40v-158q-21 49 -68.5 79t-99.5 30q-44 0 -65.5 -18.5t-21.5 -47.5q0 -37 33 -62t124 -66q137 -67 137 -181
q0 -70 -40 -116.5t-115 -62.5v-110h-119v103q-95 11 -151 47v187z" />
    <glyph glyph-name="percent" unicode="%" horiz-adv-x="760" 
d="M187 354q-72 0 -114.5 48t-42.5 116q0 70 44.5 116.5t112.5 46.5q72 0 115 -47t43 -116t-43.5 -116.5t-114.5 -47.5zM555 666h94l-446 -666h-96zM569 -12q-71 0 -114 47.5t-43 115.5q0 69 43.5 116t113.5 47q71 0 114 -47.5t43 -115.5q0 -69 -43.5 -116t-113.5 -47z
M188 423q62 0 62 94t-63 94q-61 0 -61 -93q0 -95 62 -95zM570 58q61 0 61 93q0 95 -62 95t-62 -95q0 -93 63 -93z" />
    <glyph glyph-name="ampersand" unicode="&#x26;" horiz-adv-x="800" 
d="M763 418q-17 -10 -36 -35t-29 -54q-33 -98 -105 -182q83 -54 134 -54q22 0 36.5 11t31.5 31q-21 -78 -52 -114.5t-78 -36.5q-54 0 -169 78q-108 -79 -226 -79q-240 0 -240 172q0 54 34 99.5t111 90.5q-31 37 -57 79t-26 84q0 77 57.5 125t146.5 48q86 0 143 -41t57 -110
q0 -48 -31 -92t-114 -94q82 -82 157 -141q27 30 49 75.5t22 80.5q0 37 -30 59h214zM286 406q42 26 66 52.5t24 61.5q0 31 -25.5 51t-58.5 20q-29 0 -51.5 -17.5t-22.5 -52.5q0 -15 11 -35.5t57 -79.5zM408 123q-87 68 -168 155q-64 -46 -64 -95q0 -42 31 -72t87 -30
q54 0 114 42z" />
    <glyph glyph-name="quotesingle" unicode="'" horiz-adv-x="262" 
d="M128 331q-23 35 -38.5 83t-15.5 94v158h114v-158q0 -46 -16.5 -95t-40.5 -82h-3z" />
    <glyph glyph-name="parenleft" unicode="(" horiz-adv-x="341" 
d="M334 -203q-131 37 -217 166.5t-86 288.5q0 157 84 285t218 168q-76 -47 -122 -170t-46 -279q0 -155 47 -280.5t122 -178.5z" />
    <glyph glyph-name="parenright" unicode=")" horiz-adv-x="341" 
d="M8 705q130 -38 216 -167t86 -289q0 -157 -83.5 -284.5t-219.5 -167.5q75 47 122 169.5t47 279.5q0 153 -45.5 279t-122.5 180z" />
    <glyph glyph-name="asterisk" unicode="*" horiz-adv-x="416" 
d="M28 573q78 -45 158 -49q-29 77 -92 146l126 42q-9 -52 -9 -87q0 -42 12 -88q64 57 103 139l76 -114q-99 -18 -156 -58q69 -49 153 -61l-76 -111q-24 52 -45.5 80t-54.5 60q-14 -53 -14 -95q0 -37 8 -79l-124 40q43 46 61 78t32 68q-85 -7 -158 -48v137z" />
    <glyph glyph-name="plus" unicode="+" horiz-adv-x="689" 
d="M300 240h-230v89h230v237h90v-237h229v-89h-229v-240h-90v240z" />
    <glyph glyph-name="comma" unicode="," horiz-adv-x="256" 
d="M130 -1q-8 -3 -17 -3q-34 0 -51 22t-17 49q0 36 24 60.5t61 24.5q45 0 73 -36t28 -94q0 -84 -57 -144.5t-150 -63.5q48 22 79 67.5t31 88.5q0 19 -4 29z" />
    <glyph glyph-name="hyphen" unicode="-" horiz-adv-x="333" 
d="M42 303h250v-94h-250v94z" />
    <glyph glyph-name="period" unicode="." horiz-adv-x="256" 
d="M41 70q0 36 24 60t63 24t63.5 -24t24.5 -60t-24.5 -60t-63.5 -24t-63 24t-24 60z" />
    <glyph glyph-name="slash" unicode="/" horiz-adv-x="469" 
d="M333 681h109l-300 -696h-112z" />
    <glyph glyph-name="zero" unicode="0" horiz-adv-x="555" 
d="M275 -15q-112 0 -176 86.5t-64 243.5q0 166 65.5 266t179.5 100q110 0 175 -90t65 -244q0 -163 -64.5 -262.5t-180.5 -99.5zM285 83q99 0 99 212q0 140 -31 213.5t-87 73.5q-98 0 -98 -212q0 -137 30 -212t87 -75z" />
    <glyph glyph-name="one" unicode="1" horiz-adv-x="555" 
d="M231 513l-78 -85l-64 65q105 100 169 173h105v-531q0 -106 58 -135h-247q57 33 57 135v378z" />
    <glyph glyph-name="two" unicode="2" horiz-adv-x="555" 
d="M362 472q0 53 -31 83.5t-78 30.5q-45 0 -69.5 -23t-24.5 -51q0 -23 15 -41t44 -24l-89 -97q-39 11 -66.5 46.5t-27.5 85.5q0 86 68.5 142.5t181.5 56.5q96 0 157 -52.5t61 -140.5q0 -43 -22.5 -90.5t-67.5 -106.5t-162 -187h165q86 0 117 51l-23 -155h-490l165 182
q111 123 144 181t33 109z" />
    <glyph glyph-name="three" unicode="3" horiz-adv-x="555" 
d="M132 193q35 -112 134 -112q50 0 77 29.5t27 72.5q0 121 -225 130l182 249h-153q-85 0 -121 -51l24 155h441l-213 -277q103 -17 152 -68.5t49 -123.5q0 -94 -70 -153t-184 -59q-88 0 -149 34.5t-84 92.5z" />
    <glyph glyph-name="four" unicode="4" horiz-adv-x="555" 
d="M11 191l256 475h167v-412h87v-97h-87v-52q0 -41 11.5 -70t30.5 -35h-210q18 6 30 35t12 71v51h-297v34zM308 254v297l-158 -297h158z" />
    <glyph glyph-name="five" unicode="5" horiz-adv-x="555" 
d="M131 193q34 -112 131 -112q54 0 80.5 30t26.5 74q0 65 -54.5 98.5t-156.5 33.5h-84l33 349h258q88 0 118 20l-19 -123h-257l-15 -144q154 0 233.5 -59t79.5 -158q0 -97 -70 -157t-185 -60q-86 0 -149 35.5t-83 91.5z" />
    <glyph glyph-name="six" unicode="6" horiz-adv-x="555" 
d="M181 380q54 69 140 69q90 0 145.5 -62.5t55.5 -155.5q0 -108 -68 -177.5t-176 -69.5q-115 0 -177 69.5t-62 190.5q0 134 70 252.5t184 177.5l200 -18q-122 -44 -198 -110.5t-120 -161.5zM297 78q43 0 73 34.5t30 88.5q0 63 -34 106.5t-89 43.5q-48 0 -76.5 -35.5
t-28.5 -87.5q0 -63 34.5 -106.5t90.5 -43.5z" />
    <glyph glyph-name="seven" unicode="7" horiz-adv-x="555" 
d="M129 0q30 85 105.5 257t141.5 309h-219q-89 0 -126 -68l22 168h494l-127 -275q-70 -158 -90 -234t-20 -141l1 -16h-182z" />
    <glyph glyph-name="eight" unicode="8" horiz-adv-x="555" 
d="M176 338q-61 26 -89.5 69.5t-28.5 91.5q0 80 67 131t159 51t152 -44.5t60 -117.5q0 -48 -27.5 -91.5t-87.5 -63.5q142 -52 142 -179q0 -90 -71.5 -145.5t-179.5 -55.5q-110 0 -175 48.5t-65 133.5q0 58 36.5 104.5t107.5 67.5zM287 399q43 0 64 26t21 64q0 45 -27.5 73.5
t-76.5 28.5q-42 0 -64 -23t-22 -63q0 -46 29.5 -76t75.5 -30zM165 194q0 -50 32.5 -82.5t89.5 -32.5q104 0 104 98q0 49 -34 83t-93 34q-50 0 -74.5 -29.5t-24.5 -70.5z" />
    <glyph glyph-name="nine" unicode="9" horiz-adv-x="555" 
d="M63 9q122 44 196 107t122 163l-6 4q-55 -68 -139 -68q-89 0 -145.5 61.5t-56.5 156.5q0 109 67.5 178.5t174.5 69.5q113 0 177 -69t64 -194q0 -133 -70 -250.5t-184 -176.5zM280 311q46 0 75 36t29 88q0 63 -35.5 107t-91.5 44q-41 0 -70.5 -34.5t-29.5 -89.5
q0 -65 34.5 -108t88.5 -43z" />
    <glyph glyph-name="colon" unicode=":" horiz-adv-x="256" 
d="M40 370q0 36 24 60t64 24t63.5 -24t23.5 -60q0 -35 -24 -59t-63 -24q-40 0 -64 24t-24 59zM40 70q0 36 24 60t64 24t63.5 -24t23.5 -60q0 -35 -24 -59.5t-63 -24.5q-40 0 -64 24.5t-24 59.5z" />
    <glyph glyph-name="semicolon" unicode=";" horiz-adv-x="256" 
d="M49 370q0 36 23.5 60t63.5 24t64 -24t24 -60q0 -35 -24 -59t-64 -24t-63.5 24t-23.5 59zM134 -1q-7 -3 -17 -3q-35 0 -51.5 22t-16.5 49q0 36 24 60.5t61 24.5q45 0 73 -36t28 -94q0 -86 -57 -145.5t-150 -62.5q48 23 78.5 67.5t30.5 88.5q0 22 -3 29z" />
    <glyph glyph-name="less" unicode="&#x3c;" horiz-adv-x="689" 
d="M102 319l484 267v-101l-371 -200v-6l371 -192v-102l-484 266v68z" />
    <glyph glyph-name="equal" unicode="=" horiz-adv-x="689" 
d="M70 437h549v-89h-549v89zM70 223h549v-89h-549v89z" />
    <glyph glyph-name="greater" unicode="&#x3e;" horiz-adv-x="689" 
d="M102 87l372 199v6l-372 193v101l484 -267v-68l-484 -266v102z" />
    <glyph glyph-name="question" unicode="?" horiz-adv-x="460" 
d="M70 639q31 19 79.5 31t99.5 12q88 0 142 -40.5t54 -111.5q0 -85 -99 -163q-58 -46 -78.5 -72.5t-20.5 -54.5q0 -33 31 -44q-19 -21 -51 -21q-42 0 -70.5 25t-28.5 65q0 73 85 141q47 37 66 62t19 49q0 32 -22 49.5t-54 17.5q-46 0 -88.5 -32t-63.5 -81v168zM138 58
q0 31 21 52t56 21t56 -20.5t21 -52.5q0 -31 -21 -51.5t-56 -20.5t-56 20.5t-21 51.5z" />
    <glyph glyph-name="at" unicode="@" horiz-adv-x="931" 
d="M857 -48q-64 -67 -158.5 -104t-198.5 -37q-209 0 -326 105t-117 283q0 127 59.5 227.5t164.5 156t229 55.5q161 0 262.5 -91.5t101.5 -239.5q0 -129 -72.5 -219t-178.5 -90q-51 0 -78 18t-32 69q-45 -87 -140 -87q-59 0 -92.5 44.5t-33.5 122.5q0 75 30 145.5t82.5 112.5
t118.5 42q34 0 69.5 -10.5t54.5 -10.5q27 0 65 17l-57 -338q0 -42 11 -56t30 -14q42 0 80 31.5t60.5 89t22.5 134.5q0 128 -86.5 206t-223.5 78q-106 0 -195.5 -49.5t-140.5 -137.5t-51 -199q0 -156 104 -251.5t278 -95.5q190 0 313 123zM416 69q30 0 55 39.5t40 110
t15 111.5q0 71 -54 71q-41 0 -73.5 -76.5t-32.5 -158.5q0 -45 13 -71t37 -26z" />
    <glyph glyph-name="A" unicode="A" horiz-adv-x="747" 
d="M309 666h118l220 -541q42 -108 95 -125h-269q16 2 26.5 14t10.5 33q0 15 -36 111h-255q-31 -85 -31 -106q0 -24 12.5 -37t28.5 -15h-224q20 3 45.5 36t48.5 92zM440 245l-95 246l-93 -246h188z" />
    <glyph glyph-name="B" unicode="B" horiz-adv-x="639" 
d="M90 551q0 46 -15.5 77t-43.5 38h340q86 0 137.5 -45.5t51.5 -115.5q0 -56 -34.5 -99t-84.5 -55q71 -12 111 -60t40 -112q0 -78 -56.5 -128.5t-146.5 -50.5h-350q23 3 37 34t14 83v434zM333 92q52 0 80.5 25t28.5 73t-28.5 78t-90.5 30h-91v-206h101zM321 388
q46 0 68 28.5t22 70.5q0 39 -25.5 63.5t-68.5 24.5h-85v-187h89z" />
    <glyph glyph-name="C" unicode="C" horiz-adv-x="639" 
d="M596 78q-35 -41 -93.5 -67t-124.5 -26q-154 0 -245.5 93.5t-91.5 240.5q0 100 45 183.5t127.5 131t190.5 47.5q107 0 179 -39v-192q-23 59 -71 95t-119 36q-89 0 -145.5 -68.5t-56.5 -174.5q0 -108 56.5 -178t148.5 -70q54 0 108 27.5t92 75.5v-115z" />
    <glyph glyph-name="D" unicode="D" horiz-adv-x="726" 
d="M94 554q0 44 -15.5 74.5t-46.5 37.5h309q154 0 249 -89t95 -237q0 -154 -95.5 -247t-259.5 -93h-291q26 4 40.5 36.5t14.5 87.5v430zM336 92q90 0 143.5 67t53.5 173q0 117 -59.5 180t-166.5 63h-69v-483h98z" />
    <glyph glyph-name="E" unicode="E" 
d="M90 554q0 44 -16 74.5t-46 37.5h453v-178q-14 48 -44 67.5t-78 19.5h-126v-193h110q63 -1 80 34v-158q-2 13 -21.5 23t-56.5 10h-112v-199h136q63 0 95.5 20.5t60.5 73.5l-32 -186h-457q13 2 25 14.5t20.5 37.5t8.5 67v435z" />
    <glyph glyph-name="F" unicode="F" horiz-adv-x="508" 
d="M93 556q0 47 -16.5 75t-45.5 35h454v-176q-19 48 -49.5 66.5t-75.5 18.5h-124v-193h108q36 0 56.5 11t23.5 26v-165q-3 15 -24 26t-55 11h-109v-182q0 -49 14.5 -77.5t36.5 -31.5h-249q25 4 40 33t15 80v443z" />
    <glyph glyph-name="G" unicode="G" horiz-adv-x="692" 
d="M471 204q0 32 -9 52t-22 31t-27 13h251q-13 -2 -26 -12.5t-21 -30.5t-8 -50v-183q-100 -40 -238 -40q-100 0 -176.5 42.5t-119 120t-42.5 170.5q0 102 46.5 185.5t132 131t198.5 47.5q116 0 193 -40v-173q-28 53 -81.5 83.5t-121.5 30.5q-96 0 -156 -69t-60 -178
q0 -108 59 -179t153 -71q33 0 75 13v106z" />
    <glyph glyph-name="H" unicode="H" horiz-adv-x="741" 
d="M83 554q-1 97 -53 112h248q-23 -5 -37 -34.5t-14 -77.5v-172h287v172q0 37 -7 59t-16.5 34t-29.5 19h248q-21 -3 -36 -32t-15 -80v-442q0 -38 8 -62.5t19.5 -36t23.5 -13.5h-248q12 2 24.5 13.5t20.5 36t8 62.5v179h-287v-179q0 -49 14.5 -79t36.5 -33h-248
q13 2 25.5 13.5t20 36t7.5 62.5v442z" />
    <glyph glyph-name="I" unicode="I" horiz-adv-x="314" 
d="M86 558q0 91 -52 108h246q-13 -3 -24.5 -14t-19.5 -35t-8 -59v-455q0 -44 14 -71.5t37 -31.5h-245q23 3 37.5 30t14.5 73v455z" />
    <glyph glyph-name="J" unicode="J" horiz-adv-x="333" 
d="M105 559q0 93 -56 107h249q-50 -17 -50 -108v-430q0 -206 -162 -206q-77 0 -123 54q18 -5 36 -5q54 0 80 47.5t26 125.5v415z" />
    <glyph glyph-name="K" unicode="K" horiz-adv-x="707" 
d="M83 554q0 95 -53 112h248q-23 -4 -37 -34t-14 -78v-184q110 119 164.5 179t54.5 92q0 20 -25 25h262q-21 -3 -67 -34t-92 -82l-166 -181l196 -249q39 -50 74 -81.5t66 -38.5h-223l-244 312v-201q0 -49 14 -78t37 -33h-248q23 4 38 33t15 78v443z" />
    <glyph glyph-name="L" unicode="L" horiz-adv-x="544" 
d="M82 553q0 97 -51 113h242q-22 -4 -37 -32.5t-15 -80.5v-461h135q78 0 106.5 16t55.5 65l-27 -173h-455q20 4 33 36t13 88v429z" />
    <glyph glyph-name="M" unicode="M" horiz-adv-x="879" 
d="M95 559q0 91 -64 107h243l177 -403l175 403h219q-23 -4 -38.5 -33t-15.5 -77v-443q0 -38 8 -62t21 -37t25 -14h-238q20 3 34 31.5t14 81.5v380l-225 -509l-231 508v-373q0 -40 10 -66.5t24 -38.5t29 -14h-228q15 2 28.5 14t23 38.5t9.5 66.5v440z" />
    <glyph glyph-name="N" unicode="N" horiz-adv-x="723" 
d="M94 548q0 30 -14.5 53t-37 41t-39.5 24h212l314 -393v283q0 36 -7.5 58t-17.5 33.5t-30 18.5h217q-23 -4 -37.5 -33t-14.5 -77v-556h-104q-36 90 -107 176l-223 272v-339q0 -37 9 -60.5t23.5 -35t27.5 -13.5h-222q13 2 25 14t19 35t7 60v439z" />
    <glyph glyph-name="O" unicode="O" horiz-adv-x="752" 
d="M366 -15q-145 0 -235.5 94.5t-90.5 243.5q0 99 44.5 181.5t125.5 129.5t179 47q144 0 233.5 -94.5t89.5 -243.5q0 -152 -97 -255t-249 -103zM389 88q79 0 128.5 62.5t49.5 165.5q0 118 -55 191t-148 73q-79 0 -128.5 -60.5t-49.5 -165.5q0 -121 54 -193.5t149 -72.5z" />
    <glyph glyph-name="P" unicode="P" horiz-adv-x="586" 
d="M93 551q0 47 -15.5 77.5t-43.5 37.5h307q98 0 158.5 -57.5t60.5 -145.5q0 -98 -67 -158t-176 -60q-48 0 -89 12v-146q0 -38 9 -62t22 -35.5t27 -13.5h-245q24 3 38 32.5t14 78.5v440zM228 349q35 -11 74 -11q54 0 83 33.5t29 87.5q0 51 -31 83.5t-88 32.5h-67v-226z" />
    <glyph glyph-name="Q" unicode="Q" horiz-adv-x="752" 
d="M413 -12q-15 -3 -47 -3q-145 0 -235.5 95t-90.5 243q0 99 44.5 181.5t125.5 129.5t179 47q144 0 233.5 -94.5t89.5 -243.5q0 -94 -38 -170t-101 -123q34 -38 93 -59.5t123 -23.5q-63 -45 -156 -45q-123 0 -220 66zM389 88q79 0 128.5 62.5t49.5 165.5q0 118 -55 191
t-148 73q-78 0 -128 -60.5t-50 -165.5q0 -121 54 -193.5t149 -72.5z" />
    <glyph glyph-name="R" unicode="R" horiz-adv-x="638" 
d="M92 550q0 96 -61 116h293q107 0 171.5 -56t64.5 -139q0 -70 -43.5 -122t-119.5 -62q26 -16 50 -58l89 -154q19 -34 43.5 -54t43.5 -21h-203l-111 205q-18 34 -32 45.5t-34 11.5h-14v-151q0 -38 8 -62t19.5 -35.5t23.5 -13.5h-241q13 2 25.5 13.5t20 36t7.5 61.5v439z
M298 352q56 0 87.5 31t31.5 84q0 47 -32.5 77.5t-87.5 30.5h-69v-223h70z" />
    <glyph glyph-name="S" unicode="S" horiz-adv-x="540" 
d="M46 224q63 -140 201 -140q46 0 79 20t33 56q0 32 -26 58t-86 55q-119 54 -158.5 100t-39.5 108q0 90 65.5 144.5t173.5 54.5q48 0 92.5 -13t71.5 -32v-159q-26 46 -74 76.5t-99 30.5q-50 0 -74.5 -21t-24.5 -52q0 -28 22.5 -51.5t106.5 -61.5q110 -50 148.5 -98
t38.5 -114q0 -90 -67.5 -145t-185.5 -55q-115 0 -197 50v189z" />
    <glyph glyph-name="T" unicode="T" horiz-adv-x="648" 
d="M251 575h-121q-63 0 -90 -56l-16 -34l16 181h569l15 -181q-21 53 -49.5 71.5t-74.5 18.5h-103v-463q0 -51 15 -80.5t36 -31.5h-248q22 3 36.5 30.5t14.5 81.5v463z" />
    <glyph glyph-name="U" unicode="U" horiz-adv-x="698" 
d="M81 554q0 97 -52 112h247q-12 -2 -23.5 -13.5t-19.5 -35t-8 -60.5v-322q0 -84 34 -118t104 -34q73 0 102.5 38t29.5 114v318q0 99 -58 113h235q-25 -4 -40.5 -34.5t-15.5 -78.5v-314q0 -254 -261 -254q-144 0 -209 61t-65 183v325z" />
    <glyph glyph-name="V" unicode="V" horiz-adv-x="738" 
d="M6 666h269q-18 -3 -29.5 -14.5t-11.5 -30.5q0 -17 17 -55l140 -353l135 357q12 36 12 48q0 20 -12 33t-30 15h231q-10 -2 -26.5 -15.5t-34.5 -41.5t-34 -69l-212 -540h-102l-217 544q-42 104 -95 122z" />
    <glyph glyph-name="W" unicode="W" horiz-adv-x="1035" 
d="M5 666h269q-13 -2 -23 -16t-10 -38q0 -22 12 -61l109 -328l113 312q-35 113 -76 131h239q-16 -4 -27.5 -18t-11.5 -40q0 -21 12 -57l109 -327l109 329q10 28 10 56q0 45 -39 57h230q-26 -5 -51 -38t-43 -87l-178 -541h-109l-128 387l-134 -387h-107l-182 546
q-35 103 -93 120z" />
    <glyph glyph-name="X" unicode="X" horiz-adv-x="697" 
d="M5 0q21 3 57.5 37.5t74.5 91.5l133 191l-150 228q-71 103 -115 118h280q-9 -2 -19 -11t-10 -27q0 -13 7.5 -32t98.5 -157q97 135 106.5 156t9.5 36q0 29 -25 35h234q-17 -3 -49.5 -33t-67.5 -79l-148 -208l145 -220q37 -58 72 -91t50 -35h-284q13 2 22 11t9 28
q0 14 -8.5 34.5t-96.5 152.5q-91 -133 -101.5 -154.5t-10.5 -34.5q0 -32 27 -37h-241z" />
    <glyph glyph-name="Y" unicode="Y" horiz-adv-x="672" 
d="M263 275l-157 276q-57 99 -105 115h269q-14 -2 -22.5 -12.5t-8.5 -26.5q0 -25 26 -71l95 -165l85 147q36 63 36 90q0 17 -8.5 26.5t-19.5 11.5h217q-14 -3 -44 -35.5t-58 -81.5l-160 -269v-168q0 -38 7.5 -62t19 -36t23.5 -14h-247q13 2 24.5 13.5t19.5 35.5t8 63v163z
" />
    <glyph glyph-name="Z" unicode="Z" horiz-adv-x="608" 
d="M347 575h-161q-43 0 -69 -8.5t-43 -26.5t-32 -66v192h517l-322 -574h186q65 0 100.5 28.5t58.5 85.5l-20 -206h-540z" />
    <glyph glyph-name="bracketleft" unicode="[" horiz-adv-x="286" 
d="M35 681h218v-71h-115v-711h115v-72h-218v854z" />
    <glyph glyph-name="backslash" unicode="\" horiz-adv-x="469" 
d="M28 681h109l303 -696h-110z" />
    <glyph glyph-name="bracketright" unicode="]" horiz-adv-x="286" 
d="M33 -101h114v711h-114v71h217v-854h-217v72z" />
    <glyph glyph-name="asciicircum" unicode="^" horiz-adv-x="689" 
d="M299 703h92l211 -524h-104l-155 401h-5l-147 -401h-103z" />
    <glyph glyph-name="underscore" unicode="_" horiz-adv-x="564" 
d="M4 -82h555v-54h-555v54z" />
    <glyph glyph-name="grave" unicode="`" horiz-adv-x="486" 
d="M264 666l49 -160l-216 160h167z" />
    <glyph glyph-name="a" unicode="a" horiz-adv-x="507" 
d="M63 278q-12 31 -12 56q0 63 60 107t142 44q180 0 180 -151v-185q0 -45 21 -69.5t60 -24.5l11 2l-122 -80q-24 4 -47.5 22t-30.5 39q-20 -26 -59.5 -39.5t-80.5 -13.5q-63 0 -103 32.5t-40 88.5q0 59 70.5 105.5t194.5 73.5v38q0 86 -66 86q-38 0 -55 -16.5t-17 -33.5
q0 -23 20 -33zM307 215q-143 -28 -145 -95q0 -24 18 -39.5t46 -15.5q31 0 56 20.5t25 56.5v73z" />
    <glyph glyph-name="b" unicode="b" horiz-adv-x="543" 
d="M69 524q0 109 -61 109h-11l199 68v-276q20 25 54.5 42.5t75.5 17.5q82 0 132 -61.5t50 -167.5q0 -112 -67 -191t-169 -79q-67 0 -121 24q-11 4 -24 4q-33 0 -58 -29v539zM195 146q0 -71 74 -71q48 0 76 43.5t28 111.5q0 65 -24.5 111t-66.5 46q-38 0 -62.5 -29.5
t-24.5 -75.5v-136z" />
    <glyph glyph-name="c" unicode="c" horiz-adv-x="461" 
d="M308 281q7 17 7 37q0 34 -17.5 55t-48.5 21q-41 0 -67 -39t-26 -99q0 -76 38.5 -126.5t100.5 -50.5q80 0 145 75q-13 -72 -67 -120.5t-127 -48.5q-97 0 -154.5 62t-57.5 168q0 118 68 194t166 76q67 0 112 -41.5t50 -113.5z" />
    <glyph glyph-name="d" unicode="d" horiz-adv-x="545" 
d="M360 42q-20 -25 -57.5 -41t-78.5 -16q-88 0 -139 62t-51 169q0 117 66 192t159 75q62 0 93 -27v70q0 103 -62 103h-10l199 72v-558q0 -51 13 -74.5t42 -23.5h13l-186 -67zM353 305q0 40 -20.5 64.5t-59.5 24.5q-47 0 -76 -42.5t-29 -106.5q0 -72 25.5 -118t70.5 -46
q35 0 62 24.5t27 67.5v132z" />
    <glyph glyph-name="e" unicode="e" horiz-adv-x="491" 
d="M310 81q42 0 82.5 17.5t68.5 51.5q-33 -165 -204 -165q-101 0 -161.5 68.5t-60.5 171.5q0 110 63.5 185t160.5 75q92 0 143 -69.5t52 -197.5h-295q13 -69 54.5 -103t96.5 -34zM333 290q0 49 -20.5 81.5t-57.5 32.5q-38 0 -64.5 -32.5t-31.5 -81.5h174z" />
    <glyph glyph-name="f" unicode="f" horiz-adv-x="347" 
d="M90 384h-78v82h78v28q0 94 47.5 148t128.5 54q22 0 39.5 -3t25.5 -4v-115q-27 34 -64 34q-49 1 -49 -82v-60h113v-82h-113v-266q0 -40 7.5 -65t19 -38t22.5 -15h-228q24 4 37.5 35t13.5 83v266z" />
    <glyph glyph-name="g" unicode="g" horiz-adv-x="516" 
d="M497 -28q0 -46 -34 -85t-97.5 -60.5t-150.5 -21.5q-96 0 -144 25t-48 63q0 29 23 57t65 48q-63 19 -63 62q0 24 26.5 53t63.5 49q-44 18 -71.5 56.5t-27.5 86.5q0 78 58.5 129t153.5 51q38 0 80 -11t87 -11q51 0 79 17v-92q-25 -3 -74 -3q24 -34 24 -80q0 -73 -56.5 -118
t-146.5 -45q-12 0 -28 3q-41 -22 -41 -40q0 -20 66 -23l115 -4q65 -2 103 -30t38 -76zM250 218q35 0 51.5 26.5t16.5 60.5q0 44 -23 74t-58 30q-31 0 -49.5 -23t-18.5 -62q0 -44 23 -75t58 -31zM185 -17q-47 -26 -47 -54q0 -45 105 -45q67 0 103.5 15t36.5 39q0 37 -84 41z
" />
    <glyph glyph-name="h" unicode="h" horiz-adv-x="555" 
d="M71 512q0 110 -61 110h-12l200 79v-279q22 23 63 43t79 20q67 0 106.5 -42t39.5 -121v-217q0 -35 7.5 -57.5t17.5 -33.5t25 -14h-216q18 4 28 30t10 72v188q0 98 -69 98q-36 0 -63.5 -28t-27.5 -74v-184q0 -48 14 -73.5t33 -28.5h-226q14 2 25 13t19 33.5t8 59.5v406z
" />
    <glyph glyph-name="i" unicode="i" horiz-adv-x="266" 
d="M70 323q0 91 -58 91h-13l198 75v-383q0 -49 14.5 -76t35.5 -30h-228q14 3 24.5 13.5t18.5 33t8 59.5v217zM47 613q0 32 21.5 53t56.5 21q36 0 57 -21t21 -53t-21 -54t-57 -22q-35 0 -56.5 22t-21.5 54z" />
    <glyph glyph-name="j" unicode="j" horiz-adv-x="266" 
d="M47 613q0 32 22 53t56 21q35 0 56.5 -21t21.5 -53t-21 -54t-57 -22q-35 0 -56.5 22t-21.5 54zM70 328q0 88 -57 86h-14l199 75v-504q0 -85 -40 -130.5t-119 -45.5q-35 0 -66 16t-44 35q29 -8 44 -8q52 0 74.5 33t22.5 99v344z" />
    <glyph glyph-name="k" unicode="k" horiz-adv-x="575" 
d="M70 517q0 109 -62 108h-10l200 72v-432l109 115q33 33 33 58q0 11 -8.5 18.5t-19.5 9.5h243q-53 -18 -130 -95l-101 -102l136 -167q71 -88 111 -88l12 2q-40 -28 -126 -28q-46 0 -78.5 20t-65.5 65q-95 130 -115 153v-120q0 -36 7.5 -59t18.5 -34t23 -13h-226
q22 4 35.5 31.5t13.5 74.5v411z" />
    <glyph glyph-name="l" unicode="l" horiz-adv-x="266" 
d="M69 517q0 54 -14 81t-48 27h-9l199 72v-591q0 -36 7 -58.5t18.5 -34t23.5 -13.5h-227q12 2 23 12.5t19 32.5t8 61v411z" />
    <glyph glyph-name="m" unicode="m" horiz-adv-x="830" 
d="M69 321q0 48 -12.5 70.5t-42.5 22.5h-14l192 75l1 -72q25 29 67.5 48.5t83.5 19.5q38 0 66.5 -17t41.5 -51q24 28 68.5 48t94.5 20q71 0 108 -44t37 -123v-212q0 -36 7.5 -59t18.5 -34t23 -13h-221q20 3 32.5 30.5t12.5 75.5v181q0 101 -65 101q-41 0 -65.5 -28
t-24.5 -72v-182q0 -51 13.5 -77.5t31.5 -28.5h-217q12 3 21 13t16 33t7 60v181q-1 101 -62 101q-39 0 -65.5 -28.5t-26.5 -71.5v-182q0 -48 13 -75.5t33 -30.5h-223q13 2 24 13t18.5 32.5t7.5 57.5v218z" />
    <glyph glyph-name="n" unicode="n" horiz-adv-x="554" 
d="M69 321q0 49 -13 71t-42 22h-14l192 75l1 -72q24 28 66 48t81 20q65 0 105 -39.5t40 -123.5v-216q0 -36 7.5 -59t18.5 -34t23 -13h-222q21 5 33 30t12 72v188q0 98 -68 98q-37 0 -65 -29t-28 -73v-184q0 -47 13.5 -73.5t33.5 -28.5h-225q14 2 25 13t18.5 32.5t7.5 57.5
v218z" />
    <glyph glyph-name="o" unicode="o" horiz-adv-x="562" 
d="M275 -15q-107 0 -173 66t-66 175q0 110 70 184.5t178 74.5q107 0 174.5 -65.5t67.5 -174.5q0 -115 -70 -187.5t-181 -72.5zM289 75q46 0 75.5 42.5t29.5 107.5q0 72 -35 121t-88 49q-47 0 -76 -40.5t-29 -105.5q0 -74 35 -124t88 -50z" />
    <glyph glyph-name="p" unicode="p" horiz-adv-x="543" 
d="M66 316q0 46 -12.5 72t-43.5 26h-11l186 75l2 -72q23 32 60 50t77 18q80 0 132 -62.5t52 -170.5q0 -117 -63 -190.5t-167 -73.5q-60 0 -85 27v-91q0 -93 49 -105h-219q9 0 19.5 12t17 34.5t6.5 58.5v392zM191 147q0 -72 76 -72q48 0 76.5 41t28.5 108q0 76 -25 120
t-70 44q-35 0 -60.5 -30t-25.5 -80v-131z" />
    <glyph glyph-name="q" unicode="q" horiz-adv-x="540" 
d="M347 46q-48 -60 -129 -60t-132 61t-51 168q0 112 67 191t169 79q61 0 118 -23q11 -5 25 -5q37 0 60 29v-562q0 -93 49 -105h-218q8 0 18.5 12t17 33.5t6.5 59.5v122zM348 325q0 71 -74 71q-48 0 -76 -43.5t-28 -111.5t25 -113t66 -45q36 0 61.5 30t25.5 77v135z" />
    <glyph glyph-name="r" unicode="r" horiz-adv-x="390" 
d="M68 330q0 89 -54 88h-12l185 71l2 -104q19 44 54.5 72t74.5 28q28 0 52 -14v-161q-11 22 -34 38t-49 16q-42 0 -67.5 -43t-25.5 -114v-101q0 -49 15 -76t35 -30h-226q13 2 23.5 12.5t18.5 32.5t8 61v224z" />
    <glyph glyph-name="s" unicode="s" horiz-adv-x="404" 
d="M37 170q20 -41 59 -70t95 -29q27 0 47.5 10t20.5 33q0 18 -14.5 31.5t-53.5 32.5q-86 40 -117 74t-31 84q0 68 47 108.5t132 40.5q73 0 124 -27v-134q-21 35 -56 54.5t-71 19.5q-29 0 -44.5 -11.5t-15.5 -30.5t15 -33.5t85 -46.5q64 -29 91.5 -62t27.5 -81
q0 -69 -50.5 -108.5t-136.5 -39.5q-45 0 -88 11t-66 29v145z" />
    <glyph glyph-name="t" unicode="t" horiz-adv-x="355" 
d="M70 384h-71l198 225v-143h129v-82h-129v-236q1 -67 55 -67q25 0 50.5 14.5t38.5 34.5q-20 -146 -147 -146q-59 0 -91.5 34.5t-32.5 88.5v277z" />
    <glyph glyph-name="u" unicode="u" 
d="M65 359q0 36 -9 57.5t-21.5 33t-34.5 16.5h193v-287q1 -97 67 -97q40 0 67 31t27 73v180q0 41 -12 67t-38 33h177v-320q0 -45 12 -68t42 -23h14l-191 -74l-1 73q-27 -32 -68 -50.5t-79 -18.5q-145 1 -145 166v208z" />
    <glyph glyph-name="v" unicode="v" horiz-adv-x="554" 
d="M-2 466h242q-13 -1 -24 -11.5t-11 -31.5q0 -14 11 -44l82 -202l71 191q12 30 12 48q0 22 -11.5 34.5t-30.5 15.5h211q-17 -4 -37.5 -28.5t-35.5 -61.5l-154 -376h-89l-162 382q-16 37 -35.5 58.5t-38.5 25.5z" />
    <glyph glyph-name="w" unicode="w" horiz-adv-x="803" 
d="M-1 466h234q-29 -6 -29 -40q0 -19 11 -47l74 -202l73 192l-6 17q-13 34 -29.5 55.5t-30.5 24.5h214q-15 -2 -24.5 -14t-9.5 -31q0 -16 10 -42l73 -201l66 189q11 29 11 49q0 23 -10 35t-27 15h206q-21 -5 -39.5 -27.5t-34.5 -62.5l-141 -376h-89l-96 256l-96 -256h-88
l-148 382q-28 71 -74 84z" />
    <glyph glyph-name="x" unicode="x" horiz-adv-x="528" 
d="M195 221l-111 163q-21 30 -41 51t-42 31h233q-8 -2 -14.5 -8.5t-6.5 -18.5q0 -10 5.5 -23.5t57.5 -88.5q52 75 58 90t6 25q0 18 -19 24h203q-22 -4 -50 -27t-52 -60l-90 -135l119 -173q22 -33 42.5 -51t32.5 -20h-232q9 2 13.5 8t4.5 17q0 9 -6.5 26t-54.5 88
q-53 -78 -58.5 -92.5t-5.5 -22.5q0 -18 19 -24h-204q19 3 46 26.5t57 65.5z" />
    <glyph glyph-name="y" unicode="y" 
d="M21 -98q23 -6 43 -5q91 1 157 121l-146 363q-15 38 -35 59t-42 26h243q-16 -4 -25 -14.5t-9 -30.5q0 -9 4 -23.5t85 -223.5l73 191q14 36 14 54q0 20 -11.5 32.5t-28.5 14.5h207q-38 -13 -71 -90l-139 -334q-39 -94 -87 -155.5t-92 -78.5z" />
    <glyph glyph-name="z" unicode="z" horiz-adv-x="474" 
d="M250 391h-108q-86 0 -105 -88v163h400l-226 -386h138q81 0 97 79v-159h-422z" />
    <glyph glyph-name="braceleft" unicode="{" horiz-adv-x="389" 
d="M138 87q0 60 -11 94.5t-34 51.5t-81 22q74 3 100 40.5t26 125.5v143q0 52 24 80.5t73 41.5t161 13q-73 -4 -104 -36t-31 -97v-131q0 -84 -34.5 -130.5t-111.5 -49.5q146 -7 146 -181v-132q0 -65 31.5 -96.5t103.5 -35.5q-112 0 -161 13t-73 41.5t-24 80.5v142z" />
    <glyph glyph-name="bar" unicode="|" horiz-adv-x="241" 
d="M68 780h105v-1000h-105v1000z" />
    <glyph glyph-name="braceright" unicode="}" horiz-adv-x="389" 
d="M121 74q0 175 146 181q-76 3 -111 49.5t-35 130.5v131q0 65 -31 97t-103 36q111 0 160 -13t73 -41.5t24 -80.5v-143q0 -88 25.5 -125t100.5 -41q-59 -6 -82 -23t-33.5 -51.5t-10.5 -93.5v-142q0 -52 -24 -80.5t-73 -41.5t-160 -13q72 4 103 35.5t31 96.5v132z" />
    <glyph glyph-name="asciitilde" unicode="~" horiz-adv-x="692" 
d="M63 208q2 95 45 145.5t113 50.5q40 0 77.5 -16.5t69 -36.5t61.5 -37t52 -17q26 0 38.5 23.5t13.5 74.5h96v-10q0 -92 -37 -141t-106 -49q-41 0 -80.5 16.5t-72.5 38t-63.5 38.5t-54.5 17q-54 0 -56 -97h-96z" />
    <glyph glyph-name="uni00A0" unicode="&#xa0;" horiz-adv-x="213" 
 />
    <glyph glyph-name="exclamdown" unicode="&#xa1;" horiz-adv-x="300" 
d="M150 313q2 -2 9.5 -13t17 -31t18 -48.5t11.5 -64.5l12 -203q8 -111 43 -129h-222q14 0 27.5 36.5t16.5 92.5l12 203q2 36 10.5 64.5t18 48.5t17.5 31t9 13zM73 432q0 32 21.5 52.5t56.5 20.5t55.5 -20.5t20.5 -52.5q0 -31 -20.5 -51.5t-55.5 -20.5t-56.5 20.5t-21.5 51.5
z" />
    <glyph glyph-name="cent" unicode="&#xa2;" horiz-adv-x="555" 
d="M252 83q-85 14 -129 76.5t-44 151.5q0 101 48.5 172.5t124.5 89.5v99h89v-96q57 -11 93.5 -51t38.5 -100l-121 -49q6 16 6 37q0 34 -17.5 55t-48.5 21q-42 0 -67 -38t-25 -100q0 -76 37.5 -126.5t97.5 -50.5q84 0 149 90q-13 -75 -52.5 -119t-90.5 -58v-99h-89v95z" />
    <glyph glyph-name="sterling" unicode="&#xa3;" horiz-adv-x="555" 
d="M12 87q57 1 81 43.5t28 166.5h-64v86h65q2 164 54.5 231.5t162.5 67.5q93 0 145 -36l-40 -114q-7 29 -36 45.5t-61 16.5q-33 0 -51 -19t-26 -57t-8 -135h120v-86h-120q0 -151 -46 -191q23 1 41 1q26 -1 47 -5.5t48 -4.5q49 0 77 12t54 40l32 -118q-33 -46 -121 -46
q-39 0 -114.5 15.5t-108.5 15.5t-68 -9t-55 -23z" />
    <glyph glyph-name="currency" unicode="&#xa4;" horiz-adv-x="566" 
d="M157 265q-17 30 -17 68t16 67l-67 68l60 59l70 -70q28 14 63 14q38 0 66 -14l68 69l60 -59l-67 -67q16 -29 16 -67q0 -37 -16 -68l68 -67l-60 -59l-69 69q-30 -15 -66 -15q-35 0 -65 15l-68 -69l-60 60zM282 255q37 0 55.5 24t18.5 53t-18 52.5t-56 23.5q-36 0 -54 -23.5
t-18 -52.5t18 -53t54 -24z" />
    <glyph glyph-name="yen" unicode="&#xa5;" horiz-adv-x="562" 
d="M28 293h168l-33 78h-135v70h107l-46 110q-40 98 -91 115h242q-11 -2 -17.5 -12.5t-6.5 -29.5q0 -15 4 -34.5t77 -197.5l58 146q24 59 24 89q0 34 -20 39h192q-8 -2 -20.5 -12t-24 -25t-21 -30.5t-69.5 -157.5h104v-70h-133l-34 -78h167v-71h-175v-108q0 -39 8 -64
t19.5 -36.5t23.5 -13.5h-244q25 5 39 34.5t14 79.5v108h-177v71z" />
    <glyph glyph-name="brokenbar" unicode="&#xa6;" horiz-adv-x="238" 
d="M67 675h104v-350h-104v350zM67 175h104v-350h-104v350z" />
    <glyph glyph-name="section" unicode="&#xa7;" horiz-adv-x="604" 
d="M143 17q30 -42 72 -64.5t88 -22.5q35 0 59 16t24 46q0 34 -37.5 59t-119.5 53q-79 26 -118.5 62t-39.5 86q0 85 98 134q-82 44 -82 116q0 82 65 130.5t169 48.5q60 0 111.5 -17.5t75.5 -48.5l-78 -91q-23 33 -57.5 49t-66.5 16q-34 0 -58.5 -15.5t-24.5 -44.5
q0 -31 35 -53.5t125 -52.5q80 -27 120 -66.5t40 -93.5q0 -81 -86 -131q69 -48 69 -119q0 -80 -65 -129.5t-170 -49.5q-67 0 -127 24t-102 68zM361 175q55 19 55 66q0 24 -24 45t-72 40t-56 22q-29 -10 -46.5 -28t-17.5 -40q0 -17 11 -30.5t33 -26.5t117 -48z" />
    <glyph glyph-name="dieresis" unicode="&#xa8;" horiz-adv-x="486" 
d="M277 612q0 26 17.5 43.5t47.5 17.5t47.5 -17.5t17.5 -43.5q0 -27 -18 -45t-47 -18q-30 0 -47.5 18t-17.5 45zM80 612q0 26 18.5 43.5t48.5 17.5q29 0 46.5 -17.5t17.5 -43.5q0 -27 -17.5 -45t-46.5 -18q-30 0 -48.5 18t-18.5 45z" />
    <glyph glyph-name="copyright" unicode="&#xa9;" horiz-adv-x="742" 
d="M370 -11q-95 0 -174 43.5t-122.5 121.5t-43.5 179q0 102 44 179.5t122 121t174 43.5q93 0 171 -42.5t122.5 -120t44.5 -181.5q0 -102 -44 -180t-121.5 -121t-172.5 -43zM370 34q124 0 205.5 82.5t81.5 216.5q0 89 -37.5 157t-103.5 105t-146 37t-146.5 -36.5t-104.5 -105
t-38 -156.5q0 -89 38 -157t105 -105.5t146 -37.5zM503 163q-18 -24 -53 -41t-73 -17q-92 0 -147 62t-55 157q0 100 59.5 168t149.5 68q55 0 112 -35v-145q-34 108 -108 108q-51 0 -85 -41t-34 -108q0 -69 34.5 -112.5t88.5 -43.5q66 0 111 65v-85z" />
    <glyph glyph-name="ordfeminine" unicode="&#xaa;" horiz-adv-x="377" 
d="M36 532q-9 23 -9 41q0 45 43 77t103 32q130 0 130 -109v-133q0 -69 61 -69l10 2l-93 -57q-19 3 -35.5 16.5t-20.5 26.5q-34 -37 -101 -37q-45 0 -74 23.5t-29 63.5q0 43 51 77t139 52v27q0 61 -47 61q-25 0 -38 -11t-13 -23q0 -18 16 -25zM211 488q-103 -22 -103 -69
q0 -17 12.5 -27.5t32.5 -10.5q22 0 40 14t18 40v53z" />
    <glyph glyph-name="guillemotleft" unicode="&#xab;" horiz-adv-x="435" 
d="M205 252l114 187h96l-114 -187l114 -188h-96zM19 252l114 187h96l-114 -187l114 -188h-96z" />
    <glyph glyph-name="logicalnot" unicode="&#xac;" horiz-adv-x="689" 
d="M70 411h549v-271h-89v183h-460v88z" />
    <glyph glyph-name="uni00AD" unicode="&#xad;" horiz-adv-x="340" 
d="M44 303h253v-95h-253v95z" />
    <glyph glyph-name="registered" unicode="&#xae;" horiz-adv-x="738" 
d="M370 -11q-95 0 -174 43.5t-122.5 121.5t-43.5 179q0 102 44 179.5t122 121t174 43.5q93 0 171 -42.5t122.5 -120t44.5 -181.5q0 -102 -44 -180t-121.5 -121t-172.5 -43zM370 34q124 0 205.5 82.5t81.5 216.5q0 89 -37.5 157t-103.5 105t-146 37t-146 -36.5t-104.5 -105
t-38.5 -156.5q0 -89 38 -157t105 -105.5t146 -37.5zM252 479q0 29 -7.5 49t-23.5 29h162q60 0 96.5 -37t36.5 -91q0 -47 -24.5 -82t-64.5 -40q20 -13 37 -51l35 -85q17 -40 44 -52h-110l-50 124q-19 45 -42 45h-11v-93q0 -30 6.5 -49.5t20.5 -26.5h-132q27 14 27 76v284z
M372 348q29 0 47.5 20.5t18.5 53.5q0 29 -17 51t-49 22h-42v-147h42z" />
    <glyph glyph-name="macron" unicode="&#xaf;" horiz-adv-x="486" 
d="M79 633h327v-60h-327v60z" />
    <glyph glyph-name="degree" unicode="&#xb0;" horiz-adv-x="375" 
d="M50 543q0 57 39 97.5t105 40.5q65 0 104 -40.5t39 -97.5q0 -59 -39.5 -99t-103.5 -40q-65 0 -104.5 40.5t-39.5 98.5zM194 465q35 0 54.5 23.5t19.5 54.5q0 30 -19.5 53t-54.5 23t-54.5 -23t-19.5 -53q0 -31 20 -54.5t54 -23.5z" />
    <glyph glyph-name="plusminus" unicode="&#xb1;" horiz-adv-x="689" 
d="M79 429h221v184h90v-184h220v-88h-220v-186h-90v186h-221v88zM79 88h531v-88h-531v88z" />
    <glyph glyph-name="uni00B2" unicode="&#xb2;" horiz-adv-x="369" 
d="M223 554q0 22 -16.5 37.5t-47.5 15.5q-18 0 -28.5 -10.5t-10.5 -21.5q0 -14 9.5 -22.5t20.5 -10.5l-58 -67q-28 8 -46.5 30t-18.5 54q0 49 44.5 84t113.5 35q62 0 103.5 -31t41.5 -84q0 -39 -29 -81t-117 -124h103q21 0 37.5 10t22.5 22l-21 -103h-308l100 108
q51 54 78 90t27 69z" />
    <glyph glyph-name="uni00B3" unicode="&#xb3;" horiz-adv-x="369" 
d="M119 410q6 -35 25 -51.5t41 -16.5q18 0 31 9.5t13 29.5q0 29 -31 48t-87 20l15 58q22 -4 38 -4q26 0 44 15.5t18 40.5q0 20 -15.5 36.5t-41.5 16.5q-22 0 -33.5 -9.5t-11.5 -22.5q0 -14 11 -22l-86 -37q-18 21 -18 52q0 41 42.5 72.5t110.5 31.5q70 0 106.5 -30t36.5 -70
q0 -37 -26.5 -64t-64.5 -35q43 -10 71 -34t28 -62q0 -49 -44.5 -78t-108.5 -29q-60 0 -101.5 22t-53.5 52z" />
    <glyph glyph-name="acute" unicode="&#xb4;" horiz-adv-x="486" 
d="M252 666h165l-213 -160z" />
    <glyph glyph-name="uni00B5" unicode="&#xb5;" horiz-adv-x="552" 
d="M69 468h128v-288q0 -98 74 -98q38 0 61 30t23 74v282h127v-322q0 -91 69 -91l-110 -74q-56 16 -76 77q-43 -73 -102 -73q-41 0 -66 32v-198h-185q25 5 41 33.5t16 70.5v545z" />
    <glyph glyph-name="paragraph" unicode="&#xb6;" horiz-adv-x="669" 
d="M315 140q-117 2 -195 76t-78 186q0 120 84.5 193.5t224.5 73.5h229q-16 -72 -16 -159v-691h-80v780h-89v-779h-80v320z" />
    <glyph glyph-name="periodcentered" unicode="&#xb7;" horiz-adv-x="254" 
d="M40 237q0 36 24 60t63 24t63.5 -24t24.5 -60q0 -35 -24.5 -59.5t-63.5 -24.5t-63 24.5t-24 59.5z" />
    <glyph glyph-name="cedilla" unicode="&#xb8;" horiz-adv-x="486" 
d="M227 9h66l-30 -46q41 -6 61 -26t20 -44q0 -31 -28.5 -53.5t-76.5 -22.5q-50 0 -88 24q11 -3 31 -3q36 0 56.5 14.5t20.5 33.5q0 18 -20.5 31.5t-59.5 14.5z" />
    <glyph glyph-name="uni00B9" unicode="&#xb9;" horiz-adv-x="286" 
d="M30 549q51 57 100 124h81v-286q0 -76 48 -100h-196q46 23 46 100v149l-79 -89v102z" />
    <glyph glyph-name="ordmasculine" unicode="&#xba;" horiz-adv-x="394" 
d="M192 322q-75 0 -122.5 46.5t-47.5 126.5q0 81 50 134t127 53q76 0 124.5 -46.5t48.5 -125.5q0 -84 -51 -136t-129 -52zM203 388q32 0 53 30t21 77q0 46 -24.5 83.5t-62.5 37.5q-33 0 -53.5 -30t-20.5 -74q0 -47 24 -85.5t63 -38.5z" />
    <glyph glyph-name="guillemotright" unicode="&#xbb;" horiz-adv-x="435" 
d="M318 252l-113 187h95l114 -187l-114 -188h-95zM134 252l-114 187h95l115 -187l-115 -188h-95z" />
    <glyph glyph-name="onequarter" unicode="&#xbc;" horiz-adv-x="794" 
d="M419 101l157 283h116v-238h46v-63h-46v-23q0 -49 32 -60h-166q34 11 34 60v23h-173v18zM530 681h82l-386 -681h-84zM43 549q51 57 100 124h81v-286q0 -77 48 -100h-196q46 23 46 100v149l-79 -89v102zM592 146v152l-80 -152h80z" />
    <glyph glyph-name="onehalf" unicode="&#xbd;" horiz-adv-x="821" 
d="M43 549q51 57 100 124h81v-286q0 -76 48 -100h-196q46 23 46 100v149l-79 -89v102zM522 681h82l-386 -681h-84zM657 269q0 22 -16.5 37.5t-47.5 15.5q-18 0 -28.5 -10.5t-10.5 -21.5q0 -14 9.5 -22.5t20.5 -10.5l-58 -67q-28 8 -46.5 30t-18.5 54q0 49 44.5 84t113.5 35
q62 0 103.5 -31t41.5 -84q0 -39 -29 -81t-117 -124h103q21 0 37.5 10t22.5 22l-21 -103h-308l100 108q51 54 78 90t27 69z" />
    <glyph glyph-name="threequarters" unicode="&#xbe;" horiz-adv-x="900" 
d="M484 101l157 283h116v-238h46v-63h-46v-23q0 -49 32 -60h-166q34 11 34 60v23h-173v18zM124 410q6 -35 25 -51.5t41 -16.5q18 0 31 9.5t13 29.5q0 29 -31 48t-87 20l15 58q22 -4 38 -4q26 0 44 15.5t18 40.5q0 20 -15.5 36.5t-41.5 16.5q-22 0 -33.5 -9.5t-11.5 -22.5
q0 -14 11 -22l-86 -37q-18 21 -18 52q0 42 42.5 73t110.5 31q70 0 106.5 -30t36.5 -70q0 -37 -26.5 -64t-64.5 -35q43 -10 71 -34t28 -62q0 -49 -44.5 -78t-108.5 -29q-60 0 -101.5 22t-53.5 52zM595 681h82l-386 -681h-84zM657 146v152l-80 -152h80z" />
    <glyph glyph-name="questiondown" unicode="&#xbf;" horiz-adv-x="460" 
d="M167 436q0 32 21 52.5t56 20.5t56 -20.5t21 -52.5q0 -31 -21 -51.5t-56 -20.5t-56 20.5t-21 51.5zM389 -144q-32 -19 -80 -31.5t-99 -12.5q-88 0 -142 40.5t-54 112.5q0 87 99 163q52 40 75.5 68.5t23.5 57.5q0 21 -8.5 30t-23.5 14q19 21 52 21q42 0 70.5 -25t28.5 -65
q0 -73 -85 -139q-47 -37 -66.5 -62t-19.5 -50q0 -32 22 -49.5t54 -17.5q44 0 85 28t68 84v-167z" />
    <glyph glyph-name="Agrave" unicode="&#xc0;" horiz-adv-x="747" 
d="M309 666h118l220 -541q42 -108 95 -125h-269q16 2 26.5 14t10.5 33q0 15 -36 111h-255q-31 -85 -31 -106q0 -24 12.5 -37t28.5 -15h-224q20 3 45.5 36t48.5 92zM440 245l-95 246l-93 -246h188zM368 857l49 -160l-216 160h167z" />
    <glyph glyph-name="Aacute" unicode="&#xc1;" horiz-adv-x="747" 
d="M309 666h118l220 -541q42 -108 95 -125h-269q16 2 26.5 14t10.5 33q0 15 -36 111h-255q-31 -85 -31 -106q0 -24 12.5 -37t28.5 -15h-224q20 3 45.5 36t48.5 92zM440 245l-95 246l-93 -246h188zM368 857h165l-213 -160z" />
    <glyph glyph-name="Acircumflex" unicode="&#xc2;" horiz-adv-x="747" 
d="M309 666h118l220 -541q42 -108 95 -125h-269q16 2 26.5 14t10.5 33q0 15 -36 111h-255q-31 -85 -31 -106q0 -24 12.5 -37t28.5 -15h-224q20 3 45.5 36t48.5 92zM440 245l-95 246l-93 -246h188zM529 697l-160 66l-156 -66l156 187z" />
    <glyph glyph-name="Atilde" unicode="&#xc3;" horiz-adv-x="747" 
d="M309 666h118l220 -541q42 -108 95 -125h-269q16 2 26.5 14t10.5 33q0 15 -36 111h-255q-31 -85 -31 -106q0 -24 12.5 -37t28.5 -15h-224q20 3 45.5 36t48.5 92zM440 245l-95 246l-93 -246h188zM240 712q-24 25 -24 57q0 35 23.5 61t62.5 26q20 0 41.5 -8t42 -18.5
t39 -18.5t32.5 -8q47 0 47 68q22 -22 22 -54q0 -39 -25.5 -66t-63.5 -27q-30 0 -78 28q-46 28 -71 28q-46 0 -48 -68z" />
    <glyph glyph-name="Adieresis" unicode="&#xc4;" horiz-adv-x="747" 
d="M309 666h118l220 -541q42 -108 95 -125h-269q16 2 26.5 14t10.5 33q0 15 -36 111h-255q-31 -85 -31 -106q0 -24 12.5 -37t28.5 -15h-224q20 3 45.5 36t48.5 92zM440 245l-95 246l-93 -246h188zM405 790q0 26 17.5 43.5t47.5 17.5t47.5 -17.5t17.5 -43.5q0 -27 -18 -45
t-47 -18q-30 0 -47.5 18t-17.5 45zM208 790q0 26 18.5 43.5t48.5 17.5q29 0 46.5 -17.5t17.5 -43.5q0 -27 -17.5 -45t-46.5 -18q-30 0 -48.5 18t-18.5 45z" />
    <glyph glyph-name="Aring" unicode="&#xc5;" horiz-adv-x="747" 
d="M309 666h118l220 -541q42 -108 95 -125h-269q16 2 26.5 14t10.5 33q0 15 -36 111h-255q-31 -85 -31 -106q0 -24 12.5 -37t28.5 -15h-224q20 3 45.5 36t48.5 92zM440 245l-95 246l-93 -246h188zM371 699q-40 0 -69 26.5t-29 72.5q0 45 29 71t69 26t69.5 -25.5t29.5 -71.5
q0 -47 -29.5 -73t-69.5 -26zM371 743q21 0 36 14.5t15 40.5t-15 39.5t-36 13.5q-22 0 -37 -14.5t-15 -38.5q0 -26 15.5 -40.5t36.5 -14.5z" />
    <glyph glyph-name="AE" unicode="&#xc6;" horiz-adv-x="995" 
d="M1 0q50 17 122 130l272 430q36 58 36 84q0 16 -12 22h509v-178q-18 50 -47 68.5t-75 18.5h-127v-193h110q68 0 81 38v-168q-4 16 -23 27.5t-56 11.5h-112v-199h137q59 0 91.5 18.5t63.5 75.5l-31 -186h-460q27 7 42 42t15 96v153h-185l-96 -159q-36 -59 -36 -94
q0 -17 8 -26.5t18 -11.5h-245zM537 381v213l-130 -213h130z" />
    <glyph glyph-name="Ccedilla" unicode="&#xc7;" horiz-adv-x="639" 
d="M326 -12q-131 15 -208 105.5t-77 225.5q0 100 45 183.5t127.5 131t190.5 47.5q107 0 179 -39v-192q-23 59 -71 95t-119 36q-89 0 -145.5 -68.5t-56.5 -174.5q0 -108 56.5 -178t148.5 -70q54 0 108 27.5t92 75.5v-115q-34 -39 -88.5 -64.5t-117.5 -28.5l-14 -22
q41 -5 61 -25.5t20 -44.5q0 -29 -27 -52.5t-78 -23.5q-52 0 -88 24q11 -3 31 -3q37 0 57 15t20 33q0 17 -19.5 31t-60.5 15z" />
    <glyph glyph-name="Egrave" unicode="&#xc8;" horiz-adv-x="550" 
d="M90 554q0 44 -16 74.5t-46 37.5h453v-178q-14 48 -44 67.5t-78 19.5h-126v-193h110q63 -1 80 34v-158q-2 13 -21.5 23t-56.5 10h-112v-199h136q63 0 95.5 20.5t60.5 73.5l-32 -186h-457q13 2 25 14.5t20.5 37.5t8.5 67v435zM311 857l49 -160l-216 160h167z" />
    <glyph glyph-name="Eacute" unicode="&#xc9;" horiz-adv-x="550" 
d="M90 554q0 44 -16 74.5t-46 37.5h453v-178q-14 48 -44 67.5t-78 19.5h-126v-193h110q63 -1 80 34v-158q-2 13 -21.5 23t-56.5 10h-112v-199h136q63 0 95.5 20.5t60.5 73.5l-32 -186h-457q13 2 25 14.5t20.5 37.5t8.5 67v435zM265 857h165l-213 -160z" />
    <glyph glyph-name="Ecircumflex" unicode="&#xca;" horiz-adv-x="550" 
d="M90 554q0 44 -16 74.5t-46 37.5h453v-178q-14 48 -44 67.5t-78 19.5h-126v-193h110q63 -1 80 34v-158q-2 13 -21.5 23t-56.5 10h-112v-199h136q63 0 95.5 20.5t60.5 73.5l-32 -186h-457q13 2 25 14.5t20.5 37.5t8.5 67v435zM439 697l-160 66l-156 -66l156 187z" />
    <glyph glyph-name="Edieresis" unicode="&#xcb;" horiz-adv-x="550" 
d="M90 554q0 44 -16 74.5t-46 37.5h453v-178q-14 48 -44 67.5t-78 19.5h-126v-193h110q63 -1 80 34v-158q-2 13 -21.5 23t-56.5 10h-112v-199h136q63 0 95.5 20.5t60.5 73.5l-32 -186h-457q13 2 25 14.5t20.5 37.5t8.5 67v435zM315 790q0 26 17.5 43.5t47.5 17.5t47.5 -17.5
t17.5 -43.5q0 -27 -18 -45t-47 -18q-30 0 -47.5 18t-17.5 45zM118 790q0 26 18.5 43.5t48.5 17.5q29 0 46.5 -17.5t17.5 -43.5q0 -27 -17.5 -45t-46.5 -18q-30 0 -48.5 18t-18.5 45z" />
    <glyph glyph-name="Igrave" unicode="&#xcc;" horiz-adv-x="319" 
d="M86 558q0 91 -52 108h246q-13 -3 -24.5 -14t-19.5 -35t-8 -59v-455q0 -44 14 -71.5t37 -31.5h-245q23 3 37.5 30t14.5 73v455zM177 857l49 -160l-216 160h167z" />
    <glyph glyph-name="Iacute" unicode="&#xcd;" horiz-adv-x="319" 
d="M86 558q0 91 -52 108h246q-13 -3 -24.5 -14t-19.5 -35t-8 -59v-455q0 -44 14 -71.5t37 -31.5h-245q23 3 37.5 30t14.5 73v455zM149 857h165l-213 -160z" />
    <glyph glyph-name="Icircumflex" unicode="&#xce;" horiz-adv-x="319" 
d="M86 558q0 91 -52 108h246q-13 -3 -24.5 -14t-19.5 -35t-8 -59v-455q0 -44 14 -71.5t37 -31.5h-245q23 3 37.5 30t14.5 73v455zM320 697l-160 66l-156 -66l156 187z" />
    <glyph glyph-name="Idieresis" unicode="&#xcf;" horiz-adv-x="319" 
d="M86 558q0 91 -52 108h246q-13 -3 -24.5 -14t-19.5 -35t-8 -59v-455q0 -44 14 -71.5t37 -31.5h-245q23 3 37.5 30t14.5 73v455zM196 790q0 26 17.5 43.5t47.5 17.5t47.5 -17.5t17.5 -43.5q0 -27 -18 -45t-47 -18q-30 0 -47.5 18t-17.5 45zM-1 790q0 26 18.5 43.5
t48.5 17.5q29 0 46.5 -17.5t17.5 -43.5q0 -27 -17.5 -45t-46.5 -18q-30 0 -48.5 18t-18.5 45z" />
    <glyph glyph-name="Eth" unicode="&#xd0;" horiz-adv-x="726" 
d="M94 293h-72v74h72v187q0 44 -15.5 74.5t-46.5 37.5h309q154 0 249 -89t95 -237q0 -152 -95 -246t-260 -94h-291q26 5 40.5 37t14.5 87v169zM336 92q90 0 143.5 67t53.5 173q0 117 -59.5 180t-166.5 63h-69v-208h122v-74h-122v-201h98z" />
    <glyph glyph-name="Ntilde" unicode="&#xd1;" horiz-adv-x="723" 
d="M94 548q0 30 -14.5 53t-37 41t-39.5 24h212l314 -393v283q0 36 -7.5 58t-17.5 33.5t-30 18.5h217q-23 -4 -37.5 -33t-14.5 -77v-556h-104q-36 90 -107 176l-223 272v-339q0 -37 9 -60.5t23.5 -35t27.5 -13.5h-222q13 2 25 14t19 35t7 60v439zM237 712q-24 25 -24 57
q0 35 23.5 61t62.5 26q20 0 41.5 -8t42 -18.5t39 -18.5t32.5 -8q47 0 47 68q22 -22 22 -54q0 -39 -25.5 -66t-63.5 -27q-30 0 -78 28q-46 28 -71 28q-46 0 -48 -68z" />
    <glyph glyph-name="Ograve" unicode="&#xd2;" horiz-adv-x="752" 
d="M366 -15q-145 0 -235.5 94.5t-90.5 243.5q0 99 44.5 181.5t125.5 129.5t179 47q144 0 233.5 -94.5t89.5 -243.5q0 -152 -97 -255t-249 -103zM389 88q79 0 128.5 62.5t49.5 165.5q0 118 -55 191t-148 73q-79 0 -128.5 -60.5t-49.5 -165.5q0 -121 54 -193.5t149 -72.5z
M403 857l49 -160l-216 160h167z" />
    <glyph glyph-name="Oacute" unicode="&#xd3;" horiz-adv-x="752" 
d="M366 -15q-145 0 -235.5 94.5t-90.5 243.5q0 99 44.5 181.5t125.5 129.5t179 47q144 0 233.5 -94.5t89.5 -243.5q0 -152 -97 -255t-249 -103zM389 88q79 0 128.5 62.5t49.5 165.5q0 118 -55 191t-148 73q-79 0 -128.5 -60.5t-49.5 -165.5q0 -121 54 -193.5t149 -72.5z
M345 857h165l-213 -160z" />
    <glyph glyph-name="Ocircumflex" unicode="&#xd4;" horiz-adv-x="752" 
d="M366 -15q-145 0 -235.5 94.5t-90.5 243.5q0 99 44.5 181.5t125.5 129.5t179 47q144 0 233.5 -94.5t89.5 -243.5q0 -152 -97 -255t-249 -103zM389 88q79 0 128.5 62.5t49.5 165.5q0 118 -55 191t-148 73q-79 0 -128.5 -60.5t-49.5 -165.5q0 -121 54 -193.5t149 -72.5z
M539 697l-160 66l-156 -66l156 187z" />
    <glyph glyph-name="Otilde" unicode="&#xd5;" horiz-adv-x="752" 
d="M366 -15q-145 0 -235.5 94.5t-90.5 243.5q0 99 44.5 181.5t125.5 129.5t179 47q144 0 233.5 -94.5t89.5 -243.5q0 -152 -97 -255t-249 -103zM389 88q79 0 128.5 62.5t49.5 165.5q0 118 -55 191t-148 73q-79 0 -128.5 -60.5t-49.5 -165.5q0 -121 54 -193.5t149 -72.5z
M250 712q-24 25 -24 57q0 35 23.5 61t62.5 26q20 0 41.5 -8t42 -18.5t39 -18.5t32.5 -8q47 0 47 68q22 -22 22 -54q0 -39 -25.5 -66t-63.5 -27q-30 0 -78 28q-46 28 -71 28q-46 0 -48 -68z" />
    <glyph glyph-name="Odieresis" unicode="&#xd6;" horiz-adv-x="752" 
d="M366 -15q-145 0 -235.5 94.5t-90.5 243.5q0 99 44.5 181.5t125.5 129.5t179 47q144 0 233.5 -94.5t89.5 -243.5q0 -152 -97 -255t-249 -103zM389 88q79 0 128.5 62.5t49.5 165.5q0 118 -55 191t-148 73q-79 0 -128.5 -60.5t-49.5 -165.5q0 -121 54 -193.5t149 -72.5z
M416 790q0 26 17.5 43.5t47.5 17.5t47.5 -17.5t17.5 -43.5q0 -27 -18 -45t-47 -18q-30 0 -47.5 18t-17.5 45zM219 790q0 26 18.5 43.5t48.5 17.5q29 0 46.5 -17.5t17.5 -43.5q0 -27 -17.5 -45t-46.5 -18q-30 0 -48.5 18t-18.5 45z" />
    <glyph glyph-name="multiply" unicode="&#xd7;" horiz-adv-x="689" 
d="M64 64l218 219l-218 219l62 63l219 -220l218 219l63 -62l-219 -220l219 -218l-63 -63l-218 219l-219 -219z" />
    <glyph glyph-name="Oslash" unicode="&#xd8;" horiz-adv-x="744" 
d="M146 62q-54 48 -82 116t-28 146q0 99 45 181.5t125 129.5t179 47q83 0 153 -37l39 60l72 -25l-51 -77q54 -48 82 -116t28 -145q0 -98 -44 -181.5t-122.5 -130t-179.5 -46.5q-84 0 -156 36l-43 -65l-73 23zM470 544q-50 37 -110 37q-80 0 -129 -61.5t-49 -165.5t43 -172z
M275 123q46 -36 110 -36q78 0 128 62.5t50 166.5q0 101 -43 169z" />
    <glyph glyph-name="Ugrave" unicode="&#xd9;" horiz-adv-x="698" 
d="M81 554q0 97 -52 112h247q-12 -2 -23.5 -13.5t-19.5 -35t-8 -60.5v-322q0 -84 34 -118t104 -34q73 0 102.5 38t29.5 114v318q0 99 -58 113h235q-25 -4 -40.5 -34.5t-15.5 -78.5v-314q0 -254 -261 -254q-144 0 -209 61t-65 183v325zM362 857l49 -160l-216 160h167z" />
    <glyph glyph-name="Uacute" unicode="&#xda;" horiz-adv-x="698" 
d="M81 554q0 97 -52 112h247q-12 -2 -23.5 -13.5t-19.5 -35t-8 -60.5v-322q0 -84 34 -118t104 -34q73 0 102.5 38t29.5 114v318q0 99 -58 113h235q-25 -4 -40.5 -34.5t-15.5 -78.5v-314q0 -254 -261 -254q-144 0 -209 61t-65 183v325zM361 857h165l-213 -160z" />
    <glyph glyph-name="Ucircumflex" unicode="&#xdb;" horiz-adv-x="698" 
d="M81 554q0 97 -52 112h247q-12 -2 -23.5 -13.5t-19.5 -35t-8 -60.5v-322q0 -84 34 -118t104 -34q73 0 102.5 38t29.5 114v318q0 99 -58 113h235q-25 -4 -40.5 -34.5t-15.5 -78.5v-314q0 -254 -261 -254q-144 0 -209 61t-65 183v325zM511 697l-160 66l-156 -66l156 187z
" />
    <glyph glyph-name="Udieresis" unicode="&#xdc;" horiz-adv-x="698" 
d="M81 554q0 97 -52 112h247q-12 -2 -23.5 -13.5t-19.5 -35t-8 -60.5v-322q0 -84 34 -118t104 -34q73 0 102.5 38t29.5 114v318q0 99 -58 113h235q-25 -4 -40.5 -34.5t-15.5 -78.5v-314q0 -254 -261 -254q-144 0 -209 61t-65 183v325zM389 790q0 26 17.5 43.5t47.5 17.5
t47.5 -17.5t17.5 -43.5q0 -27 -18 -45t-47 -18q-30 0 -47.5 18t-17.5 45zM192 790q0 26 18.5 43.5t48.5 17.5q29 0 46.5 -17.5t17.5 -43.5q0 -27 -17.5 -45t-46.5 -18q-30 0 -48.5 18t-18.5 45z" />
    <glyph glyph-name="Yacute" unicode="&#xdd;" horiz-adv-x="672" 
d="M263 275l-157 276q-57 99 -105 115h269q-14 -2 -22.5 -12.5t-8.5 -26.5q0 -25 26 -71l95 -165l85 147q36 63 36 90q0 17 -8.5 26.5t-19.5 11.5h217q-14 -3 -44 -35.5t-58 -81.5l-160 -269v-168q0 -38 7.5 -62t19 -36t23.5 -14h-247q13 2 24.5 13.5t19.5 35.5t8 63v163z
M387 857h165l-213 -160z" />
    <glyph glyph-name="Thorn" unicode="&#xde;" horiz-adv-x="602" 
d="M86 562q0 35 -8 57.5t-19.5 33.5t-24.5 13h245q-12 -2 -23.5 -13t-19.5 -33t-8 -58v-9q54 6 110 6q102 0 167 -58.5t65 -152.5q0 -98 -68.5 -160t-176.5 -62q-58 0 -97 11v-34q0 -44 14 -71.5t37 -31.5h-245q23 4 37.5 30.5t14.5 72.5v459zM228 226q32 -10 75 -10
q55 0 87.5 35.5t32.5 93.5q0 54 -28 88.5t-82 34.5q-52 0 -85 -7v-235z" />
    <glyph glyph-name="germandbls" unicode="&#xdf;" horiz-adv-x="633" 
d="M71 453q0 107 74 173t197 66q88 0 143 -38.5t55 -100.5q0 -67 -78 -115q-56 -36 -67 -46.5t-11 -22.5q0 -24 56 -55l51 -28q106 -61 106 -151q0 -69 -53 -108t-137 -39q-90 0 -147 42l35 98q18 -27 48 -41.5t60 -14.5q29 0 47.5 13t18.5 35q0 27 -25 52t-83 56
q-108 58 -108 123q0 53 75 99q39 23 57 43.5t18 44.5q0 36 -25 56.5t-63 20.5q-52 0 -84.5 -38t-32.5 -98v-361q0 -40 7.5 -65t19 -38t23.5 -15h-225q12 2 23 14t18 37.5t7 66.5v335z" />
    <glyph glyph-name="agrave" unicode="&#xe0;" horiz-adv-x="507" 
d="M63 278q-12 31 -12 56q0 63 60 107t142 44q180 0 180 -151v-185q0 -45 21 -69.5t60 -24.5l11 2l-122 -80q-24 4 -47.5 22t-30.5 39q-20 -26 -59.5 -39.5t-80.5 -13.5q-63 0 -103 32.5t-40 88.5q0 59 70.5 105.5t194.5 73.5v38q0 86 -66 86q-38 0 -55 -16.5t-17 -33.5
q0 -23 20 -33zM307 215q-143 -28 -145 -95q0 -24 18 -39.5t46 -15.5q31 0 56 20.5t25 56.5v73zM292 666l49 -160l-216 160h167z" />
    <glyph glyph-name="aacute" unicode="&#xe1;" horiz-adv-x="507" 
d="M63 278q-12 31 -12 56q0 63 60 107t142 44q180 0 180 -151v-185q0 -45 21 -69.5t60 -24.5l11 2l-122 -80q-24 4 -47.5 22t-30.5 39q-20 -26 -59.5 -39.5t-80.5 -13.5q-63 0 -103 32.5t-40 88.5q0 59 70.5 105.5t194.5 73.5v38q0 86 -66 86q-38 0 -55 -16.5t-17 -33.5
q0 -23 20 -33zM307 215q-143 -28 -145 -95q0 -24 18 -39.5t46 -15.5q31 0 56 20.5t25 56.5v73zM245 666h165l-213 -160z" />
    <glyph glyph-name="acircumflex" unicode="&#xe2;" horiz-adv-x="507" 
d="M63 278q-12 31 -12 56q0 63 60 107t142 44q180 0 180 -151v-185q0 -45 21 -69.5t60 -24.5l11 2l-122 -80q-24 4 -47.5 22t-30.5 39q-20 -26 -59.5 -39.5t-80.5 -13.5q-63 0 -103 32.5t-40 88.5q0 59 70.5 105.5t194.5 73.5v38q0 86 -66 86q-38 0 -55 -16.5t-17 -33.5
q0 -23 20 -33zM307 215q-143 -28 -145 -95q0 -24 18 -39.5t46 -15.5q31 0 56 20.5t25 56.5v73zM254 697l144 -191l-144 73l-141 -73z" />
    <glyph glyph-name="atilde" unicode="&#xe3;" horiz-adv-x="507" 
d="M63 278q-12 31 -12 56q0 63 60 107t142 44q180 0 180 -151v-185q0 -45 21 -69.5t60 -24.5l11 2l-122 -80q-24 4 -47.5 22t-30.5 39q-20 -26 -59.5 -39.5t-80.5 -13.5q-63 0 -103 32.5t-40 88.5q0 59 70.5 105.5t194.5 73.5v38q0 86 -66 86q-38 0 -55 -16.5t-17 -33.5
q0 -23 20 -33zM307 215q-143 -28 -145 -95q0 -24 18 -39.5t46 -15.5q31 0 56 20.5t25 56.5v73zM125 530q-24 25 -24 57q0 35 23.5 61t62.5 26q20 0 41.5 -8t42 -18.5t39 -18.5t32.5 -8q47 0 47 68q22 -22 22 -54q0 -39 -25.5 -66t-63.5 -27q-30 0 -78 28q-46 28 -71 28
q-46 0 -48 -68z" />
    <glyph glyph-name="adieresis" unicode="&#xe4;" horiz-adv-x="507" 
d="M63 278q-12 31 -12 56q0 63 60 107t142 44q180 0 180 -151v-185q0 -45 21 -69.5t60 -24.5l11 2l-122 -80q-24 4 -47.5 22t-30.5 39q-20 -26 -59.5 -39.5t-80.5 -13.5q-63 0 -103 32.5t-40 88.5q0 59 70.5 105.5t194.5 73.5v38q0 86 -66 86q-38 0 -55 -16.5t-17 -33.5
q0 -23 20 -33zM307 215q-143 -28 -145 -95q0 -24 18 -39.5t46 -15.5q31 0 56 20.5t25 56.5v73zM289 612q0 26 17.5 43.5t47.5 17.5t47.5 -17.5t17.5 -43.5q0 -27 -18 -45t-47 -18q-30 0 -47.5 18t-17.5 45zM92 612q0 26 18.5 43.5t48.5 17.5q29 0 46.5 -17.5t17.5 -43.5
q0 -27 -17.5 -45t-46.5 -18q-30 0 -48.5 18t-18.5 45z" />
    <glyph glyph-name="aring" unicode="&#xe5;" horiz-adv-x="507" 
d="M63 278q-12 31 -12 56q0 63 60 107t142 44q180 0 180 -151v-185q0 -45 21 -69.5t60 -24.5l11 2l-122 -80q-24 4 -47.5 22t-30.5 39q-20 -26 -59.5 -39.5t-80.5 -13.5q-63 0 -103 32.5t-40 88.5q0 59 70.5 105.5t194.5 73.5v38q0 86 -66 86q-38 0 -55 -16.5t-17 -33.5
q0 -23 20 -33zM307 215q-143 -28 -145 -95q0 -24 18 -39.5t46 -15.5q31 0 56 20.5t25 56.5v73zM257 510q-40 0 -69 26.5t-29 72.5q0 45 29 71t69 26t69.5 -25.5t29.5 -71.5q0 -47 -29.5 -73t-69.5 -26zM257 554q21 0 36 14.5t15 40.5t-15 39.5t-36 13.5q-22 0 -37 -14.5
t-15 -38.5q0 -26 15.5 -40.5t36.5 -14.5z" />
    <glyph glyph-name="ae" unicode="&#xe6;" horiz-adv-x="761" 
d="M63 278q-11 27 -11 56q0 62 59 106.5t142 44.5q102 0 144 -53q53 53 132 53q92 0 143 -69.5t52 -197.5h-295q15 -69 55.5 -103t95.5 -34q41 0 81.5 17.5t69.5 51.5q-34 -166 -204 -166q-103 0 -167 77q-25 -38 -69.5 -57t-97.5 -19q-71 0 -111 33.5t-40 87.5
q0 59 70.5 105.5t194.5 73.5v38q0 86 -66 86q-38 0 -55 -16.5t-17 -33.5q0 -24 21 -33zM602 290q0 49 -20.5 81.5t-56.5 32.5q-38 0 -64.5 -32.5t-31.5 -81.5h173zM307 215q-145 -29 -145 -95q0 -24 18 -39.5t46 -15.5q30 0 55.5 19.5t25.5 57.5v73z" />
    <glyph glyph-name="ccedilla" unicode="&#xe7;" horiz-adv-x="461" 
d="M205 -12q-80 11 -125.5 72t-45.5 155q0 118 67 194t167 76q67 0 112 -41.5t50 -113.5l-122 -49q7 17 7 37q0 34 -17 55t-49 21q-42 0 -67.5 -39t-25.5 -99q0 -77 38.5 -127t100.5 -50q82 0 145 75q-14 -74 -62.5 -116.5t-108.5 -50.5l-15 -24q41 -5 61 -25.5t20 -44.5
q0 -29 -27 -52.5t-78 -23.5q-52 0 -88 24q11 -3 31 -3q37 0 57 15t20 33q0 17 -19.5 31t-60.5 15z" />
    <glyph glyph-name="egrave" unicode="&#xe8;" horiz-adv-x="491" 
d="M310 81q42 0 82.5 17.5t68.5 51.5q-33 -165 -204 -165q-101 0 -161.5 68.5t-60.5 171.5q0 110 63.5 185t160.5 75q92 0 143 -69.5t52 -197.5h-295q13 -69 54.5 -103t96.5 -34zM333 290q0 49 -20.5 81.5t-57.5 32.5q-38 0 -64.5 -32.5t-31.5 -81.5h174zM282 666l49 -160
l-216 160h167z" />
    <glyph glyph-name="eacute" unicode="&#xe9;" horiz-adv-x="491" 
d="M310 81q42 0 82.5 17.5t68.5 51.5q-33 -165 -204 -165q-101 0 -161.5 68.5t-60.5 171.5q0 110 63.5 185t160.5 75q92 0 143 -69.5t52 -197.5h-295q13 -69 54.5 -103t96.5 -34zM333 290q0 49 -20.5 81.5t-57.5 32.5q-38 0 -64.5 -32.5t-31.5 -81.5h174zM252 666h165
l-213 -160z" />
    <glyph glyph-name="ecircumflex" unicode="&#xea;" horiz-adv-x="491" 
d="M310 81q42 0 82.5 17.5t68.5 51.5q-33 -165 -204 -165q-101 0 -161.5 68.5t-60.5 171.5q0 110 63.5 185t160.5 75q92 0 143 -69.5t52 -197.5h-295q13 -69 54.5 -103t96.5 -34zM333 290q0 49 -20.5 81.5t-57.5 32.5q-38 0 -64.5 -32.5t-31.5 -81.5h174zM251 697l144 -191
l-144 73l-141 -73z" />
    <glyph glyph-name="edieresis" unicode="&#xeb;" horiz-adv-x="491" 
d="M310 81q42 0 82.5 17.5t68.5 51.5q-33 -165 -204 -165q-101 0 -161.5 68.5t-60.5 171.5q0 110 63.5 185t160.5 75q92 0 143 -69.5t52 -197.5h-295q13 -69 54.5 -103t96.5 -34zM333 290q0 49 -20.5 81.5t-57.5 32.5q-38 0 -64.5 -32.5t-31.5 -81.5h174zM286 612
q0 26 17.5 43.5t47.5 17.5t47.5 -17.5t17.5 -43.5q0 -27 -18 -45t-47 -18q-30 0 -47.5 18t-17.5 45zM89 612q0 26 18.5 43.5t48.5 17.5q29 0 46.5 -17.5t17.5 -43.5q0 -27 -17.5 -45t-46.5 -18q-30 0 -48.5 18t-18.5 45z" />
    <glyph glyph-name="igrave" unicode="&#xec;" horiz-adv-x="266" 
d="M72 322q0 92 -59 92h-13l201 75v-383q0 -49 14.5 -76t35.5 -30h-231q14 2 25 13t19 33.5t8 59.5v216zM174 666l49 -160l-216 160h167z" />
    <glyph glyph-name="iacute" unicode="&#xed;" horiz-adv-x="266" 
d="M72 322q0 92 -59 92h-13l201 75v-383q0 -49 14.5 -76t35.5 -30h-231q14 2 25 13t19 33.5t8 59.5v216zM103 666h165l-213 -160z" />
    <glyph glyph-name="icircumflex" unicode="&#xee;" horiz-adv-x="266" 
d="M72 322q0 92 -59 92h-13l201 75v-383q0 -49 14.5 -76t35.5 -30h-231q14 2 25 13t19 33.5t8 59.5v216zM136 697l144 -191l-144 73l-141 -73z" />
    <glyph glyph-name="idieresis" unicode="&#xef;" horiz-adv-x="266" 
d="M72 322q0 92 -59 92h-13l201 75v-383q0 -49 14.5 -76t35.5 -30h-231q14 2 25 13t19 33.5t8 59.5v216zM171 612q0 26 17.5 43.5t47.5 17.5t47.5 -17.5t17.5 -43.5q0 -27 -18 -45t-47 -18q-30 0 -47.5 18t-17.5 45zM-26 612q0 26 18.5 43.5t48.5 17.5q29 0 46.5 -17.5
t17.5 -43.5q0 -27 -17.5 -45t-46.5 -18q-30 0 -48.5 18t-18.5 45z" />
    <glyph glyph-name="eth" unicode="&#xf0;" horiz-adv-x="530" 
d="M123 560l84 36q-43 27 -81 41l134 59q32 -18 69 -51l96 41l35 -42l-89 -38q127 -143 127 -344q0 -128 -62.5 -203t-174.5 -75q-103 0 -164.5 72t-61.5 189q0 100 55 169.5t142 69.5q88 0 143 -91q-44 101 -118 167l-99 -42zM278 77q41 0 65 36.5t24 101.5
q0 74 -34.5 124.5t-84.5 50.5q-39 0 -63 -38t-24 -103q0 -73 32.5 -122.5t84.5 -49.5z" />
    <glyph glyph-name="ntilde" unicode="&#xf1;" horiz-adv-x="554" 
d="M69 321q0 49 -13 71t-42 22h-14l192 75l1 -72q24 28 66 48t81 20q65 0 105 -39.5t40 -123.5v-216q0 -36 7.5 -59t18.5 -34t23 -13h-222q21 5 33 30t12 72v188q0 98 -68 98q-37 0 -65 -29t-28 -73v-184q0 -47 13.5 -73.5t33.5 -28.5h-225q14 2 25 13t18.5 32.5t7.5 57.5
v218zM150 530q-24 25 -24 57q0 35 23.5 61t62.5 26q20 0 41.5 -8t42 -18.5t39 -18.5t32.5 -8q47 0 47 68q22 -22 22 -54q0 -39 -25.5 -66t-63.5 -27q-30 0 -78 28q-46 28 -71 28q-46 0 -48 -68z" />
    <glyph glyph-name="ograve" unicode="&#xf2;" horiz-adv-x="562" 
d="M275 -15q-107 0 -173 66t-66 175q0 110 70 184.5t178 74.5q107 0 174.5 -65.5t67.5 -174.5q0 -115 -70 -187.5t-181 -72.5zM289 75q46 0 75.5 42.5t29.5 107.5q0 72 -35 121t-88 49q-47 0 -76 -40.5t-29 -105.5q0 -74 35 -124t88 -50zM301 666l49 -160l-216 160h167z" />
    <glyph glyph-name="oacute" unicode="&#xf3;" horiz-adv-x="562" 
d="M275 -15q-107 0 -173 66t-66 175q0 110 70 184.5t178 74.5q107 0 174.5 -65.5t67.5 -174.5q0 -115 -70 -187.5t-181 -72.5zM289 75q46 0 75.5 42.5t29.5 107.5q0 72 -35 121t-88 49q-47 0 -76 -40.5t-29 -105.5q0 -74 35 -124t88 -50zM275 666h165l-213 -160z" />
    <glyph glyph-name="ocircumflex" unicode="&#xf4;" horiz-adv-x="562" 
d="M275 -15q-107 0 -173 66t-66 175q0 110 70 184.5t178 74.5q107 0 174.5 -65.5t67.5 -174.5q0 -115 -70 -187.5t-181 -72.5zM289 75q46 0 75.5 42.5t29.5 107.5q0 72 -35 121t-88 49q-47 0 -76 -40.5t-29 -105.5q0 -74 35 -124t88 -50zM281 697l144 -191l-144 73l-141 -73
z" />
    <glyph glyph-name="otilde" unicode="&#xf5;" horiz-adv-x="562" 
d="M275 -15q-107 0 -173 66t-66 175q0 110 70 184.5t178 74.5q107 0 174.5 -65.5t67.5 -174.5q0 -115 -70 -187.5t-181 -72.5zM289 75q46 0 75.5 42.5t29.5 107.5q0 72 -35 121t-88 49q-47 0 -76 -40.5t-29 -105.5q0 -74 35 -124t88 -50zM152 530q-24 25 -24 57
q0 35 23.5 61t62.5 26q20 0 41.5 -8t42 -18.5t39 -18.5t32.5 -8q47 0 47 68q22 -22 22 -54q0 -39 -25.5 -66t-63.5 -27q-30 0 -78 28q-46 28 -71 28q-46 0 -48 -68z" />
    <glyph glyph-name="odieresis" unicode="&#xf6;" horiz-adv-x="562" 
d="M275 -15q-107 0 -173 66t-66 175q0 110 70 184.5t178 74.5q107 0 174.5 -65.5t67.5 -174.5q0 -115 -70 -187.5t-181 -72.5zM289 75q46 0 75.5 42.5t29.5 107.5q0 72 -35 121t-88 49q-47 0 -76 -40.5t-29 -105.5q0 -74 35 -124t88 -50zM316 612q0 26 17.5 43.5t47.5 17.5
t47.5 -17.5t17.5 -43.5q0 -27 -18 -45t-47 -18q-30 0 -47.5 18t-17.5 45zM119 612q0 26 18.5 43.5t48.5 17.5q29 0 46.5 -17.5t17.5 -43.5q0 -27 -17.5 -45t-46.5 -18q-30 0 -48.5 18t-18.5 45z" />
    <glyph glyph-name="divide" unicode="&#xf7;" horiz-adv-x="689" 
d="M282 476q0 29 18.5 46t43.5 17t44 -17t19 -46t-19.5 -45t-43.5 -16t-43 16t-19 45zM69 330h549v-87h-549v87zM281 96q0 29 18.5 45.5t43.5 16.5q24 0 43.5 -16.5t19.5 -45.5t-19.5 -45.5t-43.5 -16.5q-25 0 -43.5 16.5t-18.5 45.5z" />
    <glyph glyph-name="oslash" unicode="&#xf8;" horiz-adv-x="562" 
d="M121 34q-85 67 -85 192q0 110 69.5 184.5t178.5 74.5q49 0 99 -18l34 56l61 -20l-40 -67q88 -67 88 -191q0 -114 -70 -187t-181 -73q-49 0 -99 18l-32 -51l-62 17zM329 376q-27 19 -58 19q-47 0 -76 -40.5t-29 -105.5q0 -56 23 -102zM230 95q26 -20 59 -20
q46 0 75.5 42.5t29.5 107.5q0 55 -23 99z" />
    <glyph glyph-name="ugrave" unicode="&#xf9;" 
d="M65 359q0 36 -9 57.5t-21.5 33t-34.5 16.5h193v-287q1 -97 67 -97q40 0 67 31t27 73v180q0 41 -12 67t-38 33h177v-320q0 -45 12 -68t42 -23h14l-191 -74l-1 73q-27 -32 -68 -50.5t-79 -18.5q-145 1 -145 166v208zM304 666l49 -160l-216 160h167z" />
    <glyph glyph-name="uacute" unicode="&#xfa;" 
d="M65 359q0 36 -9 57.5t-21.5 33t-34.5 16.5h193v-287q1 -97 67 -97q40 0 67 31t27 73v180q0 41 -12 67t-38 33h177v-320q0 -45 12 -68t42 -23h14l-191 -74l-1 73q-27 -32 -68 -50.5t-79 -18.5q-145 1 -145 166v208zM266 666h165l-213 -160z" />
    <glyph glyph-name="ucircumflex" unicode="&#xfb;" 
d="M65 359q0 36 -9 57.5t-21.5 33t-34.5 16.5h193v-287q1 -97 67 -97q40 0 67 31t27 73v180q0 41 -12 67t-38 33h177v-320q0 -45 12 -68t42 -23h14l-191 -74l-1 73q-27 -32 -68 -50.5t-79 -18.5q-145 1 -145 166v208zM275 697l144 -191l-144 73l-141 -73z" />
    <glyph glyph-name="udieresis" unicode="&#xfc;" 
d="M65 359q0 36 -9 57.5t-21.5 33t-34.5 16.5h193v-287q1 -97 67 -97q40 0 67 31t27 73v180q0 41 -12 67t-38 33h177v-320q0 -45 12 -68t42 -23h14l-191 -74l-1 73q-27 -32 -68 -50.5t-79 -18.5q-145 1 -145 166v208zM310 612q0 26 17.5 43.5t47.5 17.5t47.5 -17.5
t17.5 -43.5q0 -27 -18 -45t-47 -18q-30 0 -47.5 18t-17.5 45zM113 612q0 26 18.5 43.5t48.5 17.5q29 0 46.5 -17.5t17.5 -43.5q0 -27 -17.5 -45t-46.5 -18q-30 0 -48.5 18t-18.5 45z" />
    <glyph glyph-name="yacute" unicode="&#xfd;" 
d="M21 -98q23 -6 43 -5q91 1 157 121l-146 363q-15 38 -35 59t-42 26h243q-16 -4 -25 -14.5t-9 -30.5q0 -9 4 -23.5t85 -223.5l73 191q14 36 14 54q0 20 -11.5 32.5t-28.5 14.5h207q-38 -13 -71 -90l-139 -334q-39 -94 -87 -155.5t-92 -78.5zM296 666h165l-213 -160z" />
    <glyph glyph-name="thorn" unicode="&#xfe;" horiz-adv-x="543" 
d="M68 517q0 56 -14 82t-47 26h-9l196 72v-274q24 29 59.5 45.5t72.5 16.5q80 0 132 -62.5t52 -170.5q0 -117 -63 -190.5t-167 -73.5q-55 0 -86 24v-88q0 -92 50 -105h-219q11 2 20.5 13t16 33.5t6.5 58.5v593zM194 147q0 -72 75 -72q48 0 76.5 41t28.5 108q0 76 -25 120
t-70 44q-35 0 -60 -30t-25 -80v-131z" />
    <glyph glyph-name="ydieresis" unicode="&#xff;" 
d="M21 -98q23 -6 43 -5q91 1 157 121l-146 363q-15 38 -35 59t-42 26h243q-16 -4 -25 -14.5t-9 -30.5q0 -9 4 -23.5t85 -223.5l73 191q14 36 14 54q0 20 -11.5 32.5t-28.5 14.5h207q-38 -13 -71 -90l-139 -334q-39 -94 -87 -155.5t-92 -78.5zM306 612q0 26 17.5 43.5
t47.5 17.5t47.5 -17.5t17.5 -43.5q0 -27 -18 -45t-47 -18q-30 0 -47.5 18t-17.5 45zM109 612q0 26 18.5 43.5t48.5 17.5q29 0 46.5 -17.5t17.5 -43.5q0 -27 -17.5 -45t-46.5 -18q-30 0 -48.5 18t-18.5 45z" />
    <glyph glyph-name="Amacron" unicode="&#x100;" horiz-adv-x="747" 
d="M309 666h118l220 -541q42 -108 95 -125h-269q16 2 26.5 14t10.5 33q0 15 -36 111h-255q-31 -85 -31 -106q0 -24 12.5 -37t28.5 -15h-224q20 3 45.5 36t48.5 92zM440 245l-95 246l-93 -246h188zM203 816h327v-60h-327v60z" />
    <glyph glyph-name="amacron" unicode="&#x101;" horiz-adv-x="507" 
d="M63 278q-12 31 -12 56q0 63 60 107t142 44q180 0 180 -151v-185q0 -45 21 -69.5t60 -24.5l11 2l-122 -80q-24 4 -47.5 22t-30.5 39q-20 -26 -59.5 -39.5t-80.5 -13.5q-63 0 -103 32.5t-40 88.5q0 59 70.5 105.5t194.5 73.5v38q0 86 -66 86q-38 0 -55 -16.5t-17 -33.5
q0 -23 20 -33zM307 215q-143 -28 -145 -95q0 -24 18 -39.5t46 -15.5q31 0 56 20.5t25 56.5v73zM95 633h327v-60h-327v60z" />
    <glyph glyph-name="Abreve" unicode="&#x102;" horiz-adv-x="747" 
d="M309 666h118l220 -541q42 -108 95 -125h-269q16 2 26.5 14t10.5 33q0 15 -36 111h-255q-31 -85 -31 -106q0 -24 12.5 -37t28.5 -15h-224q20 3 45.5 36t48.5 92zM440 245l-95 246l-93 -246h188zM244 879q19 -37 52 -55.5t70 -18.5t70 19t53 55q0 -72 -35.5 -115.5
t-88.5 -43.5q-51 0 -86 44t-35 115z" />
    <glyph glyph-name="abreve" unicode="&#x103;" horiz-adv-x="507" 
d="M63 278q-12 31 -12 56q0 63 60 107t142 44q180 0 180 -151v-185q0 -45 21 -69.5t60 -24.5l11 2l-122 -80q-24 4 -47.5 22t-30.5 39q-20 -26 -59.5 -39.5t-80.5 -13.5q-63 0 -103 32.5t-40 88.5q0 59 70.5 105.5t194.5 73.5v38q0 86 -66 86q-38 0 -55 -16.5t-17 -33.5
q0 -23 20 -33zM307 215q-143 -28 -145 -95q0 -24 18 -39.5t46 -15.5q31 0 56 20.5t25 56.5v73zM136 696q19 -37 52 -55.5t70 -18.5t70 19t53 55q0 -72 -35.5 -115.5t-88.5 -43.5q-51 0 -86 44t-35 115z" />
    <glyph glyph-name="Aogonek" unicode="&#x104;" horiz-adv-x="747" 
d="M309 666h118l220 -541q20 -51 45 -85t49 -40q-66 -1 -96.5 -23t-30.5 -48q0 -23 15 -37.5t41 -14.5q27 0 60 19q-12 -38 -42.5 -58.5t-61.5 -20.5q-37 0 -64.5 23t-27.5 62q0 29 17 55t44 43h-121q13 2 24.5 13.5t11.5 34.5q0 14 -36 110h-255q-31 -84 -31 -106
q0 -24 11.5 -37t27.5 -15h-221q46 12 93 128zM440 245l-95 246l-93 -246h188z" />
    <glyph glyph-name="aogonek" unicode="&#x105;" horiz-adv-x="507" 
d="M63 278q-12 31 -12 56q0 63 59.5 107t142.5 44q180 0 180 -151v-185q0 -45 21 -69.5t60 -24.5l11 2l-82 -59q-46 -35 -46 -71q0 -22 15 -35.5t41 -13.5q27 0 60 19q-12 -38 -42.5 -58.5t-61.5 -20.5q-37 0 -64.5 23t-27.5 62q0 52 48 89q-30 18 -40 46q-20 -27 -59.5 -40
t-80.5 -13q-63 0 -103 32.5t-40 88.5q0 59 70.5 105.5t194.5 73.5v38q0 86 -66 86q-38 0 -55 -16.5t-17 -33.5q0 -23 20 -33zM307 215q-145 -29 -145 -95q0 -24 18 -39.5t46 -15.5q30 0 55.5 20.5t25.5 56.5v73z" />
    <glyph glyph-name="Cacute" unicode="&#x106;" horiz-adv-x="639" 
d="M596 78q-35 -41 -93.5 -67t-124.5 -26q-154 0 -245.5 93.5t-91.5 240.5q0 100 45 183.5t127.5 131t190.5 47.5q107 0 179 -39v-192q-23 59 -71 95t-119 36q-89 0 -145.5 -68.5t-56.5 -174.5q0 -108 56.5 -178t148.5 -70q54 0 108 27.5t92 75.5v-115zM335 857h165
l-213 -160z" />
    <glyph glyph-name="cacute" unicode="&#x107;" horiz-adv-x="461" 
d="M308 281q7 17 7 37q0 34 -17.5 55t-48.5 21q-41 0 -67 -39t-26 -99q0 -76 38.5 -126.5t100.5 -50.5q80 0 145 75q-13 -72 -67 -120.5t-127 -48.5q-97 0 -154.5 62t-57.5 168q0 118 68 194t166 76q67 0 112 -41.5t50 -113.5zM232 666h165l-213 -160z" />
    <glyph glyph-name="Ccircumflex" unicode="&#x108;" horiz-adv-x="639" 
d="M596 78q-35 -41 -93.5 -67t-124.5 -26q-154 0 -245.5 93.5t-91.5 240.5q0 100 45 183.5t127.5 131t190.5 47.5q107 0 179 -39v-192q-23 59 -71 95t-119 36q-89 0 -145.5 -68.5t-56.5 -174.5q0 -108 56.5 -178t148.5 -70q54 0 108 27.5t92 75.5v-115zM515 697l-160 66
l-156 -66l156 187z" />
    <glyph glyph-name="ccircumflex" unicode="&#x109;" horiz-adv-x="461" 
d="M308 281q7 17 7 37q0 34 -17.5 55t-48.5 21q-41 0 -67 -39t-26 -99q0 -76 38.5 -126.5t100.5 -50.5q80 0 145 75q-13 -72 -67 -120.5t-127 -48.5q-97 0 -154.5 62t-57.5 168q0 118 68 194t166 76q67 0 112 -41.5t50 -113.5zM253 697l144 -191l-144 73l-141 -73z" />
    <glyph glyph-name="Cdotaccent" unicode="&#x10a;" horiz-adv-x="639" 
d="M596 78q-35 -41 -93.5 -67t-124.5 -26q-154 0 -245.5 93.5t-91.5 240.5q0 100 45 183.5t127.5 131t190.5 47.5q107 0 179 -39v-192q-23 59 -71 95t-119 36q-89 0 -145.5 -68.5t-56.5 -174.5q0 -108 56.5 -178t148.5 -70q54 0 108 27.5t92 75.5v-115zM287 791
q0 29 19.5 48t51.5 19t51.5 -19t19.5 -48t-19.5 -48.5t-51.5 -19.5t-51.5 19.5t-19.5 48.5z" />
    <glyph glyph-name="cdotaccent" unicode="&#x10b;" horiz-adv-x="461" 
d="M308 281q7 17 7 37q0 34 -17.5 55t-48.5 21q-41 0 -67 -39t-26 -99q0 -76 38.5 -126.5t100.5 -50.5q80 0 145 75q-13 -72 -67 -120.5t-127 -48.5q-97 0 -154.5 62t-57.5 168q0 118 68 194t166 76q67 0 112 -41.5t50 -113.5zM175 613q0 26 17.5 44.5t49.5 18.5
q30 0 48 -18.5t18 -44.5q0 -27 -18 -45.5t-48 -18.5q-31 0 -49 18.5t-18 45.5z" />
    <glyph glyph-name="Ccaron" unicode="&#x10c;" horiz-adv-x="639" 
d="M596 78q-35 -41 -93.5 -67t-124.5 -26q-154 0 -245.5 93.5t-91.5 240.5q0 100 45 183.5t127.5 131t190.5 47.5q107 0 179 -39v-192q-23 59 -71 95t-119 36q-89 0 -145.5 -68.5t-56.5 -174.5q0 -108 56.5 -178t148.5 -70q54 0 108 27.5t92 75.5v-115zM222 886l149 -67
l146 67l-146 -185z" />
    <glyph glyph-name="ccaron" unicode="&#x10d;" horiz-adv-x="461" 
d="M308 281q7 17 7 37q0 34 -17.5 55t-48.5 21q-41 0 -67 -39t-26 -99q0 -76 38.5 -126.5t100.5 -50.5q80 0 145 75q-13 -72 -67 -120.5t-127 -48.5q-97 0 -154.5 62t-57.5 168q0 118 68 194t166 76q67 0 112 -41.5t50 -113.5zM104 698l145 -71l141 71l-141 -188z" />
    <glyph glyph-name="Dcaron" unicode="&#x10e;" horiz-adv-x="726" 
d="M94 554q0 44 -15.5 74.5t-46.5 37.5h309q154 0 249 -89t95 -237q0 -154 -95.5 -247t-259.5 -93h-291q26 4 40.5 36.5t14.5 87.5v430zM336 92q90 0 143.5 67t53.5 173q0 117 -59.5 180t-166.5 63h-69v-483h98zM216 886l149 -67l146 67l-146 -185z" />
    <glyph glyph-name="dcaron" unicode="&#x10f;" horiz-adv-x="546" 
d="M360 42q-20 -25 -57.5 -41t-78.5 -16q-88 0 -139 62t-51 169q0 117 66 192t159 75q62 0 93 -27v70q0 103 -62 103h-10l199 72v-558q0 -51 13 -74.5t42 -23.5h13l-186 -67zM353 305q0 40 -20.5 64.5t-59.5 24.5q-47 0 -76 -42.5t-29 -106.5q0 -72 25.5 -118t70.5 -46
q35 0 62 24.5t27 67.5v132zM552 682h131l-155 -191z" />
    <glyph glyph-name="Dcroat" unicode="&#x110;" horiz-adv-x="726" 
d="M94 293h-72v74h72v187q0 44 -15.5 74.5t-46.5 37.5h309q154 0 249 -89t95 -237q0 -152 -95 -246t-260 -94h-291q26 5 40.5 37t14.5 87v169zM336 92q90 0 143.5 67t53.5 173q0 117 -59.5 180t-166.5 63h-69v-208h122v-74h-122v-201h98z" />
    <glyph glyph-name="dcroat" unicode="&#x111;" horiz-adv-x="545" 
d="M368 43q-22 -26 -59.5 -42t-79.5 -16q-88 0 -141 60.5t-53 169.5q0 120 67.5 194t162.5 74q63 0 94 -27v79h-153v47h146q-12 47 -54 47h-11l201 72v-119h46v-47h-46v-392q0 -47 12.5 -72.5t43.5 -25.5h12l-187 -67zM360 304q0 42 -20.5 66t-61.5 24q-48 0 -77.5 -42.5
t-29.5 -106.5q0 -73 26 -118t72 -45q36 0 63.5 25t27.5 67v130z" />
    <glyph glyph-name="Emacron" unicode="&#x112;" horiz-adv-x="550" 
d="M90 554q0 44 -16 74.5t-46 37.5h453v-178q-14 48 -44 67.5t-78 19.5h-126v-193h110q63 -1 80 34v-158q-2 13 -21.5 23t-56.5 10h-112v-199h136q63 0 95.5 20.5t60.5 73.5l-32 -186h-457q13 2 25 14.5t20.5 37.5t8.5 67v435zM110 816h327v-60h-327v60z" />
    <glyph glyph-name="emacron" unicode="&#x113;" horiz-adv-x="491" 
d="M310 81q42 0 82.5 17.5t68.5 51.5q-33 -165 -204 -165q-101 0 -161.5 68.5t-60.5 171.5q0 110 63.5 185t160.5 75q92 0 143 -69.5t52 -197.5h-295q13 -69 54.5 -103t96.5 -34zM333 290q0 49 -20.5 81.5t-57.5 32.5q-38 0 -64.5 -32.5t-31.5 -81.5h174zM90 633h327v-60
h-327v60z" />
    <glyph glyph-name="Ebreve" unicode="&#x114;" horiz-adv-x="550" 
d="M90 554q0 44 -16 74.5t-46 37.5h453v-178q-14 48 -44 67.5t-78 19.5h-126v-193h110q63 -1 80 34v-158q-2 13 -21.5 23t-56.5 10h-112v-199h136q63 0 95.5 20.5t60.5 73.5l-32 -186h-457q13 2 25 14.5t20.5 37.5t8.5 67v435zM158 879q19 -37 52 -55.5t70 -18.5t70 19
t53 55q0 -72 -35.5 -115.5t-88.5 -43.5q-51 0 -86 44t-35 115z" />
    <glyph glyph-name="ebreve" unicode="&#x115;" horiz-adv-x="491" 
d="M310 81q42 0 82.5 17.5t68.5 51.5q-33 -165 -204 -165q-101 0 -161.5 68.5t-60.5 171.5q0 110 63.5 185t160.5 75q92 0 143 -69.5t52 -197.5h-295q13 -69 54.5 -103t96.5 -34zM333 290q0 49 -20.5 81.5t-57.5 32.5q-38 0 -64.5 -32.5t-31.5 -81.5h174zM137 696
q19 -37 52 -55.5t70 -18.5t70 19t53 55q0 -72 -35.5 -115.5t-88.5 -43.5q-51 0 -86 44t-35 115z" />
    <glyph glyph-name="Edotaccent" unicode="&#x116;" horiz-adv-x="550" 
d="M90 554q0 44 -16 74.5t-46 37.5h453v-178q-14 48 -44 67.5t-78 19.5h-126v-193h110q63 -1 80 34v-158q-2 13 -21.5 23t-56.5 10h-112v-199h136q63 0 95.5 20.5t60.5 73.5l-32 -186h-457q13 2 25 14.5t20.5 37.5t8.5 67v435zM213 791q0 29 19.5 48t51.5 19t51.5 -19
t19.5 -48t-19.5 -48.5t-51.5 -19.5t-51.5 19.5t-19.5 48.5z" />
    <glyph glyph-name="edotaccent" unicode="&#x117;" horiz-adv-x="491" 
d="M310 81q42 0 82.5 17.5t68.5 51.5q-33 -165 -204 -165q-101 0 -161.5 68.5t-60.5 171.5q0 110 63.5 185t160.5 75q92 0 143 -69.5t52 -197.5h-295q13 -69 54.5 -103t96.5 -34zM333 290q0 49 -20.5 81.5t-57.5 32.5q-38 0 -64.5 -32.5t-31.5 -81.5h174zM185 613
q0 26 17.5 44.5t49.5 18.5q30 0 48 -18.5t18 -44.5q0 -27 -18 -45.5t-48 -18.5q-31 0 -49 18.5t-18 45.5z" />
    <glyph glyph-name="Eogonek" unicode="&#x118;" 
d="M90 554q0 95 -62 112h453v-178q-14 48 -44 67.5t-78 19.5h-126v-193h110q30 0 52 10t28 27v-166q-13 38 -78 38h-112v-199h136q63 0 95.5 20.5t60.5 73.5l-32 -186q-44 -5 -64 -27t-20 -45t15 -37t41 -14q30 0 60 19q-12 -39 -42.5 -59t-61.5 -20q-37 0 -64.5 22.5
t-27.5 62.5q0 29 17 55t44 43h-353q25 6 39 38t14 81v435z" />
    <glyph glyph-name="eogonek" unicode="&#x119;" horiz-adv-x="491" 
d="M159 218q18 -62 52.5 -99.5t98.5 -37.5q40 0 82 18t69 51q-11 -54 -33.5 -84t-54.5 -53q-36 -26 -53 -43.5t-17 -43.5q0 -21 15 -35t41 -14q27 0 60 19q-12 -38 -42.5 -58.5t-61.5 -20.5q-37 0 -64.5 23t-27.5 62q0 47 41 84q-3 -1 -7 -1q-100 0 -161 68t-61 172
q0 111 63 185.5t161 74.5q92 0 143 -69.5t52 -197.5h-295zM333 290q0 49 -20.5 81.5t-57.5 32.5q-38 0 -64.5 -32.5t-31.5 -81.5h174z" />
    <glyph glyph-name="Ecaron" unicode="&#x11a;" horiz-adv-x="550" 
d="M90 554q0 44 -16 74.5t-46 37.5h453v-178q-14 48 -44 67.5t-78 19.5h-126v-193h110q63 -1 80 34v-158q-2 13 -21.5 23t-56.5 10h-112v-199h136q63 0 95.5 20.5t60.5 73.5l-32 -186h-457q13 2 25 14.5t20.5 37.5t8.5 67v435zM136 886l149 -67l146 67l-146 -185z" />
    <glyph glyph-name="ecaron" unicode="&#x11b;" horiz-adv-x="491" 
d="M310 81q42 0 82.5 17.5t68.5 51.5q-33 -165 -204 -165q-101 0 -161.5 68.5t-60.5 171.5q0 110 63.5 185t160.5 75q92 0 143 -69.5t52 -197.5h-295q13 -69 54.5 -103t96.5 -34zM333 290q0 49 -20.5 81.5t-57.5 32.5q-38 0 -64.5 -32.5t-31.5 -81.5h174zM108 698l145 -71
l141 71l-141 -188z" />
    <glyph glyph-name="Gcircumflex" unicode="&#x11c;" horiz-adv-x="692" 
d="M471 204q0 32 -9 52t-22 31t-27 13h251q-13 -2 -26 -12.5t-21 -30.5t-8 -50v-183q-100 -40 -238 -40q-100 0 -176.5 42.5t-119 120t-42.5 170.5q0 102 46.5 185.5t132 131t198.5 47.5q116 0 193 -40v-173q-28 53 -81.5 83.5t-121.5 30.5q-96 0 -156 -69t-60 -178
q0 -108 59 -179t153 -71q33 0 75 13v106zM537 697l-160 66l-156 -66l156 187z" />
    <glyph glyph-name="gcircumflex" unicode="&#x11d;" horiz-adv-x="516" 
d="M497 -28q0 -46 -34 -85t-97.5 -60.5t-150.5 -21.5q-96 0 -144 25t-48 63q0 29 23 57t65 48q-63 19 -63 62q0 24 26.5 53t63.5 49q-44 18 -71.5 56.5t-27.5 86.5q0 78 58.5 129t153.5 51q38 0 80 -11t87 -11q51 0 79 17v-92q-25 -3 -74 -3q24 -34 24 -80q0 -73 -56.5 -118
t-146.5 -45q-12 0 -28 3q-41 -22 -41 -40q0 -20 66 -23l115 -4q65 -2 103 -30t38 -76zM250 218q35 0 51.5 26.5t16.5 60.5q0 44 -23 74t-58 30q-31 0 -49.5 -23t-18.5 -62q0 -44 23 -75t58 -31zM185 -17q-47 -26 -47 -54q0 -45 105 -45q67 0 103.5 15t36.5 39q0 37 -84 41z
M256 697l144 -191l-144 73l-141 -73z" />
    <glyph glyph-name="Gbreve" unicode="&#x11e;" horiz-adv-x="692" 
d="M471 204q0 32 -9 52t-22 31t-27 13h251q-13 -2 -26 -12.5t-21 -30.5t-8 -50v-183q-100 -40 -238 -40q-100 0 -176.5 42.5t-119 120t-42.5 170.5q0 102 46.5 185.5t132 131t198.5 47.5q116 0 193 -40v-173q-28 53 -81.5 83.5t-121.5 30.5q-96 0 -156 -69t-60 -178
q0 -108 59 -179t153 -71q33 0 75 13v106zM257 879q19 -37 52 -55.5t70 -18.5t70 19t53 55q0 -72 -35.5 -115.5t-88.5 -43.5q-51 0 -86 44t-35 115z" />
    <glyph glyph-name="gbreve" unicode="&#x11f;" horiz-adv-x="516" 
d="M497 -28q0 -46 -34 -85t-97.5 -60.5t-150.5 -21.5q-96 0 -144 25t-48 63q0 29 23 57t65 48q-63 19 -63 62q0 24 26.5 53t63.5 49q-44 18 -71.5 56.5t-27.5 86.5q0 78 58.5 129t153.5 51q38 0 80 -11t87 -11q51 0 79 17v-92q-25 -3 -74 -3q24 -34 24 -80q0 -73 -56.5 -118
t-146.5 -45q-12 0 -28 3q-41 -22 -41 -40q0 -20 66 -23l115 -4q65 -2 103 -30t38 -76zM250 218q35 0 51.5 26.5t16.5 60.5q0 44 -23 74t-58 30q-31 0 -49.5 -23t-18.5 -62q0 -44 23 -75t58 -31zM185 -17q-47 -26 -47 -54q0 -45 105 -45q67 0 103.5 15t36.5 39q0 37 -84 41z
M135 696q19 -37 52 -55.5t70 -18.5t70 19t53 55q0 -72 -35.5 -115.5t-88.5 -43.5q-51 0 -86 44t-35 115z" />
    <glyph glyph-name="Gdotaccent" unicode="&#x120;" horiz-adv-x="692" 
d="M471 204q0 32 -9 52t-22 31t-27 13h251q-13 -2 -26 -12.5t-21 -30.5t-8 -50v-183q-100 -40 -238 -40q-100 0 -176.5 42.5t-119 120t-42.5 170.5q0 102 46.5 185.5t132 131t198.5 47.5q116 0 193 -40v-173q-28 53 -81.5 83.5t-121.5 30.5q-96 0 -156 -69t-60 -178
q0 -108 59 -179t153 -71q33 0 75 13v106zM310 791q0 29 19.5 48t51.5 19t51.5 -19t19.5 -48t-19.5 -48.5t-51.5 -19.5t-51.5 19.5t-19.5 48.5z" />
    <glyph glyph-name="gdotaccent" unicode="&#x121;" horiz-adv-x="516" 
d="M497 -28q0 -46 -34 -85t-97.5 -60.5t-150.5 -21.5q-96 0 -144 25t-48 63q0 29 23 57t65 48q-63 19 -63 62q0 24 26.5 53t63.5 49q-44 18 -71.5 56.5t-27.5 86.5q0 78 58.5 129t153.5 51q38 0 80 -11t87 -11q51 0 79 17v-92q-25 -3 -74 -3q24 -34 24 -80q0 -73 -56.5 -118
t-146.5 -45q-12 0 -28 3q-41 -22 -41 -40q0 -20 66 -23l115 -4q65 -2 103 -30t38 -76zM250 218q35 0 51.5 26.5t16.5 60.5q0 44 -23 74t-58 30q-31 0 -49.5 -23t-18.5 -62q0 -44 23 -75t58 -31zM185 -17q-47 -26 -47 -54q0 -45 105 -45q67 0 103.5 15t36.5 39q0 37 -84 41z
M186 613q0 26 17.5 44.5t49.5 18.5q30 0 48 -18.5t18 -44.5q0 -27 -18 -45.5t-48 -18.5q-31 0 -49 18.5t-18 45.5z" />
    <glyph glyph-name="Gcommaaccent" unicode="&#x122;" horiz-adv-x="692" 
d="M471 204q0 32 -9 52t-22 31t-27 13h251q-13 -2 -26 -12.5t-21 -30.5t-8 -50v-183q-100 -40 -238 -40q-100 0 -176.5 42.5t-119 120t-42.5 170.5q0 102 46.5 185.5t132 131t198.5 47.5q116 0 193 -40v-173q-28 53 -81.5 83.5t-121.5 30.5q-96 0 -156 -69t-60 -178
q0 -108 59 -179t153 -71q33 0 75 13v106zM361 -119q-2 -1 -6 -1q-22 0 -33.5 12.5t-11.5 28.5t12.5 30.5t34.5 14.5t37.5 -17t15.5 -46q0 -34 -26 -62.5t-69 -34.5q20 10 33 32t13 43z" />
    <glyph glyph-name="gcommaaccent" unicode="&#x123;" horiz-adv-x="516" 
d="M291 686q-20 -9 -32.5 -30t-12.5 -44q50 0 50 -40q0 -17 -12 -31.5t-35 -14.5q-21 0 -37 17t-16 46q0 34 26.5 62.5t68.5 34.5zM497 -28q0 -46 -34 -85t-97.5 -60.5t-150.5 -21.5q-98 0 -145 25t-47 63q0 29 23 57t65 48q-63 19 -63 62q0 24 26.5 53t63.5 49
q-44 18 -71.5 56.5t-27.5 86.5q0 79 58.5 129.5t153.5 50.5q38 0 80 -11t87 -11q51 0 79 17v-92q-21 -3 -74 -3q24 -34 24 -80q0 -73 -56.5 -118t-146.5 -45q-12 0 -28 3q-41 -22 -41 -40q0 -20 66 -23l115 -4q65 -2 103 -30t38 -76zM250 218q35 0 51.5 26.5t16.5 60.5
q0 44 -23 74t-58 30q-31 0 -49.5 -23t-18.5 -62q0 -44 23 -75t58 -31zM185 -17q-47 -26 -47 -54q0 -45 105 -45q67 0 103.5 15t36.5 39q0 37 -84 41z" />
    <glyph glyph-name="Hcircumflex" unicode="&#x124;" horiz-adv-x="741" 
d="M83 554q-1 97 -53 112h248q-23 -5 -37 -34.5t-14 -77.5v-172h287v172q0 37 -7 59t-16.5 34t-29.5 19h248q-21 -3 -36 -32t-15 -80v-442q0 -38 8 -62.5t19.5 -36t23.5 -13.5h-248q12 2 24.5 13.5t20.5 36t8 62.5v179h-287v-179q0 -49 14.5 -79t36.5 -33h-248
q13 2 25.5 13.5t20 36t7.5 62.5v442zM530 697l-160 66l-156 -66l156 187z" />
    <glyph glyph-name="hcircumflex" unicode="&#x125;" horiz-adv-x="555" 
d="M71 512q0 110 -61 110h-12l200 79v-279q22 23 63 43t79 20q67 0 106.5 -42t39.5 -121v-217q0 -35 7.5 -57.5t17.5 -33.5t25 -14h-216q18 4 28 30t10 72v188q0 98 -69 98q-36 0 -63.5 -28t-27.5 -74v-184q0 -48 14 -73.5t33 -28.5h-226q14 2 25 13t19 33.5t8 59.5v406z
M438 697l-160 66l-156 -66l156 187z" />
    <glyph glyph-name="Hbar" unicode="&#x126;" horiz-adv-x="750" 
d="M82 553q0 89 -52 113h249q-50 -18 -51 -113h295q-5 97 -52 113h248q-25 -8 -38 -43t-13 -85v-426q0 -37 7.5 -60.5t20 -36.5t23.5 -15h-248q24 6 38 39t14 88v164h-295v-164q0 -43 8.5 -70.5t20 -41t22.5 -15.5h-248q24 6 37.5 41t13.5 87v425zM523 382v100h-295v-100
h295z" />
    <glyph glyph-name="hbar" unicode="&#x127;" horiz-adv-x="555" 
d="M71 547h-59v60h59v42l127 52v-94h203v-60h-203v-125q20 21 61 42t81 21q67 0 106.5 -41t39.5 -122v-217q0 -35 7.5 -57.5t18 -34t24.5 -13.5h-216q18 3 28 29.5t10 72.5v188q0 98 -69 98q-36 0 -63.5 -27.5t-27.5 -74.5v-184q0 -48 13.5 -73.5t33.5 -28.5h-226
q13 2 24.5 13t19.5 33.5t8 59.5v441z" />
    <glyph glyph-name="Itilde" unicode="&#x128;" horiz-adv-x="319" 
d="M86 558q0 91 -52 108h246q-13 -3 -24.5 -14t-19.5 -35t-8 -59v-455q0 -44 14 -71.5t37 -31.5h-245q23 3 37.5 30t14.5 73v455zM30 712q-24 25 -24 57q0 35 23.5 61t62.5 26q20 0 41.5 -8t42 -18.5t39 -18.5t32.5 -8q47 0 47 68q22 -22 22 -54q0 -39 -25.5 -66t-63.5 -27
q-30 0 -78 28q-46 28 -71 28q-46 0 -48 -68z" />
    <glyph glyph-name="itilde" unicode="&#x129;" horiz-adv-x="271" 
d="M72 322q0 92 -59 92h-13l201 75v-383q0 -49 14.5 -76t35.5 -30h-231q14 2 25 13t19 33.5t8 59.5v216zM6 530q-24 25 -24 57q0 35 23.5 61t62.5 26q20 0 41.5 -8t42 -18.5t39 -18.5t32.5 -8q47 0 47 68q22 -22 22 -54q0 -39 -25.5 -66t-63.5 -27q-30 0 -78 28
q-46 28 -71 28q-46 0 -48 -68z" />
    <glyph glyph-name="Imacron" unicode="&#x12a;" horiz-adv-x="314" 
d="M86 558q0 91 -52 108h246q-13 -3 -24.5 -14t-19.5 -35t-8 -59v-455q0 -44 14 -71.5t37 -31.5h-245q23 3 37.5 30t14.5 73v455zM-6 820h327v-60h-327v60z" />
    <glyph glyph-name="imacron" unicode="&#x12b;" horiz-adv-x="266" 
d="M72 322q0 92 -59 92h-13l201 75v-383q0 -49 14.5 -76t35.5 -30h-231q14 2 25 13t19 33.5t8 59.5v216zM-29 633h327v-60h-327v60z" />
    <glyph glyph-name="Ibreve" unicode="&#x12c;" horiz-adv-x="314" 
d="M86 558q0 91 -52 108h246q-13 -3 -24.5 -14t-19.5 -35t-8 -59v-455q0 -44 14 -71.5t37 -31.5h-245q23 3 37.5 30t14.5 73v455zM38 879q19 -37 52 -55.5t70 -18.5t70 19t53 55q0 -72 -35.5 -115.5t-88.5 -43.5q-51 0 -86 44t-35 115z" />
    <glyph glyph-name="ibreve" unicode="&#x12d;" horiz-adv-x="271" 
d="M72 322q0 92 -59 92h-13l201 75v-383q0 -49 14.5 -76t35.5 -30h-231q14 2 25 13t19 33.5t8 59.5v216zM14 696q19 -37 52 -55.5t70 -18.5t70 19t53 55q0 -72 -35.5 -115.5t-88.5 -43.5q-51 0 -86 44t-35 115z" />
    <glyph glyph-name="Iogonek" unicode="&#x12e;" horiz-adv-x="319" 
d="M37 0q51 13 51 104v454q0 44 -14.5 73t-38.5 35h248q-24 -6 -37.5 -34.5t-13.5 -73.5v-454q0 -92 49 -104q-57 -2 -90 -23t-33 -51q0 -23 15 -36t41 -13q30 0 60 19q-11 -36 -40 -57.5t-64 -21.5q-37 0 -64 22.5t-27 62.5q0 29 16.5 55t43.5 43h-102z" />
    <glyph glyph-name="iogonek" unicode="&#x12f;" horiz-adv-x="266" 
d="M23 0q23 6 36 33t13 73v216q0 92 -59 92h-13l201 75v-383q0 -94 48 -106q-61 -2 -92 -22t-31 -53q0 -21 15 -34.5t41 -13.5q29 0 60 18q-12 -37 -41.5 -58t-62.5 -21q-37 0 -64 23t-27 62q0 29 16.5 55.5t43.5 43.5h-84zM50 613q0 31 21.5 52t56.5 21t56 -21t21 -52
q0 -32 -21 -53.5t-56 -21.5t-56.5 21.5t-21.5 53.5z" />
    <glyph glyph-name="Idotaccent" unicode="&#x130;" horiz-adv-x="319" 
d="M86 558q0 91 -52 108h246q-13 -3 -24.5 -14t-19.5 -35t-8 -59v-455q0 -44 14 -71.5t37 -31.5h-245q23 3 37.5 30t14.5 73v455zM89 791q0 29 19.5 48t51.5 19t51.5 -19t19.5 -48t-19.5 -49t-51.5 -20t-51.5 20t-19.5 49z" />
    <glyph glyph-name="dotlessi" unicode="&#x131;" horiz-adv-x="266" 
d="M72 322q0 92 -59 92h-13l201 75v-383q0 -49 14.5 -76t35.5 -30h-231q14 2 25 13t19 33.5t8 59.5v216z" />
    <glyph glyph-name="IJ" unicode="&#x132;" horiz-adv-x="647" 
d="M86 558q0 91 -52 108h246q-13 -3 -24.5 -14t-19.5 -35t-8 -59v-455q0 -44 14 -71.5t37 -31.5h-245q23 3 37.5 30t14.5 73v455zM419 559q0 93 -56 107h249q-50 -17 -50 -108v-430q0 -206 -162 -206q-77 0 -123 54q18 -5 36 -5q54 0 80 47.5t26 125.5v415z" />
    <glyph glyph-name="ij" unicode="&#x133;" horiz-adv-x="537" 
d="M70 323q0 91 -58 91h-13l198 75v-383q0 -49 14.5 -76t35.5 -30h-228q14 3 24.5 13.5t18.5 33t8 59.5v217zM47 613q0 32 21.5 53t56.5 21q36 0 57 -21t21 -53t-21 -54t-57 -22q-35 0 -56.5 22t-21.5 54zM318 613q0 32 22 53t56 21q35 0 56.5 -21t21.5 -53t-21 -54t-57 -22
q-35 0 -56.5 22t-21.5 54zM341 328q0 88 -57 86h-14l199 75v-504q0 -85 -40 -130.5t-119 -45.5q-35 0 -66 16t-44 35q29 -8 44 -8q52 0 74.5 33t22.5 99v344z" />
    <glyph glyph-name="Jcircumflex" unicode="&#x134;" horiz-adv-x="333" 
d="M105 559q0 93 -56 107h249q-50 -17 -50 -108v-430q0 -206 -162 -206q-77 0 -123 54q18 -5 36 -5q54 0 80 47.5t26 125.5v415zM337 697l-160 66l-156 -66l156 187z" />
    <glyph glyph-name="jcircumflex" unicode="&#x135;" horiz-adv-x="266" 
d="M70 328q0 86 -57 86h-13l198 75v-503q0 -85 -40 -130.5t-119 -45.5q-35 0 -65 15t-44 36q21 -8 44 -8q51 0 73.5 33.5t22.5 98.5v343zM134 585l-142 -70l142 186l143 -186z" />
    <glyph glyph-name="Kcommaaccent" unicode="&#x136;" horiz-adv-x="718" 
d="M83 554q0 95 -53 112h248q-23 -4 -37 -34t-14 -78v-184q110 119 164.5 179t54.5 92q0 20 -25 25h262q-21 -3 -67 -34t-92 -82l-166 -181l196 -249q39 -50 74 -81.5t66 -38.5h-223l-244 312v-201q0 -49 14 -78t37 -33h-248q23 4 38 33t15 78v443zM359 -119q-2 -1 -6 -1
q-22 0 -33.5 12.5t-11.5 28.5t12.5 30.5t34.5 14.5t37.5 -17t15.5 -46q0 -34 -26 -62.5t-69 -34.5q20 10 33 32t13 43z" />
    <glyph glyph-name="kcommaaccent" unicode="&#x137;" horiz-adv-x="585" 
d="M70 517q0 109 -62 108h-10l200 72v-432l109 115q33 33 33 58q0 11 -8.5 18.5t-19.5 9.5h243q-53 -18 -130 -95l-101 -102l136 -167q71 -88 111 -88l12 2q-40 -28 -126 -28q-46 0 -78.5 20t-65.5 65q-95 130 -115 153v-120q0 -36 7.5 -59t18.5 -34t23 -13h-226
q22 4 35.5 31.5t13.5 74.5v411zM293 -119q-2 -1 -6 -1q-22 0 -33.5 12.5t-11.5 28.5t12.5 30.5t34.5 14.5t37.5 -17t15.5 -46q0 -34 -26 -62.5t-69 -34.5q20 10 33 32t13 43z" />
    <glyph glyph-name="kgreenlandic" unicode="&#x138;" horiz-adv-x="585" 
d="M72 322q0 92 -59 92h-13l201 75v-224l112 114q33 33 33 59q0 12 -8.5 19t-19.5 9h246q-56 -20 -132 -96l-103 -101l138 -167q74 -88 113 -88q5 0 13 2q-40 -28 -120 -28q-53 0 -90 22.5t-84 88.5q-66 91 -98 126v-108q0 -39 7.5 -64t19.5 -39t22 -14h-229q21 0 36 31.5
t15 84.5v206z" />
    <glyph glyph-name="Lacute" unicode="&#x139;" horiz-adv-x="544" 
d="M82 553q0 97 -51 113h242q-22 -4 -37 -32.5t-15 -80.5v-461h135q78 0 106.5 16t55.5 65l-27 -173h-455q20 4 33 36t13 88v429zM240 857h165l-213 -160z" />
    <glyph glyph-name="lacute" unicode="&#x13a;" horiz-adv-x="266" 
d="M69 517q0 54 -14 81t-48 27h-9l199 72v-591q0 -36 7 -58.5t18.5 -34t23.5 -13.5h-227q12 2 23 12.5t19 32.5t8 61v411zM111 857h165l-213 -160z" />
    <glyph glyph-name="Lcommaaccent" unicode="&#x13b;" horiz-adv-x="544" 
d="M82 553q0 97 -51 113h242q-22 -4 -37 -32.5t-15 -80.5v-461h135q78 0 106.5 16t55.5 65l-27 -173h-455q20 4 33 36t13 88v429zM279 -119q-2 -1 -6 -1q-22 0 -33.5 12.5t-11.5 28.5t12.5 30.5t34.5 14.5t37.5 -17t15.5 -46q0 -34 -26 -62.5t-69 -34.5q20 10 33 32t13 43z
" />
    <glyph glyph-name="lcommaaccent" unicode="&#x13c;" horiz-adv-x="266" 
d="M69 517q0 54 -14 81t-48 27h-9l199 72v-591q0 -36 7 -58.5t18.5 -34t23.5 -13.5h-227q12 2 23 12.5t19 32.5t8 61v411zM138 -119q-2 -1 -6 -1q-22 0 -33.5 12.5t-11.5 28.5t12.5 30.5t34.5 14.5t37.5 -17t15.5 -46q0 -34 -26 -62.5t-69 -34.5q20 10 33 32t13 43z" />
    <glyph glyph-name="Lcaron" unicode="&#x13d;" horiz-adv-x="544" 
d="M82 553q0 97 -51 113h242q-22 -4 -37 -32.5t-15 -80.5v-461h135q78 0 106.5 16t55.5 65l-27 -173h-455q20 4 33 36t13 88v429zM343 682h131l-155 -191z" />
    <glyph glyph-name="lcaron" unicode="&#x13e;" horiz-adv-x="266" 
d="M69 517q0 54 -14 81t-48 27h-9l199 72v-591q0 -36 7 -58.5t18.5 -34t23.5 -13.5h-227q12 2 23 12.5t19 32.5t8 61v411zM264 682h131l-155 -191z" />
    <glyph glyph-name="Ldot" unicode="&#x13f;" horiz-adv-x="590" 
d="M82 553q0 97 -51 113h242q-22 -4 -37 -32.5t-15 -80.5v-461h135q78 0 106.5 16t55.5 65l-27 -173h-455q20 4 33 36t13 88v429zM353 336q0 36 24 60t63 24t63.5 -24t24.5 -60t-24.5 -60t-63.5 -24t-63 24t-24 60z" />
    <glyph glyph-name="ldot" unicode="&#x140;" horiz-adv-x="482" 
d="M69 517q0 54 -14 81t-48 27h-9l199 72v-591q0 -36 7 -58.5t18.5 -34t23.5 -13.5h-227q12 2 23 12.5t19 32.5t8 61v411zM280 315q0 36 24 60t63 24t63.5 -24t24.5 -60t-24.5 -60t-63.5 -24t-63 24t-24 60z" />
    <glyph glyph-name="Lslash" unicode="&#x141;" horiz-adv-x="544" 
d="M17 268l66 49v236q0 96 -51 113h242q-20 -6 -30 -19t-16.5 -36.5t-6.5 -57.5v-133l98 73v-87l-98 -73v-241h136q62 0 98.5 22t67.5 85l-31 -199h-456q12 2 22.5 15.5t17.5 39.5t7 69v106l-66 -48v86z" />
    <glyph glyph-name="lslash" unicode="&#x142;" horiz-adv-x="262" 
d="M69 239l-62 -47v87l62 47v191q0 52 -14 80t-48 28h-9l199 72v-275l59 45v-87l-59 -45v-229q0 -36 7 -59t17 -34t21 -13h-223q22 3 36 31t14 75v133z" />
    <glyph glyph-name="Nacute" unicode="&#x143;" horiz-adv-x="723" 
d="M94 548q0 30 -14.5 53t-37 41t-39.5 24h212l314 -393v283q0 36 -7.5 58t-17.5 33.5t-30 18.5h217q-23 -4 -37.5 -33t-14.5 -77v-556h-104q-36 90 -107 176l-223 272v-339q0 -37 9 -60.5t23.5 -35t27.5 -13.5h-222q13 2 25 14t19 35t7 60v439zM360 857h165l-213 -160z" />
    <glyph glyph-name="nacute" unicode="&#x144;" horiz-adv-x="554" 
d="M69 321q0 49 -13 71t-42 22h-14l192 75l1 -72q24 28 66 48t81 20q65 0 105 -39.5t40 -123.5v-216q0 -36 7.5 -59t18.5 -34t23 -13h-222q21 5 33 30t12 72v188q0 98 -68 98q-37 0 -65 -29t-28 -73v-184q0 -47 13.5 -73.5t33.5 -28.5h-225q14 2 25 13t18.5 32.5t7.5 57.5
v218zM294 666h165l-213 -160z" />
    <glyph glyph-name="Ncommaaccent" unicode="&#x145;" horiz-adv-x="723" 
d="M94 548q0 30 -14.5 53t-37 41t-39.5 24h212l314 -393v283q0 36 -7.5 58t-17.5 33.5t-30 18.5h217q-23 -4 -37.5 -33t-14.5 -77v-556h-104q-36 90 -107 176l-223 272v-339q0 -37 9 -60.5t23.5 -35t27.5 -13.5h-222q13 2 25 14t19 35t7 60v439zM369 -119q-2 -1 -6 -1
q-22 0 -33.5 12.5t-11.5 28.5t12.5 30.5t34.5 14.5t37.5 -17t15.5 -46q0 -34 -26 -62.5t-69 -34.5q20 10 33 32t13 43z" />
    <glyph glyph-name="ncommaaccent" unicode="&#x146;" horiz-adv-x="554" 
d="M69 321q0 49 -13 71t-42 22h-14l192 75l1 -72q24 28 66 48t81 20q65 0 105 -39.5t40 -123.5v-216q0 -36 7.5 -59t18.5 -34t23 -13h-222q21 5 33 30t12 72v188q0 98 -68 98q-37 0 -65 -29t-28 -73v-184q0 -47 13.5 -73.5t33.5 -28.5h-225q14 2 25 13t18.5 32.5t7.5 57.5
v218zM282 -119q-2 -1 -6 -1q-22 0 -33.5 12.5t-11.5 28.5t12.5 30.5t34.5 14.5t37.5 -17t15.5 -46q0 -34 -26 -62.5t-69 -34.5q20 10 33 32t13 43z" />
    <glyph glyph-name="Ncaron" unicode="&#x147;" horiz-adv-x="723" 
d="M94 548q0 30 -14.5 53t-37 41t-39.5 24h212l314 -393v283q0 36 -7.5 58t-17.5 33.5t-30 18.5h217q-23 -4 -37.5 -33t-14.5 -77v-556h-104q-36 90 -107 176l-223 272v-339q0 -37 9 -60.5t23.5 -35t27.5 -13.5h-222q13 2 25 14t19 35t7 60v439zM218 886l149 -67l146 67
l-146 -185z" />
    <glyph glyph-name="ncaron" unicode="&#x148;" horiz-adv-x="554" 
d="M69 321q0 49 -13 71t-42 22h-14l192 75l1 -72q24 28 66 48t81 20q65 0 105 -39.5t40 -123.5v-216q0 -36 7.5 -59t18.5 -34t23 -13h-222q21 5 33 30t12 72v188q0 98 -68 98q-37 0 -65 -29t-28 -73v-184q0 -47 13.5 -73.5t33.5 -28.5h-225q14 2 25 13t18.5 32.5t7.5 57.5
v218zM138 698l145 -71l141 71l-141 -188z" />
    <glyph glyph-name="napostrophe" unicode="&#x149;" horiz-adv-x="554" 
d="M69 321q0 49 -13 71t-42 22h-14l192 75l1 -72q23 28 65.5 48t81.5 20q65 0 105 -39t40 -124v-216q0 -36 7.5 -59t18.5 -34t23 -13h-222q20 4 32.5 29.5t12.5 72.5v188q0 98 -68 98q-38 0 -65.5 -29.5t-27.5 -72.5v-184q0 -45 13 -72t34 -30h-225q15 3 25.5 13.5t18 31.5
t7.5 58v218zM57 602l-6 -1q-23 0 -34 12.5t-11 28.5q0 17 12 31t35 14q22 0 37.5 -17t15.5 -46q0 -35 -26 -63t-69 -34q20 9 33 31.5t13 43.5z" />
    <glyph glyph-name="Eng" unicode="&#x14a;" horiz-adv-x="723" 
d="M96 547q0 33 -21.5 63.5t-70.5 55.5h214l323 -394v283q0 46 -14.5 75.5t-40.5 35.5h217q-51 -14 -51 -111v-497q0 -93 -65 -152t-170 -59q49 23 74 62t25 84q0 80 -82 182l-226 274v-340q0 -46 15 -74.5t43 -34.5h-220q26 7 38 37.5t12 72.5v437z" />
    <glyph glyph-name="eng" unicode="&#x14b;" horiz-adv-x="554" 
d="M71 320q0 94 -54 94h-16l194 75l1 -73q30 32 72.5 50.5t78.5 18.5q65 0 106 -40t41 -124v-336q0 -87 -42 -131.5t-120 -44.5q-34 0 -65.5 15.5t-45.5 35.5q22 -8 45 -8q53 0 76 33t23 99v306q0 98 -70 98q-39 0 -67.5 -29.5t-28.5 -72.5v-184q0 -45 13 -72t34 -30h-226
q15 2 26 13t18 32.5t7 58.5v216z" />
    <glyph glyph-name="Omacron" unicode="&#x14c;" horiz-adv-x="752" 
d="M366 -15q-145 0 -235.5 94.5t-90.5 243.5q0 99 44.5 181.5t125.5 129.5t179 47q144 0 233.5 -94.5t89.5 -243.5q0 -152 -97 -255t-249 -103zM389 88q79 0 128.5 62.5t49.5 165.5q0 118 -55 191t-148 73q-79 0 -128.5 -60.5t-49.5 -165.5q0 -121 54 -193.5t149 -72.5z
M213 816h327v-60h-327v60z" />
    <glyph glyph-name="omacron" unicode="&#x14d;" horiz-adv-x="562" 
d="M275 -15q-107 0 -173 66t-66 175q0 110 70 184.5t178 74.5q107 0 174.5 -65.5t67.5 -174.5q0 -115 -70 -187.5t-181 -72.5zM289 75q46 0 75.5 42.5t29.5 107.5q0 72 -35 121t-88 49q-47 0 -76 -40.5t-29 -105.5q0 -74 35 -124t88 -50zM121 633h327v-60h-327v60z" />
    <glyph glyph-name="Obreve" unicode="&#x14e;" horiz-adv-x="752" 
d="M366 -15q-145 0 -235.5 94.5t-90.5 243.5q0 99 44.5 181.5t125.5 129.5t179 47q144 0 233.5 -94.5t89.5 -243.5q0 -152 -97 -255t-249 -103zM389 88q79 0 128.5 62.5t49.5 165.5q0 118 -55 191t-148 73q-79 0 -128.5 -60.5t-49.5 -165.5q0 -121 54 -193.5t149 -72.5z
M254 879q19 -37 52 -55.5t70 -18.5t70 19t53 55q0 -72 -35.5 -115.5t-88.5 -43.5q-51 0 -86 44t-35 115z" />
    <glyph glyph-name="obreve" unicode="&#x14f;" horiz-adv-x="562" 
d="M275 -15q-107 0 -173 66t-66 175q0 110 70 184.5t178 74.5q107 0 174.5 -65.5t67.5 -174.5q0 -115 -70 -187.5t-181 -72.5zM289 75q46 0 75.5 42.5t29.5 107.5q0 72 -35 121t-88 49q-47 0 -76 -40.5t-29 -105.5q0 -74 35 -124t88 -50zM161 696q19 -37 52 -55.5t70 -18.5
t70 19t53 55q0 -72 -35.5 -115.5t-88.5 -43.5q-51 0 -86 44t-35 115z" />
    <glyph glyph-name="Ohungarumlaut" unicode="&#x150;" horiz-adv-x="752" 
d="M366 -15q-145 0 -235.5 94.5t-90.5 243.5q0 99 44.5 181.5t125.5 129.5t179 47q144 0 233.5 -94.5t89.5 -243.5q0 -152 -97 -255t-249 -103zM389 88q79 0 128.5 62.5t49.5 165.5q0 118 -55 191t-148 73q-79 0 -128.5 -60.5t-49.5 -165.5q0 -121 54 -193.5t149 -72.5z
M504 865h151l-205 -160zM310 865h152l-205 -160z" />
    <glyph glyph-name="ohungarumlaut" unicode="&#x151;" horiz-adv-x="562" 
d="M275 -15q-107 0 -173 66t-66 175q0 110 70 184.5t178 74.5q107 0 174.5 -65.5t67.5 -174.5q0 -115 -70 -187.5t-181 -72.5zM289 75q46 0 75.5 42.5t29.5 107.5q0 72 -35 121t-88 49q-47 0 -76 -40.5t-29 -105.5q0 -74 35 -124t88 -50zM381 666h151l-205 -160zM187 666
h152l-205 -160z" />
    <glyph glyph-name="OE" unicode="&#x152;" horiz-adv-x="977" 
d="M800 92q60 0 96 27t59 84l-33 -203h-447q-50 -15 -109 -15q-95 0 -169.5 44t-115.5 122t-41 173q0 99 45 181.5t125 129.5t179 47q57 0 107 -16h414v-190q-8 46 -39 72.5t-80 26.5h-129v-193h112q62 0 79 50v-192q-4 23 -24 37t-53 14h-114v-199h138zM522 491
q-18 39 -62.5 64.5t-95.5 25.5q-79 0 -128 -61t-49 -166q0 -123 55.5 -195t146.5 -72q46 0 83.5 36t49.5 86v282z" />
    <glyph glyph-name="oe" unicode="&#x153;" horiz-adv-x="850" 
d="M518 218q13 -66 52.5 -101.5t98.5 -35.5q42 0 82.5 17.5t68.5 51.5q-32 -165 -204 -165q-100 0 -163 72q-69 -72 -178 -72q-107 0 -173 66.5t-66 174.5q0 110 70 184.5t178 74.5q111 0 179 -70q63 70 155 70t143 -69.5t52 -197.5h-295zM692 290q0 49 -20.5 81.5
t-57.5 32.5q-38 0 -64.5 -32.5t-31.5 -81.5h174zM289 75q46 0 75.5 42.5t29.5 107.5q0 72 -35 121t-88 49q-47 0 -76 -40.5t-29 -105.5q0 -73 35 -123.5t88 -50.5z" />
    <glyph glyph-name="Racute" unicode="&#x154;" horiz-adv-x="638" 
d="M92 550q0 96 -61 116h293q107 0 171.5 -56t64.5 -139q0 -70 -43.5 -122t-119.5 -62q26 -16 50 -58l89 -154q19 -34 43.5 -54t43.5 -21h-203l-111 205q-18 34 -32 45.5t-34 11.5h-14v-151q0 -38 8 -62t19.5 -35.5t23.5 -13.5h-241q13 2 25.5 13.5t20 36t7.5 61.5v439z
M298 352q56 0 87.5 31t31.5 84q0 47 -32.5 77.5t-87.5 30.5h-69v-223h70zM315 857h165l-213 -160z" />
    <glyph glyph-name="racute" unicode="&#x155;" horiz-adv-x="400" 
d="M68 330q0 89 -54 88h-12l185 71l2 -104q19 44 54.5 72t74.5 28q28 0 52 -14v-161q-11 22 -34 38t-49 16q-42 0 -67.5 -43t-25.5 -114v-101q0 -49 15 -76t35 -30h-226q13 2 23.5 12.5t18.5 32.5t8 61v224zM172 666h165l-213 -160z" />
    <glyph glyph-name="Rcommaaccent" unicode="&#x156;" horiz-adv-x="638" 
d="M92 550q0 96 -61 116h293q107 0 171.5 -56t64.5 -139q0 -70 -43.5 -122t-119.5 -62q26 -16 50 -58l89 -154q19 -34 43.5 -54t43.5 -21h-203l-111 205q-18 34 -32 45.5t-34 11.5h-14v-151q0 -38 8 -62t19.5 -35.5t23.5 -13.5h-241q13 2 25.5 13.5t20 36t7.5 61.5v439z
M298 352q56 0 87.5 31t31.5 84q0 47 -32.5 77.5t-87.5 30.5h-69v-223h70zM328 -119q-2 -1 -6 -1q-22 0 -33.5 12.5t-11.5 28.5t12.5 30.5t34.5 14.5t37.5 -17t15.5 -46q0 -34 -26 -62.5t-69 -34.5q20 10 33 32t13 43z" />
    <glyph glyph-name="rcommaaccent" unicode="&#x157;" horiz-adv-x="400" 
d="M68 330q0 89 -54 88h-12l185 71l2 -104q19 44 54.5 72t74.5 28q28 0 52 -14v-161q-11 22 -34 38t-49 16q-42 0 -67.5 -43t-25.5 -114v-101q0 -49 15 -76t35 -30h-226q13 2 23.5 12.5t18.5 32.5t8 61v224zM179 -119q-2 -1 -6 -1q-22 0 -33.5 12.5t-11.5 28.5t12.5 30.5
t34.5 14.5t37.5 -17t15.5 -46q0 -34 -26 -62.5t-69 -34.5q20 10 33 32t13 43z" />
    <glyph glyph-name="Rcaron" unicode="&#x158;" horiz-adv-x="638" 
d="M92 550q0 96 -61 116h293q107 0 171.5 -56t64.5 -139q0 -70 -43.5 -122t-119.5 -62q26 -16 50 -58l89 -154q19 -34 43.5 -54t43.5 -21h-203l-111 205q-18 34 -32 45.5t-34 11.5h-14v-151q0 -38 8 -62t19.5 -35.5t23.5 -13.5h-241q13 2 25.5 13.5t20 36t7.5 61.5v439z
M298 352q56 0 87.5 31t31.5 84q0 47 -32.5 77.5t-87.5 30.5h-69v-223h70zM160 886l149 -67l146 67l-146 -185z" />
    <glyph glyph-name="rcaron" unicode="&#x159;" horiz-adv-x="400" 
d="M68 330q0 89 -54 88h-12l185 71l2 -104q19 44 54.5 72t74.5 28q28 0 52 -14v-161q-11 22 -34 38t-49 16q-42 0 -67.5 -43t-25.5 -114v-101q0 -49 15 -76t35 -30h-226q13 2 23.5 12.5t18.5 32.5t8 61v224zM61 698l145 -71l141 71l-141 -188z" />
    <glyph glyph-name="Sacute" unicode="&#x15a;" horiz-adv-x="540" 
d="M46 224q63 -140 201 -140q46 0 79 20t33 56q0 32 -26 58t-86 55q-119 54 -158.5 100t-39.5 108q0 90 65.5 144.5t173.5 54.5q48 0 92.5 -13t71.5 -32v-159q-26 46 -74 76.5t-99 30.5q-50 0 -74.5 -21t-24.5 -52q0 -28 22.5 -51.5t106.5 -61.5q110 -50 148.5 -98
t38.5 -114q0 -90 -67.5 -145t-185.5 -55q-115 0 -197 50v189zM256 857h165l-213 -160z" />
    <glyph glyph-name="sacute" unicode="&#x15b;" horiz-adv-x="404" 
d="M37 170q20 -41 59 -70t95 -29q27 0 47.5 10t20.5 33q0 18 -14.5 31.5t-53.5 32.5q-86 40 -117 74t-31 84q0 68 47 108.5t132 40.5q73 0 124 -27v-134q-21 35 -56 54.5t-71 19.5q-29 0 -44.5 -11.5t-15.5 -30.5t15 -33.5t85 -46.5q64 -29 91.5 -62t27.5 -81
q0 -69 -50.5 -108.5t-136.5 -39.5q-45 0 -88 11t-66 29v145zM182 666h165l-213 -160z" />
    <glyph glyph-name="Scircumflex" unicode="&#x15c;" horiz-adv-x="540" 
d="M46 224q63 -140 201 -140q46 0 79 20t33 56q0 32 -26 58t-86 55q-119 54 -158.5 100t-39.5 108q0 90 65.5 144.5t173.5 54.5q48 0 92.5 -13t71.5 -32v-159q-26 46 -74 76.5t-99 30.5q-50 0 -74.5 -21t-24.5 -52q0 -28 22.5 -51.5t106.5 -61.5q110 -50 148.5 -98
t38.5 -114q0 -90 -67.5 -145t-185.5 -55q-115 0 -197 50v189zM436 697l-160 66l-156 -66l156 187z" />
    <glyph glyph-name="scircumflex" unicode="&#x15d;" horiz-adv-x="404" 
d="M37 170q20 -41 59 -70t95 -29q27 0 47.5 10t20.5 33q0 18 -14.5 31.5t-53.5 32.5q-86 40 -117 74t-31 84q0 68 47 108.5t132 40.5q73 0 124 -27v-134q-21 35 -56 54.5t-71 19.5q-29 0 -44.5 -11.5t-15.5 -30.5t15 -33.5t85 -46.5q64 -29 91.5 -62t27.5 -81
q0 -69 -50.5 -108.5t-136.5 -39.5q-45 0 -88 11t-66 29v145zM201 697l144 -191l-144 73l-141 -73z" />
    <glyph glyph-name="Scedilla" unicode="&#x15e;" horiz-adv-x="540" 
d="M46 224q63 -140 201 -140q46 0 79 20t33 56q0 32 -26 58t-86 55q-119 54 -158.5 100t-39.5 108q0 90 64.5 144.5t174.5 54.5q48 0 92.5 -13t71.5 -32v-159q-26 46 -74 76.5t-99 30.5t-75 -21t-24 -52q0 -28 22.5 -51.5t106.5 -61.5q110 -50 148.5 -98t38.5 -114
q0 -79 -52 -131t-142 -65l-17 -26q41 -5 61 -25.5t20 -44.5q0 -29 -27 -52.5t-78 -23.5q-52 0 -88 24q10 -3 31 -3q37 0 57 15t20 33q0 17 -19.5 31t-60.5 15l33 53q-115 4 -188 50v189z" />
    <glyph glyph-name="scedilla" unicode="&#x15f;" horiz-adv-x="404" 
d="M37 170q20 -41 59.5 -70t94.5 -29q27 0 47.5 10t20.5 33q0 18 -14.5 31.5t-53.5 32.5q-85 40 -116.5 74t-31.5 84q0 68 46.5 108.5t132.5 40.5q75 0 124 -27v-134q-21 35 -56 54.5t-71 19.5q-29 0 -44.5 -11.5t-15.5 -30.5t15 -33.5t85 -46.5q64 -29 91.5 -62t27.5 -81
q0 -60 -38.5 -98t-105.5 -47l-16 -25q41 -5 61 -25.5t20 -44.5q0 -29 -27 -52.5t-78 -23.5q-52 0 -88 24q10 -3 31 -3q37 0 57 15t20 33q0 17 -19.5 31t-60.5 15l33 54q-83 4 -130 39v145z" />
    <glyph glyph-name="Scaron" unicode="&#x160;" horiz-adv-x="540" 
d="M46 224q63 -140 201 -140q46 0 79 20t33 56q0 32 -26 58t-86 55q-119 54 -158.5 100t-39.5 108q0 90 65.5 144.5t173.5 54.5q48 0 92.5 -13t71.5 -32v-159q-26 46 -74 76.5t-99 30.5q-50 0 -74.5 -21t-24.5 -52q0 -28 22.5 -51.5t106.5 -61.5q110 -50 148.5 -98
t38.5 -114q0 -90 -67.5 -145t-185.5 -55q-115 0 -197 50v189zM106 884l159 -66l156 66l-156 -187z" />
    <glyph glyph-name="scaron" unicode="&#x161;" horiz-adv-x="404" 
d="M37 170q20 -41 59 -70t95 -29q27 0 47.5 10t20.5 33q0 18 -14.5 31.5t-53.5 32.5q-86 40 -117 74t-31 84q0 68 47 108.5t132 40.5q73 0 124 -27v-134q-21 35 -56 54.5t-71 19.5q-29 0 -44.5 -11.5t-15.5 -30.5t15 -33.5t85 -46.5q64 -29 91.5 -62t27.5 -81
q0 -69 -50.5 -108.5t-136.5 -39.5q-45 0 -88 11t-66 29v145zM61 698l145 -71l141 71l-141 -188z" />
    <glyph glyph-name="Tcommaaccent" unicode="&#x162;" horiz-adv-x="648" 
d="M251 575h-121q-63 0 -90 -56l-16 -34l16 181h569l15 -181q-21 53 -49.5 71.5t-74.5 18.5h-103v-463q0 -51 15 -80.5t36 -31.5h-248q22 3 36.5 30.5t14.5 81.5v463zM323 -119q-2 -1 -6 -1q-22 0 -33.5 12.5t-11.5 28.5t12.5 30.5t34.5 14.5t37.5 -17t15.5 -46
q0 -34 -26 -62.5t-69 -34.5q20 10 33 32t13 43z" />
    <glyph glyph-name="tcommaaccent" unicode="&#x163;" horiz-adv-x="363" 
d="M70 384h-71l198 225v-143h129v-82h-129v-236q1 -67 55 -67q25 0 50.5 14.5t38.5 34.5q-20 -146 -147 -146q-59 0 -91.5 34.5t-32.5 88.5v277zM196 -119q-2 -1 -6 -1q-22 0 -33.5 12.5t-11.5 28.5t12.5 30.5t34.5 14.5t37.5 -17t15.5 -46q0 -34 -26 -62.5t-69 -34.5
q20 10 33 32t13 43z" />
    <glyph glyph-name="Tcaron" unicode="&#x164;" horiz-adv-x="648" 
d="M251 575h-121q-63 0 -90 -56l-16 -34l16 181h569l15 -181q-21 53 -49.5 71.5t-74.5 18.5h-103v-463q0 -51 15 -80.5t36 -31.5h-248q22 3 36.5 30.5t14.5 81.5v463zM178 886l149 -67l146 67l-146 -185z" />
    <glyph glyph-name="tcaron" unicode="&#x165;" horiz-adv-x="363" 
d="M70 384h-71l198 225v-143h129v-82h-129v-236q1 -67 55 -67q25 0 50.5 14.5t38.5 34.5q-20 -146 -147 -146q-59 0 -91.5 34.5t-32.5 88.5v277zM285 682h131l-155 -191z" />
    <glyph glyph-name="Tbar" unicode="&#x166;" horiz-adv-x="648" 
d="M251 291h-91v61h91v223h-121q-63 0 -90 -56l-16 -34l16 181h569l15 -181q-21 53 -49.5 71.5t-74.5 18.5h-103v-223h90v-61h-90v-164q0 -56 13 -89t37 -38h-245q49 10 49 127v164z" />
    <glyph glyph-name="tbar" unicode="&#x167;" horiz-adv-x="363" 
d="M72 219h-56v60h56v105h-64l192 218v-136h132v-82h-132v-105h102v-60h-102v-70q0 -68 56 -68q26 0 52 14.5t39 34.5q-22 -146 -149 -146q-60 0 -93 33.5t-33 90.5v111z" />
    <glyph glyph-name="Utilde" unicode="&#x168;" horiz-adv-x="698" 
d="M81 554q0 97 -52 112h247q-12 -2 -23.5 -13.5t-19.5 -35t-8 -60.5v-322q0 -84 34 -118t104 -34q73 0 102.5 38t29.5 114v318q0 99 -58 113h235q-25 -4 -40.5 -34.5t-15.5 -78.5v-314q0 -254 -261 -254q-144 0 -209 61t-65 183v325zM242 712q-24 25 -24 57q0 35 23.5 61
t62.5 26q20 0 41.5 -8t42 -18.5t39 -18.5t32.5 -8q47 0 47 68q22 -22 22 -54q0 -39 -25.5 -66t-63.5 -27q-30 0 -78 28q-46 28 -71 28q-46 0 -48 -68z" />
    <glyph glyph-name="utilde" unicode="&#x169;" 
d="M65 359q0 36 -9 57.5t-21.5 33t-34.5 16.5h193v-287q1 -97 67 -97q40 0 67 31t27 73v180q0 41 -12 67t-38 33h177v-320q0 -45 12 -68t42 -23h14l-191 -74l-1 73q-27 -32 -68 -50.5t-79 -18.5q-145 1 -145 166v208zM148 530q-24 25 -24 57q0 35 23.5 61t62.5 26
q20 0 41.5 -8t42 -18.5t39 -18.5t32.5 -8q47 0 47 68q22 -22 22 -54q0 -39 -25.5 -66t-63.5 -27q-30 0 -78 28q-46 28 -71 28q-46 0 -48 -68z" />
    <glyph glyph-name="Umacron" unicode="&#x16a;" horiz-adv-x="698" 
d="M81 554q0 97 -52 112h247q-12 -2 -23.5 -13.5t-19.5 -35t-8 -60.5v-322q0 -84 34 -118t104 -34q73 0 102.5 38t29.5 114v318q0 99 -58 113h235q-25 -4 -40.5 -34.5t-15.5 -78.5v-314q0 -254 -261 -254q-144 0 -209 61t-65 183v325zM201 816h327v-60h-327v60z" />
    <glyph glyph-name="umacron" unicode="&#x16b;" 
d="M65 359q0 36 -9 57.5t-21.5 33t-34.5 16.5h193v-287q1 -97 67 -97q40 0 67 31t27 73v180q0 41 -12 67t-38 33h177v-320q0 -45 12 -68t42 -23h14l-191 -74l-1 73q-27 -32 -68 -50.5t-79 -18.5q-145 1 -145 166v208zM110 633h327v-60h-327v60z" />
    <glyph glyph-name="Ubreve" unicode="&#x16c;" horiz-adv-x="698" 
d="M81 554q0 97 -52 112h247q-12 -2 -23.5 -13.5t-19.5 -35t-8 -60.5v-322q0 -84 34 -118t104 -34q73 0 102.5 38t29.5 114v318q0 99 -58 113h235q-25 -4 -40.5 -34.5t-15.5 -78.5v-314q0 -254 -261 -254q-144 0 -209 61t-65 183v325zM236 879q19 -37 52 -55.5t70 -18.5
t70 19t53 55q0 -72 -35.5 -115.5t-88.5 -43.5q-51 0 -86 44t-35 115z" />
    <glyph glyph-name="ubreve" unicode="&#x16d;" 
d="M65 359q0 36 -9 57.5t-21.5 33t-34.5 16.5h193v-287q1 -97 67 -97q40 0 67 31t27 73v180q0 41 -12 67t-38 33h177v-320q0 -45 12 -68t42 -23h14l-191 -74l-1 73q-27 -32 -68 -50.5t-79 -18.5q-145 1 -145 166v208zM150 696q19 -37 52 -55.5t70 -18.5t70 19t53 55
q0 -72 -35.5 -115.5t-88.5 -43.5q-51 0 -86 44t-35 115z" />
    <glyph glyph-name="Uring" unicode="&#x16e;" horiz-adv-x="698" 
d="M81 554q0 97 -52 112h247q-12 -2 -23.5 -13.5t-19.5 -35t-8 -60.5v-322q0 -84 34 -118t104 -34q73 0 102.5 38t29.5 114v318q0 99 -58 113h235q-25 -4 -40.5 -34.5t-15.5 -78.5v-314q0 -254 -261 -254q-144 0 -209 61t-65 183v325zM354 699q-40 0 -69 26.5t-29 72.5
q0 45 29 71t69 26t69.5 -25.5t29.5 -71.5q0 -47 -29.5 -73t-69.5 -26zM354 743q21 0 36 14.5t15 40.5t-15 39.5t-36 13.5q-22 0 -37 -14.5t-15 -38.5q0 -26 15.5 -40.5t36.5 -14.5z" />
    <glyph glyph-name="uring" unicode="&#x16f;" 
d="M65 359q0 36 -9 57.5t-21.5 33t-34.5 16.5h193v-287q1 -97 67 -97q40 0 67 31t27 73v180q0 41 -12 67t-38 33h177v-320q0 -45 12 -68t42 -23h14l-191 -74l-1 73q-27 -32 -68 -50.5t-79 -18.5q-145 1 -145 166v208zM278 510q-40 0 -69 26.5t-29 72.5q0 45 29 71t69 26
t69.5 -25.5t29.5 -71.5q0 -47 -29.5 -73t-69.5 -26zM278 554q21 0 36 14.5t15 40.5t-15 39.5t-36 13.5q-22 0 -37 -14.5t-15 -38.5q0 -26 15.5 -40.5t36.5 -14.5z" />
    <glyph glyph-name="Uhungarumlaut" unicode="&#x170;" horiz-adv-x="698" 
d="M81 554q0 97 -52 112h247q-12 -2 -23.5 -13.5t-19.5 -35t-8 -60.5v-322q0 -84 34 -118t104 -34q73 0 102.5 38t29.5 114v318q0 99 -58 113h235q-25 -4 -40.5 -34.5t-15.5 -78.5v-314q0 -254 -261 -254q-144 0 -209 61t-65 183v325zM452 861h151l-205 -160zM258 861h152
l-205 -160z" />
    <glyph glyph-name="uhungarumlaut" unicode="&#x171;" 
d="M65 359q0 36 -9 57.5t-21.5 33t-34.5 16.5h193v-287q1 -97 67 -97q40 0 67 31t27 73v180q0 41 -12 67t-38 33h177v-320q0 -45 12 -68t42 -23h14l-191 -74l-1 73q-27 -32 -68 -50.5t-79 -18.5q-145 1 -145 166v208zM356 666h151l-205 -160zM162 666h152l-205 -160z" />
    <glyph glyph-name="Uogonek" unicode="&#x172;" horiz-adv-x="698" 
d="M83 541q0 108 -52 125h247q-23 -6 -36.5 -37.5t-13.5 -84.5v-304q0 -86 33.5 -121.5t105.5 -35.5q69 0 101 38t32 118v301q0 40 -7 64.5t-17.5 39t-32.5 22.5h234q-27 -6 -41 -39t-14 -87v-297q0 -209 -175 -248q-76 -14 -76 -68q0 -22 14.5 -36t41.5 -14t60 19
q-12 -38 -42.5 -58.5t-61.5 -20.5q-37 0 -64.5 23t-27.5 62q0 46 42 84q-127 4 -188.5 65t-61.5 182v308z" />
    <glyph glyph-name="uogonek" unicode="&#x173;" horiz-adv-x="557" 
d="M67 358q0 41 -16.5 70.5t-49.5 37.5h196v-286q0 -98 69 -98q39 0 67.5 30.5t28.5 74.5v178q0 38 -11 65t-38 36h177v-319q0 -47 13 -69t42 -22h14q-135 -67 -135 -135q2 -44 46 -44q29 0 60 18q-12 -38 -42.5 -58.5t-61.5 -20.5q-44 0 -67 25t-23 60q0 54 47 97l-14 60
q-28 -34 -69 -53.5t-86 -19.5q-145 0 -147 166v207z" />
    <glyph glyph-name="Wcircumflex" unicode="&#x174;" horiz-adv-x="1035" 
d="M5 666h269q-13 -2 -23 -16t-10 -38q0 -22 12 -61l109 -328l113 312q-35 113 -76 131h239q-16 -4 -27.5 -18t-11.5 -40q0 -21 12 -57l109 -327l109 329q10 28 10 56q0 45 -39 57h230q-26 -5 -51 -38t-43 -87l-178 -541h-109l-128 387l-134 -387h-107l-182 546
q-35 103 -93 120zM688 697l-160 66l-156 -66l156 187z" />
    <glyph glyph-name="wcircumflex" unicode="&#x175;" horiz-adv-x="803" 
d="M-1 466h234q-29 -6 -29 -40q0 -19 11 -47l74 -202l73 192l-6 17q-13 34 -29.5 55.5t-30.5 24.5h214q-15 -2 -24.5 -14t-9.5 -31q0 -16 10 -42l73 -201l66 189q11 29 11 49q0 23 -10 35t-27 15h206q-21 -5 -39.5 -27.5t-34.5 -62.5l-141 -376h-89l-96 256l-96 -256h-88
l-148 382q-28 71 -74 84zM412 697l144 -191l-144 73l-141 -73z" />
    <glyph glyph-name="Ycircumflex" unicode="&#x176;" horiz-adv-x="672" 
d="M263 275l-157 276q-57 99 -105 115h269q-14 -2 -22.5 -12.5t-8.5 -26.5q0 -25 26 -71l95 -165l85 147q36 63 36 90q0 17 -8.5 26.5t-19.5 11.5h217q-14 -3 -44 -35.5t-58 -81.5l-160 -269v-168q0 -38 7.5 -62t19 -36t23.5 -14h-247q13 2 24.5 13.5t19.5 35.5t8 63v163z
M515 697l-160 66l-156 -66l156 187z" />
    <glyph glyph-name="ycircumflex" unicode="&#x177;" 
d="M21 -98q23 -6 43 -5q91 1 157 121l-146 363q-15 38 -35 59t-42 26h243q-16 -4 -25 -14.5t-9 -30.5q0 -9 4 -23.5t85 -223.5l73 191q14 36 14 54q0 20 -11.5 32.5t-28.5 14.5h207q-38 -13 -71 -90l-139 -334q-39 -94 -87 -155.5t-92 -78.5zM287 697l144 -191l-144 73
l-141 -73z" />
    <glyph glyph-name="Ydieresis" unicode="&#x178;" horiz-adv-x="672" 
d="M263 275l-157 276q-57 99 -105 115h269q-14 -2 -22.5 -12.5t-8.5 -26.5q0 -25 26 -71l95 -165l85 147q36 63 36 90q0 17 -8.5 26.5t-19.5 11.5h217q-14 -3 -44 -35.5t-58 -81.5l-160 -269v-168q0 -38 7.5 -62t19 -36t23.5 -14h-247q13 2 24.5 13.5t19.5 35.5t8 63v163z
M381 790q0 26 17.5 43.5t47.5 17.5t47.5 -17.5t17.5 -43.5q0 -27 -18 -45t-47 -18q-30 0 -47.5 18t-17.5 45zM184 790q0 26 18.5 43.5t48.5 17.5q29 0 46.5 -17.5t17.5 -43.5q0 -27 -17.5 -45t-46.5 -18q-30 0 -48.5 18t-18.5 45z" />
    <glyph glyph-name="Zacute" unicode="&#x179;" horiz-adv-x="608" 
d="M347 575h-161q-43 0 -69 -8.5t-43 -26.5t-32 -66v192h517l-322 -574h186q65 0 100.5 28.5t58.5 85.5l-20 -206h-540zM315 857h165l-213 -160z" />
    <glyph glyph-name="zacute" unicode="&#x17a;" horiz-adv-x="474" 
d="M250 391h-108q-86 0 -105 -88v163h400l-226 -386h138q81 0 97 79v-159h-422zM222 666h165l-213 -160z" />
    <glyph glyph-name="Zdotaccent" unicode="&#x17b;" horiz-adv-x="608" 
d="M347 575h-161q-43 0 -69 -8.5t-43 -26.5t-32 -66v192h517l-322 -574h186q65 0 100.5 28.5t58.5 85.5l-20 -206h-540zM237 791q0 29 19.5 48t51.5 19t51.5 -19t19.5 -48t-19.5 -48.5t-51.5 -19.5t-51.5 19.5t-19.5 48.5z" />
    <glyph glyph-name="zdotaccent" unicode="&#x17c;" horiz-adv-x="474" 
d="M250 391h-108q-86 0 -105 -88v163h400l-226 -386h138q81 0 97 79v-159h-422zM176 613q0 26 17.5 44.5t49.5 18.5q30 0 48 -18.5t18 -44.5q0 -27 -18 -45.5t-48 -18.5q-31 0 -49 18.5t-18 45.5z" />
    <glyph glyph-name="Zcaron" unicode="&#x17d;" horiz-adv-x="608" 
d="M347 575h-161q-43 0 -69 -8.5t-43 -26.5t-32 -66v192h517l-322 -574h186q65 0 100.5 28.5t58.5 85.5l-20 -206h-540zM155 886l149 -67l146 67l-146 -185z" />
    <glyph glyph-name="zcaron" unicode="&#x17e;" horiz-adv-x="474" 
d="M250 391h-108q-86 0 -105 -88v163h400l-226 -386h138q81 0 97 79v-159h-422zM95 698l145 -71l141 71l-141 -188z" />
    <glyph glyph-name="longs" unicode="&#x17f;" horiz-adv-x="326" 
d="M92 384h-79v82h79v28q0 96 48 149.5t131 53.5q16 0 65 -7v-120q-10 18 -28 28.5t-37 10.5q-25 0 -37.5 -18.5t-12.5 -63.5v-409q0 -40 7.5 -65t19.5 -39t23 -14h-229q11 0 23 14t19.5 38t7.5 66v266z" />
    <glyph glyph-name="florin" unicode="&#x192;" horiz-adv-x="555" 
d="M188 322h-87l7 83h87q14 136 65 206.5t151 70.5q59 0 105 -21l-34 -103q-32 22 -73 23q-63 0 -71 -119l-5 -57h94l-6 -83h-95l-18 -186q-17 -155 -70.5 -223t-154.5 -68q-38 0 -92 21l29 108q3 -6 28 -17.5t40 -11.5q34 0 51.5 33.5t24.5 105.5z" />
    <glyph glyph-name="Ohorn" unicode="&#x1a0;" horiz-adv-x="785" 
d="M666 526q43 19 57 56q-22 5 -38 22t-16 43q0 27 18.5 46.5t53.5 19.5q28 0 48.5 -21t20.5 -54q0 -48 -32 -91.5t-89 -68.5q23 -65 23 -135q0 -152 -97 -255t-249 -103q-145 0 -235.5 94.5t-90.5 243.5q0 99 44.5 181.5t125.5 129.5t179 47q97 0 167.5 -42t109.5 -113z
M389 88q79 0 128.5 62.5t49.5 165.5q0 118 -55 191t-148 73q-79 0 -128.5 -60.5t-49.5 -165.5q0 -121 54 -193.5t149 -72.5z" />
    <glyph glyph-name="ohorn" unicode="&#x1a1;" horiz-adv-x="592" 
d="M487 385q33 20 44 49q-22 6 -38 22.5t-16 42.5q0 27 18 46.5t53 19.5q29 0 49 -21t20 -54q0 -48 -30 -89t-76 -65q15 -42 15 -91q0 -115 -70 -187.5t-181 -72.5q-107 0 -173 66t-66 175q0 110 70 184.5t178 74.5q134 0 203 -100zM289 75q46 0 75.5 42.5t29.5 107.5
q0 72 -35 121t-88 49q-47 0 -76 -40.5t-29 -105.5q0 -72 35 -123t88 -51z" />
    <glyph glyph-name="Uhorn" unicode="&#x1af;" horiz-adv-x="783" 
d="M81 554q0 32 -5.5 52.5t-14 35.5t-31.5 24h242q-47 -19 -47 -109v-322q0 -84 33.5 -118t104.5 -34q73 0 102.5 38t29.5 114v318q0 44 -16 75t-45 38h182v-153q38 4 66.5 23t39.5 46q-54 15 -54 64q0 29 18.5 48t52.5 19q28 0 48.5 -20.5t20.5 -54.5q0 -67 -56 -119
t-136 -59v-221q0 -254 -261 -254q-144 0 -209 61t-65 183v325z" />
    <glyph glyph-name="uhorn" unicode="&#x1b0;" horiz-adv-x="632" 
d="M65 361q0 91 -65 107h193v-289q0 -97 67 -97q40 0 67 31t27 73v182q0 40 -12.5 67t-36.5 33h176v-101q69 15 90 67q-53 16 -54 64q0 29 19 48t51 19q29 0 49.5 -20.5t20.5 -54.5q0 -64 -51.5 -114.5t-124.5 -61.5v-168q0 -45 12 -68t42 -23h14l-191 -74l-1 73
q-27 -32 -68 -50.5t-79 -18.5q-145 0 -145 166v210z" />
    <glyph glyph-name="Scommaaccent" unicode="&#x218;" horiz-adv-x="540" 
d="M46 224q63 -140 201 -140q46 0 79 20t33 56q0 32 -26 58t-86 55q-119 54 -158.5 100t-39.5 108q0 90 65.5 144.5t173.5 54.5q48 0 92.5 -13t71.5 -32v-159q-26 46 -74 76.5t-99 30.5q-50 0 -74.5 -21t-24.5 -52q0 -28 22.5 -51.5t106.5 -61.5q110 -50 148.5 -98
t38.5 -114q0 -90 -67.5 -145t-185.5 -55q-115 0 -197 50v189zM269 -119q-2 -1 -6 -1q-22 0 -33.5 12.5t-11.5 28.5t12.5 30.5t34.5 14.5t37.5 -17t15.5 -46q0 -34 -26 -62.5t-69 -34.5q20 10 33 32t13 43z" />
    <glyph glyph-name="scommaaccent" unicode="&#x219;" horiz-adv-x="404" 
d="M37 170q20 -41 59 -70t95 -29q27 0 47.5 10t20.5 33q0 18 -14.5 31.5t-53.5 32.5q-86 40 -117 74t-31 84q0 68 47 108.5t132 40.5q73 0 124 -27v-134q-21 35 -56 54.5t-71 19.5q-29 0 -44.5 -11.5t-15.5 -30.5t15 -33.5t85 -46.5q64 -29 91.5 -62t27.5 -81
q0 -69 -50.5 -108.5t-136.5 -39.5q-45 0 -88 11t-66 29v145zM211 -119q-2 -1 -6 -1q-22 0 -33.5 12.5t-11.5 28.5t12.5 30.5t34.5 14.5t37.5 -17t15.5 -46q0 -34 -26 -62.5t-69 -34.5q20 10 33 32t13 43z" />
    <glyph glyph-name="uni021A" unicode="&#x21a;" horiz-adv-x="648" 
d="M251 575h-121q-63 0 -90 -56l-16 -34l16 181h569l15 -181q-21 53 -49.5 71.5t-74.5 18.5h-103v-463q0 -51 15 -80.5t36 -31.5h-248q22 3 36.5 30.5t14.5 81.5v463zM331 -119q-2 -1 -6 -1q-22 0 -33.5 12.5t-11.5 28.5t12.5 30.5t34.5 14.5t37.5 -17t15.5 -46
q0 -34 -26 -62.5t-69 -34.5q20 10 33 32t13 43z" />
    <glyph glyph-name="uni021B" unicode="&#x21b;" horiz-adv-x="363" 
d="M70 384h-71l198 225v-143h129v-82h-129v-236q1 -67 55 -67q25 0 50.5 14.5t38.5 34.5q-20 -146 -147 -146q-59 0 -91.5 34.5t-32.5 88.5v277zM186 -119q-2 -1 -6 -1q-22 0 -33.5 12.5t-11.5 28.5t12.5 30.5t34.5 14.5t37.5 -17t15.5 -46q0 -34 -26 -62.5t-69 -34.5
q20 10 33 32t13 43z" />
    <glyph glyph-name="circumflex" unicode="&#x2c6;" horiz-adv-x="486" 
d="M242 697l144 -191l-144 73l-141 -73z" />
    <glyph glyph-name="caron" unicode="&#x2c7;" horiz-adv-x="486" 
d="M88 698l145 -71l141 71l-141 -188z" />
    <glyph glyph-name="breve" unicode="&#x2d8;" horiz-adv-x="486" 
d="M121 696q19 -37 52 -55.5t70 -18.5t70 19t53 55q0 -72 -35.5 -115.5t-88.5 -43.5q-51 0 -86 44t-35 115z" />
    <glyph glyph-name="dotaccent" unicode="&#x2d9;" horiz-adv-x="486" 
d="M176 613q0 26 17.5 44.5t49.5 18.5q30 0 48 -18.5t18 -44.5q0 -27 -18 -45.5t-48 -18.5q-31 0 -49 18.5t-18 45.5z" />
    <glyph glyph-name="ring" unicode="&#x2da;" horiz-adv-x="486" 
d="M230 510q-40 0 -69 26.5t-29 72.5q0 45 29 71t69 26t69.5 -25.5t29.5 -71.5q0 -47 -29.5 -73t-69.5 -26zM230 554q21 0 36 14.5t15 40.5t-15 39.5t-36 13.5q-22 0 -37 -14.5t-15 -38.5q0 -26 15.5 -40.5t36.5 -14.5z" />
    <glyph glyph-name="ogonek" unicode="&#x2db;" horiz-adv-x="486" 
d="M276 0q-29 -12 -44 -31t-15 -41t15 -36.5t41 -14.5q30 0 60 19q-12 -38 -41.5 -58.5t-62.5 -20.5q-37 0 -64.5 23t-27.5 62q0 28 17 54.5t44 43.5h78z" />
    <glyph glyph-name="tilde" unicode="&#x2dc;" horiz-adv-x="486" 
d="M113 530q-24 25 -24 57q0 35 23.5 61t62.5 26q20 0 41.5 -8t42 -18.5t39 -18.5t32.5 -8q47 0 47 68q22 -22 22 -54q0 -39 -25.5 -66t-63.5 -27q-30 0 -78 28q-46 28 -71 28q-46 0 -48 -68z" />
    <glyph glyph-name="hungarumlaut" unicode="&#x2dd;" horiz-adv-x="486" 
d="M303 666h151l-205 -160zM109 666h152l-205 -160z" />
    <glyph glyph-name="gravecomb" unicode="&#x300;" horiz-adv-x="0" 
d="M60 666l49 -160l-216 160h167z" />
    <glyph glyph-name="acutecomb" unicode="&#x301;" horiz-adv-x="0" 
d="M-57 666h165l-213 -160z" />
    <glyph glyph-name="uni0302" unicode="&#x302;" horiz-adv-x="0" 
d="M1 697l144 -191l-144 73l-141 -73z" />
    <glyph glyph-name="tildecomb" unicode="&#x303;" horiz-adv-x="0" 
d="M-129 530q-24 25 -24 57q0 35 23.5 61t62.5 26q20 0 41.5 -8t42 -18.5t39 -18.5t32.5 -8q47 0 47 68q22 -22 22 -54q0 -39 -25.5 -66t-63.5 -27q-30 0 -78 28q-46 28 -71 28q-46 0 -48 -68z" />
    <glyph glyph-name="uni0306" unicode="&#x306;" horiz-adv-x="0" 
d="M-121 696q19 -37 52 -55.5t70 -18.5t70 19t53 55q0 -72 -35.5 -115.5t-88.5 -43.5q-51 0 -86 44t-35 115z" />
    <glyph glyph-name="hookabovecomb" unicode="&#x309;" horiz-adv-x="0" 
d="M-80 699q39 16 80 16q40 0 66 -19t26 -53q0 -25 -12 -41t-26.5 -26t-26.5 -19t-12 -18q0 -12 16 -16q-9 -5 -23 -5q-18 0 -33 10t-15 30q0 22 28 43q27 20 27 36q0 24 -27 25q-20 0 -38.5 -14t-29.5 -31v82z" />
    <glyph glyph-name="uni031B" unicode="&#x31b;" horiz-adv-x="0" 
d="M-80 524q45 18 62 58q-21 5 -37.5 22t-16.5 43q0 27 19 46.5t53 19.5q28 0 48.5 -21t20.5 -54q0 -49 -33 -92.5t-90 -69.5z" />
    <glyph glyph-name="dotbelowcomb" unicode="&#x323;" horiz-adv-x="0" 
d="M-66 -128q0 26 17.5 44.5t49.5 18.5q30 0 48 -18.5t18 -44.5q0 -27 -18 -45.5t-48 -18.5q-31 0 -49 18.5t-18 45.5z" />
    <glyph glyph-name="uni037E" unicode="&#x37e;" horiz-adv-x="256" 
d="M49 370q0 36 23.5 60t63.5 24t64 -24t24 -60q0 -35 -24 -59t-64 -24t-63.5 24t-23.5 59zM134 -1q-7 -3 -17 -3q-35 0 -51.5 22t-16.5 49q0 36 24 60.5t61 24.5q45 0 73 -36t28 -94q0 -86 -57 -145.5t-150 -62.5q48 23 78.5 67.5t30.5 88.5q0 22 -3 29z" />
    <glyph glyph-name="tonos" unicode="&#x384;" horiz-adv-x="466" 
d="M187 678h142l-130 -182z" />
    <glyph glyph-name="dieresistonos" unicode="&#x385;" horiz-adv-x="504" 
d="M312 607q0 25 16.5 41t43.5 16q28 0 44 -16t16 -41t-16.5 -41.5t-43.5 -16.5t-43.5 16.5t-16.5 41.5zM70 607q0 25 17 41t45 16q27 0 43 -16t16 -41t-16 -41.5t-43 -16.5q-28 0 -45 16.5t-17 41.5zM218 747h136l-122 -173z" />
    <glyph glyph-name="Alphatonos" unicode="&#x386;" horiz-adv-x="747" 
d="M309 666h118l220 -541q42 -108 95 -125h-269q16 2 26.5 14t10.5 33q0 15 -36 111h-255q-31 -85 -31 -106q0 -24 12.5 -37t28.5 -15h-224q20 3 45.5 36t48.5 92zM440 245l-95 246l-93 -246h188zM92 667h142l-130 -182z" />
    <glyph glyph-name="anoteleia" unicode="&#x387;" horiz-adv-x="254" 
d="M40 237q0 36 24 60t63 24t63.5 -24t24.5 -60q0 -35 -24.5 -59.5t-63.5 -24.5t-63 24.5t-24 59.5z" />
    <glyph glyph-name="Epsilontonos" unicode="&#x388;" horiz-adv-x="604" 
d="M146 554q0 44 -16 74.5t-46 37.5h453v-178q-14 48 -44 67.5t-78 19.5h-126v-193h110q63 -1 80 34v-158q-2 13 -21.5 23t-56.5 10h-112v-199h136q63 0 95.5 20.5t60.5 73.5l-32 -186h-457q13 2 25 14.5t20.5 37.5t8.5 67v435zM-62 667h142l-130 -182z" />
    <glyph glyph-name="Etatonos" unicode="&#x389;" horiz-adv-x="797" 
d="M139 554q-1 97 -53 112h248q-23 -5 -37 -34.5t-14 -77.5v-172h287v172q0 37 -7 59t-16.5 34t-29.5 19h248q-21 -3 -36 -32t-15 -80v-442q0 -38 8 -62.5t19.5 -36t23.5 -13.5h-248q12 2 24.5 13.5t20.5 36t8 62.5v179h-287v-179q0 -49 14.5 -79t36.5 -33h-248
q13 2 25.5 13.5t20 36t7.5 62.5v442zM-62 667h142l-130 -182z" />
    <glyph glyph-name="Iotatonos" unicode="&#x38a;" horiz-adv-x="368" 
d="M140 558q0 91 -52 108h246q-13 -3 -24.5 -14t-19.5 -35t-8 -59v-455q0 -44 14 -71.5t37 -31.5h-245q23 3 37.5 30t14.5 73v455zM-62 667h142l-130 -182z" />
    <glyph glyph-name="Omicrontonos" unicode="&#x38c;" horiz-adv-x="752" 
d="M366 -15q-145 0 -235.5 94.5t-90.5 243.5q0 99 44.5 181.5t125.5 129.5t179 47q144 0 233.5 -94.5t89.5 -243.5q0 -152 -97 -255t-249 -103zM389 88q79 0 128.5 62.5t49.5 165.5q0 118 -55 191t-148 73q-79 0 -128.5 -60.5t-49.5 -165.5q0 -121 54 -193.5t149 -72.5z
M-25 667h142l-130 -182z" />
    <glyph glyph-name="Upsilontonos" unicode="&#x38e;" horiz-adv-x="750" 
d="M340 275l-157 276q-57 99 -105 115h269q-14 -2 -22.5 -12.5t-8.5 -26.5q0 -25 26 -71l95 -165l85 147q36 63 36 90q0 17 -8.5 26.5t-19.5 11.5h217q-14 -3 -44 -35.5t-58 -81.5l-160 -269v-168q0 -38 7.5 -62t19 -36t23.5 -14h-247q13 2 24.5 13.5t19.5 35.5t8 63v163z
M-62 667h142l-130 -182z" />
    <glyph glyph-name="Omegatonos" unicode="&#x38f;" horiz-adv-x="835" 
d="M22 173q25 -49 56.5 -65.5t118.5 -15.5q-54 48 -83 113t-29 137q0 93 43.5 172t121.5 123t178 44q145 0 233.5 -90.5t88.5 -233.5q0 -73 -29 -144t-86 -121h29q62 0 91 14.5t57 66.5l-13 -173h-365q30 8 73.5 55t71.5 112.5t28 138.5q0 124 -55 199t-149 75
q-79 0 -128.5 -62t-49.5 -174q0 -82 21.5 -145t50 -105.5t57 -66t44.5 -27.5h-363zM13 667h142l-130 -182z" />
    <glyph glyph-name="iotadieresistonos" unicode="&#x390;" horiz-adv-x="340" 
d="M79 322q0 92 -59 92h-13l199 75v-341q0 -67 48 -67q23 0 44 14.5t32 34.5q-11 -77 -48 -111.5t-88 -34.5q-55 0 -85 35.5t-30 91.5v211zM206 607q0 25 16.5 41t43.5 16q28 0 44 -16t16 -41t-16.5 -41.5t-43.5 -16.5t-43.5 16.5t-16.5 41.5zM-36 607q0 25 17 41t45 16
q27 0 43 -16t16 -41t-16 -41.5t-43 -16.5q-28 0 -45 16.5t-17 41.5zM112 747h136l-122 -173z" />
    <glyph glyph-name="Alpha" unicode="&#x391;" horiz-adv-x="747" 
d="M309 666h118l220 -541q42 -108 95 -125h-269q16 2 26.5 14t10.5 33q0 15 -36 111h-255q-31 -85 -31 -106q0 -24 12.5 -37t28.5 -15h-224q20 3 45.5 36t48.5 92zM440 245l-95 246l-93 -246h188z" />
    <glyph glyph-name="Beta" unicode="&#x392;" horiz-adv-x="639" 
d="M90 551q0 46 -15.5 77t-43.5 38h340q86 0 137.5 -45.5t51.5 -115.5q0 -56 -34.5 -99t-84.5 -55q71 -12 111 -60t40 -112q0 -78 -56.5 -128.5t-146.5 -50.5h-350q23 3 37 34t14 83v434zM333 92q52 0 80.5 25t28.5 73t-28.5 78t-90.5 30h-91v-206h101zM321 388
q46 0 68 28.5t22 70.5q0 39 -25.5 63.5t-68.5 24.5h-85v-187h89z" />
    <glyph glyph-name="Gamma" unicode="&#x393;" horiz-adv-x="497" 
d="M83 556q0 94 -63 110h454v-176q-19 48 -49.5 66.5t-75.5 18.5h-123v-466q0 -46 12.5 -75t36.5 -34h-246q26 7 40 36.5t14 76.5v443z" />
    <glyph glyph-name="Delta" unicode="&#x394;" horiz-adv-x="750" 
d="M309 666h119l278 -666h-663zM505 94l-160 399l-154 -399h314z" />
    <glyph glyph-name="Epsilon" unicode="&#x395;" 
d="M90 554q0 44 -16 74.5t-46 37.5h453v-178q-14 48 -44 67.5t-78 19.5h-126v-193h110q63 -1 80 34v-158q-2 13 -21.5 23t-56.5 10h-112v-199h136q63 0 95.5 20.5t60.5 73.5l-32 -186h-457q13 2 25 14.5t20.5 37.5t8.5 67v435z" />
    <glyph glyph-name="Zeta" unicode="&#x396;" horiz-adv-x="608" 
d="M347 575h-161q-43 0 -69 -8.5t-43 -26.5t-32 -66v192h517l-322 -574h186q65 0 100.5 28.5t58.5 85.5l-20 -206h-540z" />
    <glyph glyph-name="Eta" unicode="&#x397;" horiz-adv-x="741" 
d="M83 554q-1 97 -53 112h248q-23 -5 -37 -34.5t-14 -77.5v-172h287v172q0 37 -7 59t-16.5 34t-29.5 19h248q-21 -3 -36 -32t-15 -80v-442q0 -38 8 -62.5t19.5 -36t23.5 -13.5h-248q12 2 24.5 13.5t20.5 36t8 62.5v179h-287v-179q0 -49 14.5 -79t36.5 -33h-248
q13 2 25.5 13.5t20 36t7.5 62.5v442z" />
    <glyph glyph-name="Theta" unicode="&#x398;" horiz-adv-x="762" 
d="M371 -15q-147 0 -239 95t-92 243q0 99 45.5 181.5t127 129.5t181.5 47q147 0 237.5 -95t90.5 -243q0 -152 -98 -255t-253 -103zM394 88q81 0 132 64.5t51 165.5q0 120 -56.5 191t-151.5 71q-80 0 -131.5 -62.5t-51.5 -165.5q0 -121 56 -192.5t152 -71.5zM264 413
q5 -14 26 -22.5t53 -8.5h78q31 0 52.5 8.5t26.5 22.5v-155q-16 33 -77 33h-82q-35 0 -56 -10.5t-21 -22.5v155z" />
    <glyph glyph-name="Iota" unicode="&#x399;" horiz-adv-x="314" 
d="M86 558q0 91 -52 108h246q-13 -3 -24.5 -14t-19.5 -35t-8 -59v-455q0 -44 14 -71.5t37 -31.5h-245q23 3 37.5 30t14.5 73v455z" />
    <glyph glyph-name="Kappa" unicode="&#x39a;" horiz-adv-x="707" 
d="M83 554q0 95 -53 112h248q-23 -4 -37 -34t-14 -78v-184q110 119 164.5 179t54.5 92q0 20 -25 25h262q-21 -3 -67 -34t-92 -82l-166 -181l196 -249q39 -50 74 -81.5t66 -38.5h-223l-244 312v-201q0 -49 14 -78t37 -33h-248q23 4 38 33t15 78v443z" />
    <glyph glyph-name="Lambda" unicode="&#x39b;" horiz-adv-x="729" 
d="M310 666h102l217 -544q42 -104 95 -122h-269q18 2 29.5 14t11.5 31q0 17 -17 55l-140 353l-135 -357q-12 -32 -12 -48q0 -20 12 -32.5t30 -15.5h-229q49 16 93 126z" />
    <glyph glyph-name="Mu" unicode="&#x39c;" horiz-adv-x="879" 
d="M95 559q0 91 -64 107h243l177 -403l175 403h219q-23 -4 -38.5 -33t-15.5 -77v-443q0 -38 8 -62t21 -37t25 -14h-238q20 3 34 31.5t14 81.5v380l-225 -509l-231 508v-373q0 -40 10 -66.5t24 -38.5t29 -14h-228q15 2 28.5 14t23 38.5t9.5 66.5v440z" />
    <glyph glyph-name="Nu" unicode="&#x39d;" horiz-adv-x="723" 
d="M94 548q0 30 -14.5 53t-37 41t-39.5 24h212l314 -393v283q0 36 -7.5 58t-17.5 33.5t-30 18.5h217q-23 -4 -37.5 -33t-14.5 -77v-556h-104q-36 90 -107 176l-223 272v-339q0 -37 9 -60.5t23.5 -35t27.5 -13.5h-222q13 2 25 14t19 35t7 60v439z" />
    <glyph glyph-name="Xi" unicode="&#x39e;" horiz-adv-x="554" 
d="M22 186q27 -56 60.5 -75t90.5 -19h208q58 0 91 19t60 75l-32 -186h-447zM64 666h425v-170q-14 44 -44 61.5t-76 17.5h-185q-47 0 -76.5 -17.5t-43.5 -61.5v170zM122 412q4 -13 24 -21.5t55 -8.5h151q27 0 47.5 7t31.5 24v-155q-11 33 -77 33h-155q-66 0 -77 -33v154z" />
    <glyph glyph-name="Omicron" unicode="&#x39f;" horiz-adv-x="752" 
d="M366 -15q-145 0 -235.5 94.5t-90.5 243.5q0 99 44.5 181.5t125.5 129.5t179 47q144 0 233.5 -94.5t89.5 -243.5q0 -152 -97 -255t-249 -103zM389 88q79 0 128.5 62.5t49.5 165.5q0 118 -55 191t-148 73q-79 0 -128.5 -60.5t-49.5 -165.5q0 -121 54 -193.5t149 -72.5z" />
    <glyph glyph-name="Pi" unicode="&#x3a0;" horiz-adv-x="721" 
d="M83 554q0 32 -5.5 53t-14.5 34.5t-32 24.5h657q-23 -6 -36.5 -35t-13.5 -77v-442q0 -47 13.5 -77.5t35.5 -34.5h-240q21 5 34 34t13 78v463h-267v-463q0 -103 45 -112h-239q23 6 36.5 35t13.5 77v442z" />
    <glyph glyph-name="Rho" unicode="&#x3a1;" horiz-adv-x="586" 
d="M93 551q0 47 -15.5 77.5t-43.5 37.5h307q98 0 158.5 -57.5t60.5 -145.5q0 -98 -67 -158t-176 -60q-48 0 -89 12v-146q0 -38 9 -62t22 -35.5t27 -13.5h-245q24 3 38 32.5t14 78.5v440zM228 349q35 -11 74 -11q54 0 83 33.5t29 87.5q0 51 -31 83.5t-88 32.5h-67v-226z" />
    <glyph glyph-name="Sigma" unicode="&#x3a3;" horiz-adv-x="575" 
d="M246 320l-228 346h497v-192q-13 43 -28.5 61t-40 29t-65.5 11h-147l150 -226l-187 -250h199q62 0 94 20.5t61 81.5l-25 -201h-519z" />
    <glyph glyph-name="Tau" unicode="&#x3a4;" horiz-adv-x="648" 
d="M251 575h-121q-63 0 -90 -56l-16 -34l16 181h569l15 -181q-21 53 -49.5 71.5t-74.5 18.5h-103v-463q0 -51 15 -80.5t36 -31.5h-248q22 3 36.5 30.5t14.5 81.5v463z" />
    <glyph glyph-name="Upsilon" unicode="&#x3a5;" horiz-adv-x="672" 
d="M263 275l-157 276q-57 99 -105 115h269q-14 -2 -22.5 -12.5t-8.5 -26.5q0 -25 26 -71l95 -165l85 147q36 63 36 90q0 17 -8.5 26.5t-19.5 11.5h217q-14 -3 -44 -35.5t-58 -81.5l-160 -269v-168q0 -38 7.5 -62t19 -36t23.5 -14h-247q13 2 24.5 13.5t19.5 35.5t8 63v163z
" />
    <glyph glyph-name="Phi" unicode="&#x3a6;" horiz-adv-x="777" 
d="M323 83q-130 12 -209.5 78.5t-79.5 165.5q0 100 79 170.5t210 86.5v10q0 69 -48 88h227q-18 -5 -32.5 -27.5t-15.5 -58.5v-11q130 -10 209.5 -76.5t79.5 -166.5q0 -103 -81 -173.5t-208 -84.5v-11q0 -37 12.5 -61t34.5 -28h-225q47 12 47 88v11zM454 175q63 8 104 51
t41 102q0 63 -38.5 106t-106.5 57v-316zM323 493q-66 -11 -104.5 -52.5t-38.5 -96.5q0 -68 39 -110.5t104 -56.5v316z" />
    <glyph glyph-name="Chi" unicode="&#x3a7;" horiz-adv-x="697" 
d="M5 0q21 3 57.5 37.5t74.5 91.5l133 191l-150 228q-71 103 -115 118h280q-9 -2 -19 -11t-10 -27q0 -13 7.5 -32t98.5 -157q97 135 106.5 156t9.5 36q0 29 -25 35h234q-17 -3 -49.5 -33t-67.5 -79l-148 -208l145 -220q37 -58 72 -91t50 -35h-284q13 2 22 11t9 28
q0 14 -8.5 34.5t-96.5 152.5q-91 -133 -101.5 -154.5t-10.5 -34.5q0 -32 27 -37h-241z" />
    <glyph glyph-name="Psi" unicode="&#x3a8;" horiz-adv-x="795" 
d="M332 212q-132 8 -200.5 69t-68.5 185v99q0 29 -5 47.5t-14 32t-29 21.5h224q-44 -18 -44 -99v-98q0 -152 137 -161v262q0 38 -13.5 64.5t-35.5 31.5h227q-46 -18 -46 -98v-260q137 9 137 163v96q0 39 -10 64t-34 35h224q-27 -10 -37.5 -37t-10.5 -64v-89
q0 -248 -269 -264v-116q0 -42 12.5 -67t34.5 -29h-226q46 14 47 96v116z" />
    <glyph glyph-name="Omega" unicode="&#x3a9;" horiz-adv-x="835" 
d="M22 173q25 -49 56.5 -65.5t118.5 -15.5q-54 48 -83 113t-29 137q0 93 43.5 172t121.5 123t178 44q145 0 233.5 -90.5t88.5 -233.5q0 -73 -29 -144t-86 -121h29q62 0 91 14.5t57 66.5l-13 -173h-365q30 8 73.5 55t71.5 112.5t28 138.5q0 124 -55 199t-149 75
q-79 0 -128.5 -62t-49.5 -174q0 -82 21.5 -145t50 -105.5t57 -66t44.5 -27.5h-363z" />
    <glyph glyph-name="Iotadieresis" unicode="&#x3aa;" horiz-adv-x="319" 
d="M86 558q0 91 -52 108h246q-13 -3 -24.5 -14t-19.5 -35t-8 -59v-455q0 -44 14 -71.5t37 -31.5h-245q23 3 37.5 30t14.5 73v455zM195 790q0 26 17.5 43.5t47.5 17.5t47.5 -17.5t17.5 -43.5q0 -27 -18 -45t-47 -18q-30 0 -47.5 18t-17.5 45zM-2 790q0 26 18.5 43.5
t48.5 17.5q29 0 46.5 -17.5t17.5 -43.5q0 -27 -17.5 -45t-46.5 -18q-30 0 -48.5 18t-18.5 45z" />
    <glyph glyph-name="Upsilondieresis" unicode="&#x3ab;" horiz-adv-x="672" 
d="M263 275l-157 276q-57 99 -105 115h269q-14 -2 -22.5 -12.5t-8.5 -26.5q0 -25 26 -71l95 -165l85 147q36 63 36 90q0 17 -8.5 26.5t-19.5 11.5h217q-14 -3 -44 -35.5t-58 -81.5l-160 -269v-168q0 -38 7.5 -62t19 -36t23.5 -14h-247q13 2 24.5 13.5t19.5 35.5t8 63v163z
M381 790q0 26 17.5 43.5t47.5 17.5t47.5 -17.5t17.5 -43.5q0 -27 -18 -45t-47 -18q-30 0 -47.5 18t-17.5 45zM184 790q0 26 18.5 43.5t48.5 17.5q29 0 46.5 -17.5t17.5 -43.5q0 -27 -17.5 -45t-46.5 -18q-30 0 -48.5 18t-18.5 45z" />
    <glyph glyph-name="alphatonos" unicode="&#x3ac;" horiz-adv-x="563" 
d="M449 -20q-31 9 -53 38t-32 63q-52 -95 -150 -95q-78 0 -129 60t-51 162q0 80 29 143.5t78 98.5t105 35q55 0 88 -37.5t43 -94.5q9 44 27.5 83.5t43.5 53.5l108 -77q-63 -18 -92 -136l-12 -50l6 -38q9 -63 36.5 -98.5t64.5 -35.5zM343 204q-12 112 -32 152.5t-54 40.5
q-38 0 -63.5 -46.5t-25.5 -114.5q0 -76 22.5 -117t63.5 -41q31 0 55.5 35t33.5 91zM250 678h142l-130 -182z" />
    <glyph glyph-name="epsilontonos" unicode="&#x3ad;" horiz-adv-x="435" 
d="M264 199q-99 0 -101 -62q0 -29 25 -45.5t67 -16.5q98 0 161 75q-14 -77 -65 -121t-133 -44q-83 0 -135 37.5t-52 97.5q0 47 30 79t84 45q-42 7 -70.5 37.5t-28.5 67.5q0 62 55.5 99t145.5 37q69 0 135 -22v-136q-22 37 -59.5 57.5t-76.5 20.5q-36 0 -58 -17t-22 -46
t24 -49.5t80 -20.5h47v-73h-53zM187 678h142l-130 -182z" />
    <glyph glyph-name="etatonos" unicode="&#x3ae;" horiz-adv-x="552" 
d="M70 316q0 97 -70 97l117 77q29 -10 47 -33.5t24 -49.5q28 36 69.5 57t82.5 21q65 0 105 -39t40 -124v-398q0 -44 13 -72t35 -33h-176v471q0 98 -68 98q-39 0 -65.5 -29.5t-26.5 -72.5v-286h-127v316zM232 678h142l-130 -182z" />
    <glyph glyph-name="iotatonos" unicode="&#x3af;" horiz-adv-x="340" 
d="M79 322q0 92 -59 92h-13l199 75v-341q0 -67 48 -67q23 0 44 14.5t32 34.5q-11 -77 -48 -111.5t-88 -34.5q-55 0 -85 35.5t-30 91.5v211zM102 678h142l-130 -182z" />
    <glyph glyph-name="upsilondieresistonos" unicode="&#x3b0;" 
d="M66 314q0 99 -70 99l117 77q80 -25 80 -146v-158q0 -111 85 -111q47 0 73.5 50.5t26.5 142.5q0 77 -20 128.5t-57 51.5q30 41 89 41q54 0 84.5 -55t30.5 -151q0 -140 -63.5 -219t-175.5 -79q-97 0 -148.5 49t-51.5 142v138zM328 607q0 25 16.5 41t43.5 16q28 0 44 -16
t16 -41t-16.5 -41.5t-43.5 -16.5t-43.5 16.5t-16.5 41.5zM86 607q0 25 17 41t45 16q27 0 43 -16t16 -41t-16 -41.5t-43 -16.5q-28 0 -45 16.5t-17 41.5zM234 747h136l-122 -173z" />
    <glyph glyph-name="alpha" unicode="&#x3b1;" horiz-adv-x="563" 
d="M449 -20q-31 9 -53 38t-32 63q-52 -95 -150 -95q-78 0 -129 60t-51 162q0 80 29 143.5t78 98.5t105 35q55 0 88 -37.5t43 -94.5q9 44 27.5 83.5t43.5 53.5l108 -77q-63 -18 -92 -136l-12 -50l6 -38q9 -63 36.5 -98.5t64.5 -35.5zM343 204q-12 112 -32 152.5t-54 40.5
q-38 0 -63.5 -46.5t-25.5 -114.5q0 -76 22.5 -117t63.5 -41q31 0 55.5 35t33.5 91z" />
    <glyph glyph-name="beta" unicode="&#x3b2;" horiz-adv-x="556" 
d="M70 456q0 113 62 175.5t179 62.5q84 0 138.5 -43.5t54.5 -112.5q0 -98 -105 -173q122 -57 122 -174q0 -88 -61 -146t-150 -58q-71 0 -114 36v-204h-169q17 3 30 26.5t13 66.5v544zM379 521q0 36 -22.5 63t-59.5 27q-47 0 -74 -38.5t-27 -101.5v-310q0 -40 26 -64t69 -24
t69 29t26 77q0 41 -26 75.5t-103 78.5l54 49q68 62 68 139z" />
    <glyph glyph-name="gamma" unicode="&#x3b3;" horiz-adv-x="537" 
d="M186 -181q0 96 26 187q-50 178 -109.5 314t-103.5 148h172q34 -64 65 -144.5t47 -149.5l63 127q27 54 27 95q0 17 -8 30.5t-22 13.5l-10 -1q9 21 31 35t49 14q35 0 57 -22t22 -55q0 -23 -6.5 -45.5t-109.5 -224.5q-27 -54 -39 -107.5t-12 -141.5v-73h-139z" />
    <glyph glyph-name="delta" unicode="&#x3b4;" horiz-adv-x="540" 
d="M386 501q5 17 5 31q0 28 -24 51.5t-65 23.5q-38 0 -63.5 -19.5t-25.5 -44.5t20 -47.5t114 -81.5q85 -54 120 -103t35 -111q0 -94 -65 -155t-171 -61q-104 0 -167.5 58.5t-63.5 149.5q0 64 41 118.5t113 83.5q-95 63 -95 143q0 72 59 116.5t164 44.5q81 0 132.5 -40.5
t55.5 -104.5zM251 351q-39 -19 -63 -56.5t-24 -83.5q0 -59 31 -97t78 -38q44 0 71 31.5t27 82.5q0 48 -26.5 81.5t-69.5 63.5z" />
    <glyph glyph-name="epsilon" unicode="&#x3b5;" horiz-adv-x="435" 
d="M264 199q-99 0 -101 -62q0 -29 25 -45.5t67 -16.5q98 0 161 75q-14 -77 -65 -121t-133 -44q-83 0 -135 37.5t-52 97.5q0 47 30 79t84 45q-42 7 -70.5 37.5t-28.5 67.5q0 62 55.5 99t145.5 37q69 0 135 -22v-136q-22 37 -59.5 57.5t-76.5 20.5q-36 0 -58 -17t-22 -46
t24 -49.5t80 -20.5h47v-73h-53z" />
    <glyph glyph-name="zeta" unicode="&#x3b6;" horiz-adv-x="450" 
d="M278 590h-126q-41 0 -68.5 -24t-33.5 -56v173h412l-221 -293q-35 -46 -58 -86t-23 -84q0 -46 22 -74t71 -48q102 -43 137 -76t35 -82q0 -45 -39 -82t-102 -45q41 33 41 78q0 33 -24 53.5t-104 52.5q-77 30 -119 75.5t-42 119.5q0 80 94 202z" />
    <glyph glyph-name="eta" unicode="&#x3b7;" horiz-adv-x="552" 
d="M70 316q0 97 -70 97l117 77q29 -10 47 -33.5t24 -49.5q28 36 69.5 57t82.5 21q65 0 105 -39t40 -124v-398q0 -44 13 -72t35 -33h-176v471q0 98 -68 98q-39 0 -65.5 -29.5t-26.5 -72.5v-286h-127v316z" />
    <glyph glyph-name="theta" unicode="&#x3b8;" horiz-adv-x="563" 
d="M275 -15q-108 0 -173.5 93.5t-65.5 248.5q0 165 69.5 266t178.5 101q111 0 176.5 -93.5t65.5 -246.5q0 -167 -69 -268t-182 -101zM394 378q-6 96 -39 161t-84 65q-46 0 -75.5 -61.5t-32.5 -164.5h231zM166 302q6 -99 40 -163t83 -64q44 0 73.5 60t33.5 167h-230z" />
    <glyph glyph-name="iota" unicode="&#x3b9;" horiz-adv-x="340" 
d="M79 322q0 92 -59 92h-13l199 75v-341q0 -67 48 -67q23 0 44 14.5t32 34.5q-11 -77 -48 -111.5t-88 -34.5q-55 0 -85 35.5t-30 91.5v211z" />
    <glyph glyph-name="kappa" unicode="&#x3ba;" horiz-adv-x="576" 
d="M70 324q1 90 -55 90h-12l194 75v-274l92 142q37 62 71 91.5t74 29.5q42 0 70 -27.5t36 -80.5q-21 18 -53 18q-29 0 -65 -27.5t-101 -109.5l128 -144q83 -93 135 -93q-42 -26 -115 -26q-51 0 -86.5 20t-78.5 72l-65 77l-42 -54v-103h-127v324z" />
    <glyph glyph-name="lambda" unicode="&#x3bb;" horiz-adv-x="540" 
d="M-1 0q34 15 72 97l157 343l-12 30q-25 62 -66 104t-93 43l127 81q42 -25 77 -93t72 -162l136 -348q33 -86 73 -95h-151l-104 282l-122 -282h-166z" />
    <glyph glyph-name="mu" unicode="&#x3bc;" horiz-adv-x="552" 
d="M69 468h128v-288q0 -98 74 -98q38 0 61 30t23 74v282h127v-322q0 -91 69 -91l-110 -74q-56 16 -76 77q-43 -73 -102 -73q-41 0 -66 32v-198h-185q25 5 41 33.5t16 70.5v545z" />
    <glyph glyph-name="nu" unicode="&#x3bd;" horiz-adv-x="543" 
d="M-2 468h173l115 -289l64 129q24 48 24 88q0 18 -8.5 31t-22.5 13l-9 -1q9 20 30.5 34.5t49.5 14.5q34 0 56.5 -21t22.5 -55t-16 -72t-114 -225q-33 -66 -50 -115h-86l-157 383q-13 30 -32.5 54.5t-39.5 30.5z" />
    <glyph glyph-name="xi" unicode="&#x3be;" horiz-adv-x="461" 
d="M312 296q-67 0 -108.5 -23t-41.5 -67q0 -35 21.5 -58.5t77.5 -47.5q92 -41 121 -61t42 -43.5t13 -55.5q0 -45 -39 -82t-102 -45q41 35 41 78q0 30 -22 50.5t-107 55.5q-91 37 -132 82.5t-41 108.5q0 61 39.5 100.5t108.5 54.5q-65 22 -100 65.5t-35 100.5q0 86 62 137.5
t159 51.5q79 0 132 -40t57 -105l-119 -52q5 15 5 30q0 32 -22 54t-63 22q-43 0 -69 -29t-26 -71q0 -62 42.5 -96t110.5 -34h67v-81h-72z" />
    <glyph glyph-name="omicron" unicode="&#x3bf;" horiz-adv-x="562" 
d="M275 -15q-107 0 -173 66t-66 175q0 110 70 184.5t178 74.5q107 0 174.5 -65.5t67.5 -174.5q0 -115 -70 -187.5t-181 -72.5zM289 75q46 0 75.5 42.5t29.5 107.5q0 72 -35 121t-88 49q-47 0 -76 -40.5t-29 -105.5q0 -74 35 -124t88 -50z" />
    <glyph glyph-name="pi" unicode="&#x3c0;" horiz-adv-x="645" 
d="M41 58q30 2 59.5 31.5t47 79t17.5 108.5v111q-7 1 -16 1q-100 0 -127 -93q-12 24 -12 54q0 56 37 90t100 34q66 0 197.5 -6t190.5 -6q61 0 91 15v-91q-28 -8 -88 -8q-24 0 -48 1v-231q0 -67 51 -67q21 0 41 12.5t31 30.5q-18 -140 -130 -140q-58 0 -89 35.5t-31 91.5v271
l-112 4v-159q0 -102 -21.5 -161.5t-74.5 -85.5z" />
    <glyph glyph-name="rho" unicode="&#x3c1;" horiz-adv-x="543" 
d="M65 239q0 89 29.5 141.5t81.5 78.5t114 26q100 0 159 -63.5t59 -171.5q0 -117 -64 -189.5t-160 -72.5q-62 0 -91 27v-196h-172q21 4 32.5 32t11.5 75v313zM192 150q0 -75 75 -75q50 0 78 42.5t28 111.5q0 79 -27 122.5t-66 43.5t-63.5 -36t-24.5 -107v-102z" />
    <glyph glyph-name="sigma1" unicode="&#x3c2;" horiz-adv-x="457" 
d="M308 281q7 17 7 37q0 35 -18 55.5t-47 20.5q-43 0 -68.5 -40t-25.5 -105q0 -56 20.5 -91.5t76.5 -59.5q91 -41 118.5 -61t40.5 -43.5t13 -53.5q0 -44 -38.5 -81.5t-102.5 -46.5q41 33 41 78q0 32 -21.5 52t-107.5 54q-162 65 -162 219q0 119 67.5 194.5t168.5 75.5
q66 0 111 -42t49 -113z" />
    <glyph glyph-name="sigma" unicode="&#x3c3;" horiz-adv-x="577" 
d="M443 378q64 -68 64 -156q0 -100 -68 -168.5t-172 -68.5q-106 0 -168.5 65.5t-62.5 162.5q0 114 68.5 186t179.5 72q41 0 92.5 -4.5t99.5 -4.5q58 0 88 15v-91q-29 -8 -91 -8h-30zM288 386q-56 0 -89 -41.5t-33 -109.5q0 -70 29 -115t80 -45q45 0 73 41t28 107
q0 85 -32 160z" />
    <glyph glyph-name="tau" unicode="&#x3c4;" horiz-adv-x="462" 
d="M155 385q-10 1 -21 1q-43 0 -72 -24t-40 -66q-12 24 -12 54q0 54 34 87.5t92 33.5q56 0 114.5 -4.5t108.5 -4.5q51 0 84 15v-91q-30 -8 -89 -8q-18 -1 -72 3v-233q0 -65 55 -67q25 0 50.5 14.5t38.5 34.5q-9 -72 -47 -109t-99 -37q-60 0 -92.5 34.5t-32.5 88.5v278z" />
    <glyph glyph-name="upsilon" unicode="&#x3c5;" 
d="M66 314q0 99 -70 99l117 77q80 -25 80 -146v-158q0 -111 85 -111q47 0 73.5 50.5t26.5 142.5q0 77 -20 128.5t-57 51.5q30 41 89 41q54 0 84.5 -55t30.5 -151q0 -140 -63.5 -219t-175.5 -79q-97 0 -148.5 49t-51.5 142v138z" />
    <glyph glyph-name="phi" unicode="&#x3c6;" horiz-adv-x="722" 
d="M294 -16q-131 16 -194.5 89t-63.5 194q0 100 41 159t104 59q27 0 50 -12t31 -29q-45 -4 -72.5 -53.5t-27.5 -119.5q0 -173 132 -200v194q0 104 53.5 162t149.5 58q87 0 137.5 -57t50.5 -150q0 -127 -70.5 -204t-196.5 -90v-70q0 -40 11.5 -64.5t31.5 -30.5h-167v165z
M418 70q70 16 106 67t36 127q0 68 -21.5 99.5t-51.5 31.5q-69 0 -69 -136v-189z" />
    <glyph glyph-name="chi" unicode="&#x3c7;" horiz-adv-x="522" 
d="M-21 -181q39 11 88 92l129 226l-111 234q-42 88 -81 97h164l113 -242l49 88q28 50 28 86q0 18 -8.5 29t-21.5 11q-6 0 -10 -1q9 21 31 35t49 14q32 0 55.5 -20.5t23.5 -54.5q0 -28 -15.5 -62.5t-128.5 -214.5l111 -221q45 -88 81 -96h-172l-103 219l-120 -219h-151z" />
    <glyph glyph-name="psi" unicode="&#x3c8;" horiz-adv-x="709" 
d="M292 -17q-112 11 -174 72.5t-62 165.5v93q0 99 -65 99l115 77q74 -28 74 -146v-116q0 -63 30.5 -101.5t81.5 -50.5v488q0 41 -9.5 66t-34.5 36h168v-591q55 15 90.5 65t35.5 144q0 73 -19.5 118.5t-48.5 45.5q31 40 80 40q50 0 81.5 -49t31.5 -139q0 -134 -66 -217
t-185 -98v-61q0 -46 13 -73t34 -32h-171v164z" />
    <glyph glyph-name="omega" unicode="&#x3c9;" horiz-adv-x="739" 
d="M307 291h124v-117q0 -99 64 -99q81 0 81 193q0 80 -27 128t-69 48q9 17 35.5 29t50.5 12q65 0 100 -54.5t35 -151.5q0 -139 -55.5 -216.5t-147.5 -77.5q-90 0 -133 77q-46 -77 -132 -77q-93 0 -144.5 72.5t-51.5 203.5q0 102 40.5 163t104.5 61q25 0 48.5 -12t32.5 -29
q-45 0 -73 -50.5t-28 -125.5q0 -101 25 -147t60 -46q60 0 60 97v119z" />
    <glyph glyph-name="iotadieresis" unicode="&#x3ca;" horiz-adv-x="340" 
d="M79 322q0 92 -59 92h-13l199 75v-341q0 -67 48 -67q23 0 44 14.5t32 34.5q-11 -77 -48 -111.5t-88 -34.5q-55 0 -85 35.5t-30 91.5v211zM179 612q0 26 17.5 43.5t47.5 17.5t47.5 -17.5t17.5 -43.5q0 -27 -18 -45t-47 -18q-30 0 -47.5 18t-17.5 45zM-18 612
q0 26 18.5 43.5t48.5 17.5q29 0 46.5 -17.5t17.5 -43.5q0 -27 -17.5 -45t-46.5 -18q-30 0 -48.5 18t-18.5 45z" />
    <glyph glyph-name="upsilondieresis" unicode="&#x3cb;" 
d="M66 314q0 99 -70 99l117 77q80 -25 80 -146v-158q0 -111 85 -111q47 0 73.5 50.5t26.5 142.5q0 77 -20 128.5t-57 51.5q30 41 89 41q54 0 84.5 -55t30.5 -151q0 -140 -63.5 -219t-175.5 -79q-97 0 -148.5 49t-51.5 142v138zM305 612q0 26 17.5 43.5t47.5 17.5t47.5 -17.5
t17.5 -43.5q0 -27 -18 -45t-47 -18q-30 0 -47.5 18t-17.5 45zM108 612q0 26 18.5 43.5t48.5 17.5q29 0 46.5 -17.5t17.5 -43.5q0 -27 -17.5 -45t-46.5 -18q-30 0 -48.5 18t-18.5 45z" />
    <glyph glyph-name="omicrontonos" unicode="&#x3cc;" horiz-adv-x="562" 
d="M275 -15q-107 0 -173 66t-66 175q0 110 70 184.5t178 74.5q107 0 174.5 -65.5t67.5 -174.5q0 -115 -70 -187.5t-181 -72.5zM289 75q46 0 75.5 42.5t29.5 107.5q0 72 -35 121t-88 49q-47 0 -76 -40.5t-29 -105.5q0 -74 35 -124t88 -50zM244 678h142l-130 -182z" />
    <glyph glyph-name="upsilontonos" unicode="&#x3cd;" 
d="M66 314q0 99 -70 99l117 77q80 -25 80 -146v-158q0 -111 85 -111q47 0 73.5 50.5t26.5 142.5q0 77 -20 128.5t-57 51.5q30 41 89 41q54 0 84.5 -55t30.5 -151q0 -140 -63.5 -219t-175.5 -79q-97 0 -148.5 49t-51.5 142v138zM227 678h142l-130 -182z" />
    <glyph glyph-name="omegatonos" unicode="&#x3ce;" horiz-adv-x="739" 
d="M307 291h124v-117q0 -99 64 -99q81 0 81 193q0 80 -27 128t-69 48q9 17 35.5 29t50.5 12q65 0 100 -54.5t35 -151.5q0 -139 -55.5 -216.5t-147.5 -77.5q-90 0 -133 77q-46 -77 -132 -77q-93 0 -144.5 72.5t-51.5 203.5q0 102 40.5 163t104.5 61q25 0 48.5 -12t32.5 -29
q-45 0 -73 -50.5t-28 -125.5q0 -101 25 -147t60 -46q60 0 60 97v119zM340 678h142l-130 -182z" />
    <glyph glyph-name="uni0400" unicode="&#x400;" horiz-adv-x="550" 
d="M90 554q0 44 -16 74.5t-46 37.5h453v-178q-14 48 -44 67.5t-78 19.5h-126v-193h110q63 -1 80 34v-158q-2 13 -21.5 23t-56.5 10h-112v-199h136q63 0 95.5 20.5t60.5 73.5l-32 -186h-457q13 2 25 14.5t20.5 37.5t8.5 67v435zM311 857l49 -160l-216 160h167z" />
    <glyph glyph-name="afii10023" unicode="&#x401;" horiz-adv-x="550" 
d="M90 554q0 44 -16 74.5t-46 37.5h453v-178q-14 48 -44 67.5t-78 19.5h-126v-193h110q63 -1 80 34v-158q-2 13 -21.5 23t-56.5 10h-112v-199h136q63 0 95.5 20.5t60.5 73.5l-32 -186h-457q13 2 25 14.5t20.5 37.5t8.5 67v435zM315 790q0 26 17.5 43.5t47.5 17.5t47.5 -17.5
t17.5 -43.5q0 -27 -18 -45t-47 -18q-30 0 -47.5 18t-17.5 45zM118 790q0 26 18.5 43.5t48.5 17.5q29 0 46.5 -17.5t17.5 -43.5q0 -27 -17.5 -45t-46.5 -18q-30 0 -48.5 18t-18.5 45z" />
    <glyph glyph-name="afii10051" unicode="&#x402;" horiz-adv-x="812" 
d="M252 575h-122q-38 0 -62 -19.5t-44 -70.5l16 181h584l15 -181q-21 53 -49.5 71.5t-74.5 18.5h-119v-178q62 29 149 29q108 0 169.5 -62t61.5 -164q0 -106 -68 -170.5t-173 -64.5q92 73 92 214q0 68 -35.5 110.5t-92.5 42.5t-103 -22v-198q0 -46 12.5 -76.5t36.5 -35.5
h-242q24 5 36.5 35.5t12.5 76.5v463z" />
    <glyph glyph-name="afii10052" unicode="&#x403;" horiz-adv-x="497" 
d="M83 556q0 94 -63 110h454v-176q-19 48 -49.5 66.5t-75.5 18.5h-123v-466q0 -46 12.5 -75t36.5 -34h-246q26 7 40 36.5t14 76.5v443zM256 856h165l-213 -159z" />
    <glyph glyph-name="afii10053" unicode="&#x404;" horiz-adv-x="639" 
d="M383 382q60 0 80 32v-157q-3 14 -24 24t-54 10h-193q8 -84 65 -142.5t139 -58.5q54 0 108 27.5t92 75.5v-115q-35 -41 -93.5 -67t-124.5 -26q-154 0 -245.5 94t-91.5 240q0 100 45 183.5t127.5 131t190.5 47.5q107 0 179 -39v-192q-23 59 -71 95t-119 36
q-79 0 -134.5 -56t-67.5 -143h192z" />
    <glyph glyph-name="afii10054" unicode="&#x405;" horiz-adv-x="540" 
d="M46 224q63 -140 201 -140q46 0 79 20t33 56q0 32 -26 58t-86 55q-119 54 -158.5 100t-39.5 108q0 90 65.5 144.5t173.5 54.5q48 0 92.5 -13t71.5 -32v-159q-26 46 -74 76.5t-99 30.5q-50 0 -74.5 -21t-24.5 -52q0 -28 22.5 -51.5t106.5 -61.5q110 -50 148.5 -98
t38.5 -114q0 -90 -67.5 -145t-185.5 -55q-115 0 -197 50v189z" />
    <glyph glyph-name="afii10055" unicode="&#x406;" horiz-adv-x="314" 
d="M86 558q0 91 -52 108h246q-13 -3 -24.5 -14t-19.5 -35t-8 -59v-455q0 -44 14 -71.5t37 -31.5h-245q23 3 37.5 30t14.5 73v455z" />
    <glyph glyph-name="afii10056" unicode="&#x407;" horiz-adv-x="319" 
d="M86 558q0 91 -52 108h246q-13 -3 -24.5 -14t-19.5 -35t-8 -59v-455q0 -44 14 -71.5t37 -31.5h-245q23 3 37.5 30t14.5 73v455zM195 790q0 26 17.5 43.5t47.5 17.5t47.5 -17.5t17.5 -43.5q0 -27 -18 -45t-47 -18q-30 0 -47.5 18t-17.5 45zM-2 790q0 26 18.5 43.5
t48.5 17.5q29 0 46.5 -17.5t17.5 -43.5q0 -27 -17.5 -45t-46.5 -18q-30 0 -48.5 18t-18.5 45z" />
    <glyph glyph-name="afii10057" unicode="&#x408;" horiz-adv-x="325" 
d="M105 559q0 93 -56 107h249q-50 -17 -50 -108v-430q0 -206 -162 -206q-77 0 -123 54q18 -5 36 -5q54 0 80 47.5t26 125.5v415z" />
    <glyph glyph-name="afii10058" unicode="&#x409;" horiz-adv-x="960" 
d="M310 666h102l107 -269h171q110 0 172 -50t62 -136q0 -93 -67 -152t-174 -59h-226q17 2 28.5 13t11.5 31q0 7 -2.5 17.5t-153.5 394.5l-135 -355q-14 -34 -14 -53q0 -20 11.5 -33t30.5 -15h-230q50 14 95 128zM661 90q57 0 87 33t30 78q0 105 -121 105h-101l87 -216h18z
" />
    <glyph glyph-name="afii10059" unicode="&#x40a;" horiz-adv-x="991" 
d="M83 554q0 32 -5.5 53t-14.5 35t-32 24h237q-21 -5 -35 -34.5t-14 -77.5v-172h273v175q0 92 -51 109h241q-54 -18 -54 -109v-160h91q110 0 173 -49.5t63 -136.5q0 -93 -66 -152t-175 -59h-273q23 4 37 33.5t14 79.5v178h-273v-179q0 -102 48 -112h-235q24 5 37.5 34.5
t13.5 77.5v442zM692 90q57 0 87 32.5t30 78.5q0 47 -30.5 76t-91.5 29h-59v-216h64z" />
    <glyph glyph-name="afii10060" unicode="&#x40b;" horiz-adv-x="829" 
d="M252 575h-122q-38 0 -62 -19.5t-44 -70.5l16 181h584l15 -181q-21 53 -49.5 71.5t-74.5 18.5h-119v-178q66 29 139 29q115 0 169.5 -55.5t54.5 -170.5v-99q0 -41 12 -68.5t33 -32.5h-234q23 6 34 33t11 66v97q0 70 -32.5 103t-86.5 33q-52 0 -100 -22v-198
q0 -46 12.5 -76.5t36.5 -35.5h-242q24 5 36.5 35.5t12.5 76.5v463z" />
    <glyph glyph-name="afii10061" unicode="&#x40c;" horiz-adv-x="707" 
d="M83 554q0 95 -53 112h248q-23 -4 -37 -34t-14 -78v-184q110 119 164.5 179t54.5 92q0 20 -25 25h262q-21 -3 -67 -34t-92 -82l-166 -181l196 -249q39 -50 74 -81.5t66 -38.5h-223l-244 312v-201q0 -49 14 -78t37 -33h-248q23 4 38 33t15 78v443zM342 856h165l-213 -159z
" />
    <glyph glyph-name="uni040D" unicode="&#x40d;" horiz-adv-x="741" 
d="M83 554q0 96 -53 112h246q-23 -6 -36.5 -36t-13.5 -76v-323l289 343q0 37 -13.5 61t-38.5 31h245q-23 -6 -36.5 -36t-13.5 -76v-442q0 -38 8 -62.5t19 -36t23 -13.5h-244q25 6 38 36t13 76v323l-289 -343q0 -38 13.5 -63t35.5 -29h-243q25 6 38 36t13 76v442zM368 856
l50 -159l-215 159h165z" />
    <glyph glyph-name="afii10062" unicode="&#x40e;" horiz-adv-x="726" 
d="M95 149q36 -62 97 -62q35 0 60.5 22t48.5 61l-198 384q-22 45 -48.5 75.5t-47.5 36.5h272q-38 -9 -38 -44q0 -22 16 -54l130 -253l131 257q12 24 12 48q0 37 -38 46h232q-34 -7 -91 -115l-214 -405q-45 -85 -97.5 -125.5t-128.5 -40.5q-65 0 -99 20zM304 859
q13 -87 77 -87q59 1 71 87l92 -23q-11 -59 -56.5 -92.5t-111.5 -33.5t-111 34t-55 92z" />
    <glyph glyph-name="afii10145" unicode="&#x40f;" horiz-adv-x="721" 
d="M356 -171q-24 91 -62 131t-86 40h-175q23 6 36.5 34.5t13.5 77.5v442q0 45 -14 76t-35 36h238q-45 -18 -45 -112v-462h267v462q0 46 -13 76.5t-33 35.5h239q-49 -20 -49 -112v-442q0 -47 13.5 -77.5t35.5 -34.5h-183q-48 0 -85.5 -46t-53.5 -125h-9z" />
    <glyph glyph-name="afii10017" unicode="&#x410;" horiz-adv-x="747" 
d="M309 666h118l220 -541q42 -108 95 -125h-269q16 2 26.5 14t10.5 33q0 15 -36 111h-255q-31 -85 -31 -106q0 -24 12.5 -37t28.5 -15h-224q20 3 45.5 36t48.5 92zM440 245l-95 246l-93 -246h188z" />
    <glyph glyph-name="afii10018" unicode="&#x411;" horiz-adv-x="597" 
d="M83 558q0 90 -53 108h489v-177q-18 50 -48.5 68t-75.5 18h-176v-170h106q112 0 174 -52.5t62 -138.5q0 -95 -68 -154.5t-173 -59.5h-293q25 4 40.5 36t15.5 78v444zM298 90q54 0 85 32.5t31 82.5q0 45 -29 77t-93 32h-73v-224h79z" />
    <glyph glyph-name="afii10019" unicode="&#x412;" horiz-adv-x="639" 
d="M90 551q0 46 -15.5 77t-43.5 38h340q86 0 137.5 -45.5t51.5 -115.5q0 -56 -34.5 -99t-84.5 -55q71 -12 111 -60t40 -112q0 -78 -56.5 -128.5t-146.5 -50.5h-350q23 3 37 34t14 83v434zM333 92q52 0 80.5 25t28.5 73t-28.5 78t-90.5 30h-91v-206h101zM321 388
q46 0 68 28.5t22 70.5q0 39 -25.5 63.5t-68.5 24.5h-85v-187h89z" />
    <glyph glyph-name="afii10020" unicode="&#x413;" horiz-adv-x="497" 
d="M83 556q0 94 -63 110h454v-176q-19 48 -49.5 66.5t-75.5 18.5h-123v-466q0 -46 12.5 -75t36.5 -34h-246q26 7 40 36.5t14 76.5v443z" />
    <glyph glyph-name="afii10021" unicode="&#x414;" horiz-adv-x="747" 
d="M33 94h26q20 0 25.5 6t9.5 16l215 550h118l222 -548q5 -11 10.5 -17.5t24.5 -6.5h30v-265h-9q-20 76 -68 123.5t-107 47.5h-313q-44 0 -79 -24.5t-61 -66t-35 -80.5h-9v265zM498 94l-154 397l-149 -397h303z" />
    <glyph glyph-name="afii10022" unicode="&#x415;" 
d="M90 554q0 44 -16 74.5t-46 37.5h453v-178q-14 48 -44 67.5t-78 19.5h-126v-193h110q63 -1 80 34v-158q-2 13 -21.5 23t-56.5 10h-112v-199h136q63 0 95.5 20.5t60.5 73.5l-32 -186h-457q13 2 25 14.5t20.5 37.5t8.5 67v435z" />
    <glyph glyph-name="afii10024" unicode="&#x416;" horiz-adv-x="1036" 
d="M9 0q23 6 59 38.5t72 80.5l187 243l-159 188q-87 101 -146 116h244q-22 -8 -22 -26q0 -28 51 -90l155 -187v191q0 33 -5.5 54t-14 34.5t-29.5 23.5h231q-22 -7 -34 -37.5t-12 -74.5v-191q103 124 154.5 187t51.5 91q0 16 -22 25h243q-56 -11 -146 -116l-158 -185
l187 -246q84 -107 131 -119h-211l-230 311v-200q0 -50 13 -79t32 -32h-229q48 13 48 111v199l-231 -310h-210z" />
    <glyph glyph-name="afii10025" unicode="&#x417;" horiz-adv-x="547" 
d="M41 215q57 -129 202 -129q56 0 90 25.5t34 69.5q0 49 -53 78.5t-160 31.5v91h65q66 0 102 29.5t36 78.5q0 41 -29.5 66t-80.5 25q-122 0 -184 -130v191q88 40 214 40q97 0 159.5 -47t62.5 -121q0 -69 -40 -111.5t-102 -59.5q69 -14 111.5 -55.5t42.5 -103.5
q0 -91 -71 -145t-184 -54q-137 0 -215 52v178z" />
    <glyph glyph-name="afii10026" unicode="&#x418;" horiz-adv-x="741" 
d="M83 554q0 96 -53 112h246q-23 -6 -36.5 -36t-13.5 -76v-323l289 343q0 37 -13.5 61t-38.5 31h245q-23 -6 -36.5 -36t-13.5 -76v-442q0 -38 8 -62.5t19 -36t23 -13.5h-244q25 6 38 36t13 76v323l-289 -343q0 -38 13.5 -63t35.5 -29h-243q25 6 38 36t13 76v442z" />
    <glyph glyph-name="afii10027" unicode="&#x419;" horiz-adv-x="741" 
d="M83 554q0 96 -53 112h246q-23 -6 -36.5 -36t-13.5 -76v-323l289 343q0 37 -13.5 61t-38.5 31h245q-23 -6 -36.5 -36t-13.5 -76v-442q0 -38 8 -62.5t19 -36t23 -13.5h-244q25 6 38 36t13 76v323l-289 -343q0 -38 13.5 -63t35.5 -29h-243q25 6 38 36t13 76v442zM296 859
q13 -87 77 -87q59 1 71 87l92 -23q-11 -59 -56.5 -92.5t-111.5 -33.5t-111 34t-55 92z" />
    <glyph glyph-name="afii10028" unicode="&#x41a;" horiz-adv-x="707" 
d="M83 554q0 95 -53 112h248q-23 -4 -37 -34t-14 -78v-184q110 119 164.5 179t54.5 92q0 20 -25 25h262q-21 -3 -67 -34t-92 -82l-166 -181l196 -249q39 -50 74 -81.5t66 -38.5h-223l-244 312v-201q0 -49 14 -78t37 -33h-248q23 4 38 33t15 78v443z" />
    <glyph glyph-name="afii10029" unicode="&#x41b;" horiz-adv-x="729" 
d="M310 666h102l217 -544q42 -104 95 -122h-269q18 2 29.5 14t11.5 31q0 17 -17 55l-140 353l-135 -357q-12 -32 -12 -48q0 -20 12 -32.5t30 -15.5h-229q49 16 93 126z" />
    <glyph glyph-name="afii10030" unicode="&#x41c;" horiz-adv-x="879" 
d="M95 559q0 91 -64 107h243l177 -403l175 403h219q-23 -4 -38.5 -33t-15.5 -77v-443q0 -38 8 -62t21 -37t25 -14h-238q20 3 34 31.5t14 81.5v380l-225 -509l-231 508v-373q0 -40 10 -66.5t24 -38.5t29 -14h-228q15 2 28.5 14t23 38.5t9.5 66.5v440z" />
    <glyph glyph-name="afii10031" unicode="&#x41d;" horiz-adv-x="741" 
d="M83 554q-1 97 -53 112h248q-23 -5 -37 -34.5t-14 -77.5v-172h287v172q0 37 -7 59t-16.5 34t-29.5 19h248q-21 -3 -36 -32t-15 -80v-442q0 -38 8 -62.5t19.5 -36t23.5 -13.5h-248q12 2 24.5 13.5t20.5 36t8 62.5v179h-287v-179q0 -49 14.5 -79t36.5 -33h-248
q13 2 25.5 13.5t20 36t7.5 62.5v442z" />
    <glyph glyph-name="afii10032" unicode="&#x41e;" horiz-adv-x="752" 
d="M366 -15q-145 0 -235.5 94.5t-90.5 243.5q0 99 44.5 181.5t125.5 129.5t179 47q144 0 233.5 -94.5t89.5 -243.5q0 -152 -97 -255t-249 -103zM389 88q79 0 128.5 62.5t49.5 165.5q0 118 -55 191t-148 73q-79 0 -128.5 -60.5t-49.5 -165.5q0 -121 54 -193.5t149 -72.5z" />
    <glyph glyph-name="afii10033" unicode="&#x41f;" horiz-adv-x="721" 
d="M83 554q0 32 -5.5 53t-14.5 34.5t-32 24.5h657q-23 -6 -36.5 -35t-13.5 -77v-442q0 -47 13.5 -77.5t35.5 -34.5h-240q21 5 34 34t13 78v463h-267v-463q0 -103 45 -112h-239q23 6 36.5 35t13.5 77v442z" />
    <glyph glyph-name="afii10034" unicode="&#x420;" horiz-adv-x="586" 
d="M93 551q0 47 -15.5 77.5t-43.5 37.5h307q98 0 158.5 -57.5t60.5 -145.5q0 -98 -67 -158t-176 -60q-48 0 -89 12v-146q0 -38 9 -62t22 -35.5t27 -13.5h-245q24 3 38 32.5t14 78.5v440zM228 349q35 -11 74 -11q54 0 83 33.5t29 87.5q0 51 -31 83.5t-88 32.5h-67v-226z" />
    <glyph glyph-name="afii10035" unicode="&#x421;" horiz-adv-x="639" 
d="M596 78q-35 -41 -93.5 -67t-124.5 -26q-154 0 -245.5 93.5t-91.5 240.5q0 100 45 183.5t127.5 131t190.5 47.5q107 0 179 -39v-192q-23 59 -71 95t-119 36q-89 0 -145.5 -68.5t-56.5 -174.5q0 -108 56.5 -178t148.5 -70q54 0 108 27.5t92 75.5v-115z" />
    <glyph glyph-name="afii10036" unicode="&#x422;" horiz-adv-x="648" 
d="M251 575h-121q-63 0 -90 -56l-16 -34l16 181h569l15 -181q-21 53 -49.5 71.5t-74.5 18.5h-103v-463q0 -51 15 -80.5t36 -31.5h-248q22 3 36.5 30.5t14.5 81.5v463z" />
    <glyph glyph-name="afii10037" unicode="&#x423;" horiz-adv-x="726" 
d="M95 149q36 -62 97 -62q35 0 60.5 22t48.5 61l-198 384q-22 45 -48.5 75.5t-47.5 36.5h272q-38 -9 -38 -44q0 -22 16 -54l130 -253l131 257q12 24 12 48q0 37 -38 46h232q-34 -7 -91 -115l-214 -405q-45 -85 -97.5 -125.5t-128.5 -40.5q-65 0 -99 20z" />
    <glyph glyph-name="afii10038" unicode="&#x424;" horiz-adv-x="777" 
d="M323 83q-130 12 -209.5 78.5t-79.5 165.5q0 100 79 170.5t210 86.5v10q0 69 -48 88h227q-18 -5 -32.5 -27.5t-15.5 -58.5v-11q130 -10 209.5 -76.5t79.5 -166.5q0 -103 -81 -173.5t-208 -84.5v-11q0 -37 12.5 -61t34.5 -28h-225q47 12 47 88v11zM454 175q63 8 104 51
t41 102q0 63 -38.5 106t-106.5 57v-316zM323 493q-66 -11 -104.5 -52.5t-38.5 -96.5q0 -68 39 -110.5t104 -56.5v316z" />
    <glyph glyph-name="afii10039" unicode="&#x425;" horiz-adv-x="697" 
d="M5 0q21 3 57.5 37.5t74.5 91.5l133 191l-150 228q-71 103 -115 118h280q-9 -2 -19 -11t-10 -27q0 -13 7.5 -32t98.5 -157q97 135 106.5 156t9.5 36q0 29 -25 35h234q-17 -3 -49.5 -33t-67.5 -79l-148 -208l145 -220q37 -58 72 -91t50 -35h-284q13 2 22 11t9 28
q0 14 -8.5 34.5t-96.5 152.5q-91 -133 -101.5 -154.5t-10.5 -34.5q0 -32 27 -37h-241z" />
    <glyph glyph-name="afii10040" unicode="&#x426;" horiz-adv-x="731" 
d="M83 554q0 45 -14 76t-35 36h238q-45 -18 -45 -112v-462h267v462q0 46 -13 76.5t-33 35.5h239q-49 -20 -49 -112v-418q0 -22 8 -33t30 -11h30v-263h-9q-20 75 -68 123t-107 48h-489q23 6 36.5 34.5t13.5 77.5v442z" />
    <glyph glyph-name="afii10041" unicode="&#x427;" horiz-adv-x="658" 
d="M69 565q0 30 -5.5 50t-14 32t-25.5 19h233q-24 -9 -34 -35t-10 -64v-100q0 -132 113 -133q55 0 106 23v172q0 56 -11.5 92t-38.5 45h242q-22 -6 -35.5 -35t-13.5 -76v-417q0 -63 12.5 -98.5t36.5 -39.5h-247q26 5 40.5 34.5t14.5 74.5v161q-69 -31 -145 -31
q-112 0 -165 54.5t-53 166.5v105z" />
    <glyph glyph-name="afii10042" unicode="&#x428;" horiz-adv-x="981" 
d="M83 554q0 47 -14 77t-35 35h234q-45 -18 -45 -112v-462h197v462q0 46 -13 76.5t-33 35.5h235q-49 -20 -49 -112v-462h198v462q0 46 -13 76.5t-33 35.5h234q-48 -19 -48 -112v-442q0 -50 13.5 -79t34.5 -33h-913q23 6 36.5 34.5t13.5 77.5v442z" />
    <glyph glyph-name="afii10043" unicode="&#x429;" horiz-adv-x="991" 
d="M83 554q0 45 -14 76t-35 36h234q-45 -18 -45 -112v-462h197v462q0 46 -13 76.5t-33 35.5h235q-49 -20 -49 -112v-462h198v462q0 46 -13 76.5t-33 35.5h234q-48 -19 -48 -112v-418q0 -22 8 -33t30 -11h30v-263h-9q-20 75 -68 123t-107 48h-748q23 6 36 36.5t13 75.5v442z
" />
    <glyph glyph-name="afii10044" unicode="&#x42a;" horiz-adv-x="752" 
d="M252 575h-122q-63 0 -90 -56l-16 -34l16 181h404q-56 -19 -56 -109v-141h92q112 0 174 -55t62 -145q0 -95 -66.5 -155.5t-174.5 -60.5h-275q24 4 38 35t14 79v461zM453 90q57 0 86.5 34t29.5 83q0 51 -29 84.5t-93 33.5h-59v-235h65z" />
    <glyph glyph-name="afii10045" unicode="&#x42b;" horiz-adv-x="869" 
d="M83 558q0 91 -51 108h243q-24 -4 -40 -34t-16 -75v-141h91q111 0 173.5 -53.5t62.5 -146.5q0 -94 -65.5 -155t-175.5 -61h-275q23 4 38 34t15 80v444zM644 558q0 91 -52 108h245q-51 -17 -51 -108v-455q0 -91 49 -103h-242q51 13 51 103v455zM283 90q57 0 87 34t30 83
q0 51 -29.5 84.5t-92.5 33.5h-59v-235h64z" />
    <glyph glyph-name="afii10046" unicode="&#x42c;" horiz-adv-x="587" 
d="M83 558q0 91 -51 108h243q-24 -4 -40 -34t-16 -75v-141h96q111 0 173.5 -53.5t62.5 -146.5q0 -94 -65.5 -155t-175.5 -61h-280q23 4 38 34t15 80v444zM288 90q57 0 87 34t30 83q0 51 -29.5 84.5t-92.5 33.5h-64v-235h69z" />
    <glyph glyph-name="afii10047" unicode="&#x42d;" horiz-adv-x="640" 
d="M40 209q59 -119 201 -119q82 0 139.5 55.5t66.5 145.5h-194q-67 0 -78 -33v156q5 -14 26 -23t54 -9h192q-13 91 -66.5 145t-129.5 54q-72 0 -123.5 -36t-74.5 -95v192q32 15 87.5 27t118.5 12q155 0 247.5 -92t92.5 -245q0 -95 -44 -179t-122.5 -132t-179.5 -48
q-142 0 -213 53v171z" />
    <glyph glyph-name="afii10048" unicode="&#x42e;" horiz-adv-x="1039" 
d="M83 554q0 32 -5.5 53t-14.5 35t-32 24h241q-21 -6 -35 -35t-14 -77v-172h123q20 134 113 216.5t223 82.5q142 0 229 -94.5t87 -243.5q0 -155 -95 -256.5t-243 -101.5q-133 0 -220 84.5t-97 221.5h-120v-179q0 -49 12.5 -78t35.5 -34h-238q50 13 50 112v442zM682 88
q77 0 124.5 62.5t47.5 165.5q0 118 -53 191t-142 73q-76 0 -123.5 -60.5t-47.5 -165.5q0 -121 52.5 -193.5t141.5 -72.5z" />
    <glyph glyph-name="afii10049" unicode="&#x42f;" horiz-adv-x="623" 
d="M232 287q-76 15 -120 62.5t-44 114.5q0 91 66 146.5t175 55.5h291q-27 -7 -43 -38t-16 -78v-439q0 -45 12.5 -74.5t37.5 -36.5h-239q14 2 25 13.5t19 35t8 62.5v151h-20q-51 0 -84 -68l-97 -194h-200q47 11 84 75l73 138q27 50 72 74zM404 352v223h-72q-55 0 -87.5 -30.5
t-32.5 -78.5q0 -52 33.5 -83t87.5 -31h71z" />
    <glyph glyph-name="afii10065" unicode="&#x430;" horiz-adv-x="507" 
d="M63 278q-12 31 -12 56q0 63 60 107t142 44q180 0 180 -151v-185q0 -45 21 -69.5t60 -24.5l11 2l-122 -80q-24 4 -47.5 22t-30.5 39q-20 -26 -59.5 -39.5t-80.5 -13.5q-63 0 -103 32.5t-40 88.5q0 59 70.5 105.5t194.5 73.5v38q0 86 -66 86q-38 0 -55 -16.5t-17 -33.5
q0 -23 20 -33zM307 215q-143 -28 -145 -95q0 -24 18 -39.5t46 -15.5q31 0 56 20.5t25 56.5v73z" />
    <glyph glyph-name="afii10066" unicode="&#x431;" horiz-adv-x="539" 
d="M483 714q-11 -117 -95 -141q-17 -4 -89 -11q-63 -5 -83 -21.5t-30.5 -50t-13.5 -85.5q69 53 138 53q87 0 140 -60t53 -156q0 -113 -65 -185t-169 -72q-232 0 -232 300q0 123 30 202t89.5 126.5t155.5 56.5q92 9 124.5 19t46.5 25zM268 365q-51 0 -98 -43q-1 -20 -1 -54
q0 -100 24.5 -147t75.5 -47q45 0 72.5 44t27.5 112q0 58 -28.5 96.5t-72.5 38.5z" />
    <glyph glyph-name="afii10067" unicode="&#x432;" horiz-adv-x="500" 
d="M69 378q0 37 -13 60.5t-36 29.5h260q77 0 122 -29t45 -82q0 -40 -27 -68t-69 -38q120 -20 121 -119q0 -60 -52.5 -96t-147.5 -36h-249q10 2 20.5 11.5t18 29.5t7.5 49v288zM253 74q87 1 87 65t-96 66h-51v-131h60zM245 275q35 0 53.5 18t18.5 48q0 53 -76 54h-48v-120h52
z" />
    <glyph glyph-name="afii10068" unicode="&#x433;" horiz-adv-x="406" 
d="M69 372q0 36 -12 61t-36 35h367v-142q-28 66 -108 65h-84v-296q0 -37 12.5 -63.5t31.5 -31.5h-218q10 2 21.5 14t18.5 32.5t7 51.5v274z" />
    <glyph glyph-name="afii10069" unicode="&#x434;" horiz-adv-x="563" 
d="M19 80h28q15 0 22 6.5t13 20.5l151 378h88l156 -380q6 -14 12 -19.5t20 -5.5h30v-223h-9q-20 64 -62 103.5t-92 39.5h-194q-50 0 -91.5 -39.5t-62.5 -103.5h-9v223zM346 80l-87 225l-85 -225h172z" />
    <glyph glyph-name="afii10070" unicode="&#x435;" horiz-adv-x="491" 
d="M310 81q42 0 82.5 17.5t68.5 51.5q-33 -165 -204 -165q-101 0 -161.5 68.5t-60.5 171.5q0 110 63.5 185t160.5 75q92 0 143 -69.5t52 -197.5h-295q13 -69 54.5 -103t96.5 -34zM333 290q0 49 -20.5 81.5t-57.5 32.5q-38 0 -64.5 -32.5t-31.5 -81.5h174z" />
    <glyph glyph-name="afii10072" unicode="&#x436;" horiz-adv-x="852" 
d="M227 257l-83 109q-65 82 -127 100h233q-25 -10 -25 -28q0 -22 32 -65l73 -97q22 -30 35 -30v103q0 49 -12 80t-34 37h214q-46 -15 -46 -116v-104q13 0 45 42q81 105 88 122.5t7 27.5q0 12 -9.5 19.5t-16.5 8.5h234q-67 -21 -128 -100l-83 -109l117 -159q29 -38 61 -60.5
t53 -22.5q-36 -26 -125 -26q-76 0 -136 89l-74 112q-22 35 -33 34v-107q0 -52 12.5 -82.5t31.5 -34.5h-212q46 14 46 116v108q-9 0 -16.5 -10.5t-16.5 -23.5q-78 -117 -105.5 -147.5t-54 -42.5t-67.5 -12q-76 0 -109 27q22 0 53.5 22.5t60.5 60.5z" />
    <glyph glyph-name="afii10073" unicode="&#x437;" horiz-adv-x="438" 
d="M37 138q54 -73 147 -73q91 0 91 70q0 31 -29 47.5t-78 16.5h-51v73h38q61 0 88.5 20.5t27.5 51.5q0 29 -22.5 45t-59.5 16q-80 0 -135 -78v136q69 22 147 22q88 0 139 -31.5t51 -94.5q0 -42 -30.5 -74.5t-69.5 -39.5q114 -24 114 -115q0 -66 -54 -105.5t-156 -39.5
q-95 0 -158 26v127z" />
    <glyph glyph-name="afii10074" unicode="&#x438;" horiz-adv-x="562" 
d="M69 369q0 28 -5.5 46.5t-15 32t-27.5 20.5h217q-44 -18 -44 -98v-175l172 190q0 28 -10.5 50.5t-32.5 32.5h215q-19 -4 -32.5 -31t-13.5 -70v-266q0 -42 13 -69.5t31 -31.5h-211q16 5 28.5 30.5t12.5 67.5v174l-172 -190q0 -34 12.5 -56t30.5 -26h-214q20 5 33 32.5
t13 66.5v270z" />
    <glyph glyph-name="afii10075" unicode="&#x439;" horiz-adv-x="562" 
d="M69 369q0 28 -5.5 46.5t-15 32t-27.5 20.5h217q-44 -18 -44 -98v-175l172 190q0 28 -10.5 50.5t-32.5 32.5h215q-19 -4 -32.5 -31t-13.5 -70v-266q0 -42 13 -69.5t31 -31.5h-211q16 5 28.5 30.5t12.5 67.5v174l-172 -190q0 -34 12.5 -56t30.5 -26h-214q20 5 33 32.5
t13 66.5v270zM208 687q13 -87 77 -87q59 1 71 87l92 -23q-11 -59 -56.5 -92.5t-111.5 -33.5t-111 34t-55 92z" />
    <glyph glyph-name="afii10076" unicode="&#x43a;" horiz-adv-x="580" 
d="M69 322q0 46 -12.5 69t-43.5 23h-13l196 75v-242q15 0 31 23l84 105q31 39 31 63q0 20 -27 28h241q-67 -21 -131 -99l-88 -107l120 -157q70 -88 128 -88q-38 -27 -120 -27q-59 0 -97.5 29t-94.5 111q-32 45 -48 70.5t-29 25.5v-107q0 -40 7 -64.5t19 -38t23 -14.5h-226
q48 13 50 114v208z" />
    <glyph glyph-name="afii10077" unicode="&#x43b;" horiz-adv-x="553" 
d="M228 485h88l164 -399q29 -71 74 -86h-241q14 2 24 12.5t10 31.5q0 15 -11 45l-82 214l-76 -202q-12 -32 -12 -50q0 -22 11.5 -35.5t28.5 -15.5h-207q39 13 72 92z" />
    <glyph glyph-name="afii10078" unicode="&#x43c;" horiz-adv-x="673" 
d="M69 375q0 35 -14.5 61.5t-31.5 31.5h188l127 -261l121 261h186q-15 -6 -28.5 -33t-13.5 -63v-280q0 -39 14.5 -64t27.5 -28h-197q16 7 26 31.5t10 60.5v253l-169 -359l-170 352v-242q0 -29 7 -49.5t17.5 -32.5t19.5 -14h-164q21 8 32.5 34.5t11.5 61.5v279z" />
    <glyph glyph-name="afii10079" unicode="&#x43d;" horiz-adv-x="562" 
d="M69 369q0 28 -5.5 46.5t-14.5 31.5t-28 21h219q-44 -17 -44 -99v-92h168v93q0 78 -43 98h217q-19 -5 -32.5 -31.5t-13.5 -69.5v-266q0 -42 13 -69.5t31 -31.5h-213q18 6 29.5 32.5t11.5 65.5v102h-168v-102q0 -43 12.5 -68.5t30.5 -29.5h-216q20 6 33 32t13 67v270z" />
    <glyph glyph-name="afii10080" unicode="&#x43e;" horiz-adv-x="562" 
d="M275 -15q-107 0 -173 66t-66 175q0 110 70 184.5t178 74.5q107 0 174.5 -65.5t67.5 -174.5q0 -115 -70 -187.5t-181 -72.5zM289 75q46 0 75.5 42.5t29.5 107.5q0 72 -35 121t-88 49q-47 0 -76 -40.5t-29 -105.5q0 -74 35 -124t88 -50z" />
    <glyph glyph-name="afii10081" unicode="&#x43f;" horiz-adv-x="554" 
d="M69 369q0 28 -5.5 46.5t-15 32t-27.5 20.5h509q-20 -6 -33 -32t-13 -69v-266q0 -42 12.5 -69.5t31.5 -31.5h-212q18 6 29.5 32t11.5 66v293h-161v-293q0 -43 12.5 -68.5t30.5 -29.5h-216q21 7 33.5 33.5t12.5 65.5v270z" />
    <glyph glyph-name="afii10082" unicode="&#x440;" horiz-adv-x="543" 
d="M66 316q0 46 -12.5 72t-43.5 26h-11l186 75l2 -72q23 32 60 50t77 18q80 0 132 -62.5t52 -170.5q0 -117 -63 -190.5t-167 -73.5q-60 0 -85 27v-91q0 -93 49 -105h-219q9 0 19.5 12t17 34.5t6.5 58.5v392zM191 147q0 -72 76 -72q48 0 76.5 41t28.5 108q0 76 -25 120
t-70 44q-35 0 -60.5 -30t-25.5 -80v-131z" />
    <glyph glyph-name="afii10083" unicode="&#x441;" horiz-adv-x="461" 
d="M308 281q7 17 7 37q0 34 -17.5 55t-48.5 21q-41 0 -67 -39t-26 -99q0 -76 38.5 -126.5t100.5 -50.5q80 0 145 75q-13 -72 -67 -120.5t-127 -48.5q-97 0 -154.5 62t-57.5 168q0 118 68 194t166 76q67 0 112 -41.5t50 -113.5z" />
    <glyph glyph-name="afii10084" unicode="&#x442;" horiz-adv-x="457" 
d="M165 391h-40q-37 0 -64 -14t-43 -51v142h421v-142q-27 65 -108 65h-39v-296q0 -38 12 -64t31 -31h-217q20 5 33.5 31.5t13.5 66.5v293z" />
    <glyph glyph-name="afii10085" unicode="&#x443;" 
d="M21 -98q23 -6 43 -5q91 1 157 121l-146 363q-15 38 -35 59t-42 26h243q-16 -4 -25 -14.5t-9 -30.5q0 -9 4 -23.5t85 -223.5l73 191q14 36 14 54q0 20 -11.5 32.5t-28.5 14.5h207q-38 -13 -71 -90l-139 -334q-39 -94 -87 -155.5t-92 -78.5z" />
    <glyph glyph-name="afii10086" unicode="&#x444;" horiz-adv-x="663" 
d="M269 -14q-106 14 -169.5 79t-63.5 161q0 98 64.5 168t168.5 87v36q0 52 -14 80t-48 28h-9l194 72v-214q107 -14 171 -79t64 -159q0 -99 -63.5 -169t-171.5 -88v-63q0 -44 12 -72t34 -34h-218q23 6 36 33t13 73v61zM392 75q47 14 76.5 56t29.5 96q0 58 -27 101t-79 61
v-314zM269 394q-45 -12 -76 -52.5t-31 -94.5q0 -60 27.5 -104t79.5 -63v314z" />
    <glyph glyph-name="afii10087" unicode="&#x445;" horiz-adv-x="528" 
d="M195 221l-111 163q-21 30 -41 51t-42 31h233q-8 -2 -14.5 -8.5t-6.5 -18.5q0 -10 5.5 -23.5t57.5 -88.5q52 75 58 90t6 25q0 18 -19 24h203q-22 -4 -50 -27t-52 -60l-90 -135l119 -173q22 -33 42.5 -51t32.5 -20h-232q9 2 13.5 8t4.5 17q0 9 -6.5 26t-54.5 88
q-53 -78 -58.5 -92.5t-5.5 -22.5q0 -18 19 -24h-204q19 3 46 26.5t57 65.5z" />
    <glyph glyph-name="afii10088" unicode="&#x446;" horiz-adv-x="564" 
d="M69 368q0 44 -13 69.5t-32 30.5h214q-17 -5 -29.5 -30.5t-12.5 -67.5v-290h161v290q0 40 -12 66.5t-30 31.5h214q-18 -5 -31.5 -31t-13.5 -69v-252q0 -36 28 -36h35v-223h-9q-20 65 -61.5 104t-92.5 39h-362q21 5 34 32.5t13 67.5v268z" />
    <glyph glyph-name="afii10089" unicode="&#x447;" horiz-adv-x="545" 
d="M62 364q0 38 -10 66t-34 38h211q-18 -6 -28.5 -32.5t-10.5 -71.5v-37q-1 -94 68 -94q38 0 64 26.5t26 64.5v42q0 30 -5 49t-13 32.5t-26 20.5h218q-21 -5 -34 -33t-13 -73v-260q0 -46 11.5 -72t29.5 -30h-215q23 6 35 32.5t12 70.5v56l1 37q-25 -26 -63 -43t-78 -17
q-67 0 -106.5 40.5t-39.5 124.5v63z" />
    <glyph glyph-name="afii10090" unicode="&#x448;" horiz-adv-x="800" 
d="M69 368q0 44 -13 69.5t-32 30.5h213q-18 -5 -30 -30.5t-12 -67.5v-290h141v290q0 39 -12 66t-30 32h213q-18 -5 -31.5 -31t-13.5 -69v-288h141v290q0 39 -12 66t-30 32h214q-20 -5 -32.5 -31.5t-12.5 -68.5v-268q0 -42 13.5 -68.5t33.5 -31.5h-755q21 5 34 32t13 68v268z
" />
    <glyph glyph-name="afii10091" unicode="&#x449;" horiz-adv-x="811" 
d="M69 368q0 44 -13.5 70t-31.5 30h213q-17 -4 -29.5 -30t-12.5 -68v-290h141v290q0 39 -12 66t-30 32h213q-18 -4 -31.5 -30.5t-13.5 -69.5v-288h141v290q0 39 -12 66t-30 32h214q-20 -6 -32.5 -32t-12.5 -68v-255q0 -33 29 -33h34v-223h-9q-21 65 -62 104t-93 39h-607
q21 5 34 31.5t13 68.5v268z" />
    <glyph glyph-name="afii10092" unicode="&#x44a;" horiz-adv-x="586" 
d="M165 391h-40q-37 0 -64 -14t-43 -51v142h323q-19 -5 -34.5 -30.5t-15.5 -65.5v-77h70q94 0 146 -34.5t52 -104.5t-55 -113t-152 -43h-233q19 5 32.5 32t13.5 68v291zM333 74q48 0 71 20.5t23 53.5q0 72 -98 72h-38v-146h42z" />
    <glyph glyph-name="afii10093" unicode="&#x44b;" horiz-adv-x="735" 
d="M69 369q0 80 -48 99h224q-19 -5 -34.5 -31t-15.5 -65v-77h70q94 0 146 -34.5t52 -103.5q0 -71 -55.5 -114t-149.5 -43h-235q18 5 32 32t14 68v269zM237 74q48 0 71 20.5t23 53.5q0 72 -98 72h-38v-146h42zM539 369q0 28 -5 45.5t-14.5 32t-28.5 21.5h218q-44 -18 -44 -98
v-272q0 -43 12.5 -68.5t30.5 -29.5h-215q20 5 33 31t13 68v270z" />
    <glyph glyph-name="afii10094" unicode="&#x44c;" horiz-adv-x="498" 
d="M69 367q0 83 -48 101h224q-19 -5 -34.5 -30.5t-15.5 -65.5v-77h77q95 0 147 -35t52 -103q0 -72 -55.5 -114.5t-151.5 -42.5h-241q18 5 32 32.5t14 67.5v267zM245 74q48 0 70.5 20.5t22.5 53.5q0 72 -96 72h-47v-146h50z" />
    <glyph glyph-name="afii10095" unicode="&#x44d;" horiz-adv-x="461" 
d="M43 142q22 -31 59.5 -50t80.5 -19q48 0 81.5 35.5t38.5 90.5h-186v73h181q-6 49 -40.5 83.5t-88.5 34.5q-38 0 -76 -20t-67 -55q16 78 69 124t126 46q92 0 148 -65t56 -170q0 -120 -68 -192.5t-176 -72.5q-73 0 -138 26v131z" />
    <glyph glyph-name="afii10096" unicode="&#x44e;" horiz-adv-x="808" 
d="M69 369q0 28 -5 46t-15 32t-28 21h218q-44 -17 -44 -99v-92h105q16 94 81 151t156 57q103 0 168.5 -65.5t66.5 -174.5q0 -111 -67.5 -185.5t-176.5 -74.5q-99 0 -160 58t-70 157h-103v-102q0 -43 12.5 -68.5t30.5 -29.5h-215q20 5 33 32.5t13 66.5v270zM542 75
q40 0 68.5 40.5t28.5 109.5q0 70 -32 120t-82 50q-42 0 -70.5 -39.5t-28.5 -106.5q0 -72 33 -123t83 -51z" />
    <glyph glyph-name="afii10097" unicode="&#x44f;" horiz-adv-x="538" 
d="M195 203q-140 23 -140 122q0 65 55.5 104t154.5 39h250q-21 -5 -34 -32t-13 -70v-267q0 -42 12.5 -68.5t30.5 -30.5h-215q20 6 33 32.5t13 62.5v85h-10q-26 0 -41.5 -9t-32.5 -36l-88 -135h-180q36 5 72 54l64 92q31 45 69 57zM342 251v144h-56q-53 0 -76.5 -20
t-23.5 -51q0 -30 22.5 -51.5t82.5 -21.5h51z" />
    <glyph glyph-name="uni0450" unicode="&#x450;" horiz-adv-x="491" 
d="M310 81q42 0 82.5 17.5t68.5 51.5q-33 -165 -204 -165q-101 0 -161.5 68.5t-60.5 171.5q0 110 63.5 185t160.5 75q92 0 143 -69.5t52 -197.5h-295q13 -69 54.5 -103t96.5 -34zM333 290q0 49 -20.5 81.5t-57.5 32.5q-38 0 -64.5 -32.5t-31.5 -81.5h174zM282 666l49 -160
l-216 160h167z" />
    <glyph glyph-name="afii10071" unicode="&#x451;" horiz-adv-x="491" 
d="M310 81q42 0 82.5 17.5t68.5 51.5q-33 -165 -204 -165q-101 0 -161.5 68.5t-60.5 171.5q0 110 63.5 185t160.5 75q92 0 143 -69.5t52 -197.5h-295q13 -69 54.5 -103t96.5 -34zM333 290q0 49 -20.5 81.5t-57.5 32.5q-38 0 -64.5 -32.5t-31.5 -81.5h174zM286 612
q0 26 17.5 43.5t47.5 17.5t47.5 -17.5t17.5 -43.5q0 -27 -18 -45t-47 -18q-30 0 -47.5 18t-17.5 45zM89 612q0 26 18.5 43.5t48.5 17.5q29 0 46.5 -17.5t17.5 -43.5q0 -27 -17.5 -45t-46.5 -18q-30 0 -48.5 18t-18.5 45z" />
    <glyph glyph-name="afii10099" unicode="&#x452;" horiz-adv-x="547" 
d="M71 547h-59v60h59v42l127 52v-94h203v-60h-203v-125q20 23 61 43t81 20q67 0 107 -41.5t40 -122.5v-335q0 -86 -40 -131.5t-115 -45.5q-40 0 -73 16t-44 35q21 -8 44 -8q99 0 99 133v305q0 98 -69 98q-36 0 -63.5 -27.5t-27.5 -74.5v-184q0 -41 11.5 -69t32.5 -33h-221
q24 6 37 35.5t13 70.5v441z" />
    <glyph glyph-name="afii10100" unicode="&#x453;" horiz-adv-x="406" 
d="M69 372q0 36 -12 61t-36 35h367v-142q-28 66 -108 65h-84v-296q0 -37 12.5 -63.5t31.5 -31.5h-218q10 2 21.5 14t18.5 32.5t7 51.5v274zM209 666h165l-213 -160z" />
    <glyph glyph-name="afii10101" unicode="&#x454;" horiz-adv-x="456" 
d="M342 272v-73h-181q7 -53 42.5 -86.5t89.5 -33.5q77 0 142 75q-15 -77 -68 -123t-125 -46q-94 0 -151 62.5t-57 168.5q0 116 70 192.5t174 76.5q74 0 126 -26v-138q-50 75 -133 75q-47 0 -78.5 -35t-36.5 -89h186z" />
    <glyph glyph-name="afii10102" unicode="&#x455;" horiz-adv-x="404" 
d="M37 170q20 -41 59 -70t95 -29q27 0 47.5 10t20.5 33q0 18 -14.5 31.5t-53.5 32.5q-86 40 -117 74t-31 84q0 68 47 108.5t132 40.5q73 0 124 -27v-134q-21 35 -56 54.5t-71 19.5q-29 0 -44.5 -11.5t-15.5 -30.5t15 -33.5t85 -46.5q64 -29 91.5 -62t27.5 -81
q0 -69 -50.5 -108.5t-136.5 -39.5q-45 0 -88 11t-66 29v145z" />
    <glyph glyph-name="afii10103" unicode="&#x456;" horiz-adv-x="266" 
d="M70 323q0 91 -58 91h-13l198 75v-383q0 -49 14.5 -76t35.5 -30h-228q14 3 24.5 13.5t18.5 33t8 59.5v217zM47 613q0 32 21.5 53t56.5 21q36 0 57 -21t21 -53t-21 -54t-57 -22q-35 0 -56.5 22t-21.5 54z" />
    <glyph glyph-name="afii10104" unicode="&#x457;" horiz-adv-x="266" 
d="M72 322q0 92 -59 92h-13l201 75v-383q0 -49 14.5 -76t35.5 -30h-231q14 2 25 13t19 33.5t8 59.5v216zM171 612q0 26 17.5 43.5t47.5 17.5t47.5 -17.5t17.5 -43.5q0 -27 -18 -45t-47 -18q-30 0 -47.5 18t-17.5 45zM-26 612q0 26 18.5 43.5t48.5 17.5q29 0 46.5 -17.5
t17.5 -43.5q0 -27 -17.5 -45t-46.5 -18q-30 0 -48.5 18t-18.5 45z" />
    <glyph glyph-name="afii10105" unicode="&#x458;" horiz-adv-x="266" 
d="M47 613q0 32 22 53t56 21q35 0 56.5 -21t21.5 -53t-21 -54t-57 -22q-35 0 -56.5 22t-21.5 54zM70 328q0 88 -57 86h-14l199 75v-504q0 -85 -40 -130.5t-119 -45.5q-35 0 -66 16t-44 35q29 -8 44 -8q52 0 74.5 33t22.5 99v344z" />
    <glyph glyph-name="afii10106" unicode="&#x459;" horiz-adv-x="740" 
d="M228 485h87l82 -208h109q112 0 159.5 -35t47.5 -94q0 -69 -55 -108.5t-152 -39.5h-194q33 6 33 44q0 15 -11 45l-80 214l-76 -202q-12 -32 -12 -50q0 -41 38 -51h-205q39 13 72 92zM484 74q94 0 96 65q0 63 -96 63h-57l51 -128h6z" />
    <glyph glyph-name="afii10107" unicode="&#x45a;" horiz-adv-x="776" 
d="M69 369q0 28 -5.5 46.5t-15 32t-27.5 20.5h218q-44 -17 -44 -100v-91h162v93q-1 79 -43 98h215q-22 -7 -34 -35.5t-12 -70.5v-85h68q96 0 147 -32.5t51 -96.5q0 -69 -55 -108.5t-152 -39.5h-226q18 6 29.5 32t11.5 66v102h-162v-102q0 -43 12.5 -68.5t30.5 -29.5h-215
q21 7 33.5 33.5t12.5 65.5v270zM523 74q47 0 70.5 18t23.5 47q0 63 -96 63h-38v-128h40z" />
    <glyph glyph-name="afii10108" unicode="&#x45b;" horiz-adv-x="555" 
d="M71 547h-59v60h59v42l127 52v-94h203v-60h-203v-125q20 21 61 42t81 21q67 0 106.5 -41t39.5 -122v-217q0 -35 7.5 -57.5t18 -34t24.5 -13.5h-216q18 3 28 29.5t10 72.5v188q0 98 -69 98q-36 0 -63.5 -27.5t-27.5 -74.5v-184q0 -48 13.5 -73.5t33.5 -28.5h-226
q13 2 24.5 13t19.5 33.5t8 59.5v441z" />
    <glyph glyph-name="afii10109" unicode="&#x45c;" horiz-adv-x="580" 
d="M69 322q0 46 -12.5 69t-43.5 23h-13l196 75v-242q15 0 31 23l84 105q31 39 31 63q0 20 -27 28h241q-67 -21 -131 -99l-88 -107l120 -157q70 -88 128 -88q-38 -27 -120 -27q-59 0 -97.5 29t-94.5 111q-32 45 -48 70.5t-29 25.5v-107q0 -40 7 -64.5t19 -38t23 -14.5h-226
q48 13 50 114v208zM262 666h165l-213 -160z" />
    <glyph glyph-name="uni045D" unicode="&#x45d;" horiz-adv-x="562" 
d="M69 369q0 28 -5.5 46.5t-15 32t-27.5 20.5h217q-44 -18 -44 -98v-175l172 190q0 28 -10.5 50.5t-32.5 32.5h215q-19 -4 -32.5 -31t-13.5 -70v-266q0 -42 13 -69.5t31 -31.5h-211q16 5 28.5 30.5t12.5 67.5v174l-172 -190q0 -34 12.5 -56t30.5 -26h-214q20 5 33 32.5
t13 66.5v270zM264 666l49 -160l-216 160h167z" />
    <glyph glyph-name="afii10110" unicode="&#x45e;" 
d="M21 -98q23 -6 43 -5q91 1 157 121l-146 363q-15 38 -35 59t-42 26h243q-16 -4 -25 -14.5t-9 -30.5q0 -9 4 -23.5t85 -223.5l73 191q14 36 14 54q0 20 -11.5 32.5t-28.5 14.5h207q-38 -13 -71 -90l-139 -334q-39 -94 -87 -155.5t-92 -78.5zM212 687q13 -87 77 -87
q59 1 71 87l92 -23q-11 -59 -56.5 -92.5t-111.5 -33.5t-111 34t-55 92z" />
    <glyph glyph-name="afii10193" unicode="&#x45f;" horiz-adv-x="554" 
d="M272 -141q-20 76 -51 108.5t-70 32.5h-129q21 5 34 31.5t13 68.5v268q0 44 -13 69.5t-32 30.5h214q-18 -5 -30 -30.5t-12 -67.5v-290h161v290q0 41 -12 67t-30 31h214q-20 -6 -32.5 -32t-12.5 -68v-268q0 -42 13 -68t34 -32h-134q-39 0 -69.5 -37.5t-46.5 -103.5h-9z" />
    <glyph glyph-name="afii10050" unicode="&#x490;" horiz-adv-x="497" 
d="M83 556q0 41 -13.5 69.5t-48.5 40.5h279q56 0 102.5 43t62.5 101h9v-235h-248v-466q0 -46 12.5 -75.5t35.5 -33.5h-244q26 5 39.5 36.5t13.5 76.5v443z" />
    <glyph glyph-name="afii10098" unicode="&#x491;" horiz-adv-x="406" 
d="M69 370q0 35 -11 60.5t-37 37.5h210q110 0 147 126h9v-203h-191v-295q0 -39 12 -64.5t31 -31.5h-216q19 5 32.5 31.5t13.5 66.5v272z" />
    <glyph glyph-name="Wgrave" unicode="&#x1e80;" horiz-adv-x="1035" 
d="M5 666h269q-13 -2 -23 -16t-10 -38q0 -22 12 -61l109 -328l113 312q-35 113 -76 131h239q-16 -4 -27.5 -18t-11.5 -40q0 -21 12 -57l109 -327l109 329q10 28 10 56q0 45 -39 57h230q-26 -5 -51 -38t-43 -87l-178 -541h-109l-128 387l-134 -387h-107l-182 546
q-35 103 -93 120zM527 856l50 -159l-215 159h165z" />
    <glyph glyph-name="wgrave" unicode="&#x1e81;" horiz-adv-x="803" 
d="M-1 466h234q-29 -6 -29 -40q0 -19 11 -47l74 -202l73 192l-6 17q-13 34 -29.5 55.5t-30.5 24.5h214q-15 -2 -24.5 -14t-9.5 -31q0 -16 10 -42l73 -201l66 189q11 29 11 49q0 23 -10 35t-27 15h206q-21 -5 -39.5 -27.5t-34.5 -62.5l-141 -376h-89l-96 256l-96 -256h-88
l-148 382q-28 71 -74 84zM405 666l49 -160l-216 160h167z" />
    <glyph glyph-name="Wacute" unicode="&#x1e82;" horiz-adv-x="1035" 
d="M5 666h269q-13 -2 -23 -16t-10 -38q0 -22 12 -61l109 -328l113 312q-35 113 -76 131h239q-16 -4 -27.5 -18t-11.5 -40q0 -21 12 -57l109 -327l109 329q10 28 10 56q0 45 -39 57h230q-26 -5 -51 -38t-43 -87l-178 -541h-109l-128 387l-134 -387h-107l-182 546
q-35 103 -93 120zM518 856h165l-213 -159z" />
    <glyph glyph-name="wacute" unicode="&#x1e83;" horiz-adv-x="803" 
d="M-1 466h234q-29 -6 -29 -40q0 -19 11 -47l74 -202l73 192l-6 17q-13 34 -29.5 55.5t-30.5 24.5h214q-15 -2 -24.5 -14t-9.5 -31q0 -16 10 -42l73 -201l66 189q11 29 11 49q0 23 -10 35t-27 15h206q-21 -5 -39.5 -27.5t-34.5 -62.5l-141 -376h-89l-96 256l-96 -256h-88
l-148 382q-28 71 -74 84zM404 666h165l-213 -160z" />
    <glyph glyph-name="Wdieresis" unicode="&#x1e84;" horiz-adv-x="1035" 
d="M5 666h269q-13 -2 -23 -16t-10 -38q0 -22 12 -61l109 -328l113 312q-35 113 -76 131h239q-16 -4 -27.5 -18t-11.5 -40q0 -21 12 -57l109 -327l109 329q10 28 10 56q0 45 -39 57h230q-26 -5 -51 -38t-43 -87l-178 -541h-109l-128 387l-134 -387h-107l-182 546
q-35 103 -93 120zM564 790q0 26 17.5 43.5t46.5 17.5q30 0 48 -17.5t18 -43.5q0 -27 -18 -45t-48 -18q-29 0 -46.5 18t-17.5 45zM367 790q0 26 18.5 43.5t47.5 17.5q30 0 47.5 -17.5t17.5 -43.5q0 -27 -17.5 -45t-47.5 -18q-29 0 -47.5 18t-18.5 45z" />
    <glyph glyph-name="wdieresis" unicode="&#x1e85;" horiz-adv-x="803" 
d="M-1 466h234q-29 -6 -29 -40q0 -19 11 -47l74 -202l73 192l-6 17q-13 34 -29.5 55.5t-30.5 24.5h214q-15 -2 -24.5 -14t-9.5 -31q0 -16 10 -42l73 -201l66 189q11 29 11 49q0 23 -10 35t-27 15h206q-21 -5 -39.5 -27.5t-34.5 -62.5l-141 -376h-89l-96 256l-96 -256h-88
l-148 382q-28 71 -74 84zM446 612q0 26 17.5 43.5t47.5 17.5t47.5 -17.5t17.5 -43.5q0 -27 -18 -45t-47 -18q-30 0 -47.5 18t-17.5 45zM249 612q0 26 18.5 43.5t48.5 17.5q29 0 46.5 -17.5t17.5 -43.5q0 -27 -17.5 -45t-46.5 -18q-30 0 -48.5 18t-18.5 45z" />
    <glyph glyph-name="uni1E9E" unicode="&#x1e9e;" horiz-adv-x="753" 
d="M99 374q0 142 87 224.5t229 82.5q144 0 258 -72l-137 -224q76 -22 119 -72t43 -118q0 -86 -64 -147.5t-158 -61.5q-46 0 -88.5 14t-69.5 39v124q29 -38 64.5 -57.5t68.5 -19.5q46 0 74.5 28.5t28.5 75.5q-1 111 -189 137l133 224q-56 29 -108 29q-71 0 -108.5 -51
t-37.5 -147v-276q0 -36 8 -58.5t18.5 -33.5t20.5 -14h-244q12 3 23.5 14t20 34.5t8.5 59.5v266z" />
    <glyph glyph-name="uni1EA0" unicode="&#x1ea0;" horiz-adv-x="747" 
d="M309 666h118l220 -541q42 -108 95 -125h-269q16 2 26.5 14t10.5 33q0 15 -36 111h-255q-31 -85 -31 -106q0 -24 12.5 -37t28.5 -15h-224q20 3 45.5 36t48.5 92zM440 245l-95 246l-93 -246h188zM294 -128q0 26 17.5 44.5t49.5 18.5q30 0 48 -18.5t18 -44.5
q0 -27 -18 -45.5t-48 -18.5q-31 0 -49 18.5t-18 45.5z" />
    <glyph glyph-name="uni1EA1" unicode="&#x1ea1;" horiz-adv-x="507" 
d="M63 278q-12 31 -12 56q0 63 60 107t142 44q180 0 180 -151v-185q0 -45 21 -69.5t60 -24.5l11 2l-122 -80q-24 4 -47.5 22t-30.5 39q-20 -26 -59.5 -39.5t-80.5 -13.5q-63 0 -103 32.5t-40 88.5q0 59 70.5 105.5t194.5 73.5v38q0 86 -66 86q-38 0 -55 -16.5t-17 -33.5
q0 -23 20 -33zM307 215q-143 -28 -145 -95q0 -24 18 -39.5t46 -15.5q31 0 56 20.5t25 56.5v73zM185 -128q0 26 17.5 44.5t49.5 18.5q30 0 48 -18.5t18 -44.5q0 -27 -18 -45.5t-48 -18.5q-31 0 -49 18.5t-18 45.5z" />
    <glyph glyph-name="uni1EA2" unicode="&#x1ea2;" horiz-adv-x="747" 
d="M309 666h118l220 -541q42 -108 95 -125h-269q16 2 26.5 14t10.5 33q0 15 -36 111h-255q-31 -85 -31 -106q0 -24 12.5 -37t28.5 -15h-224q20 3 45.5 36t48.5 92zM440 245l-95 246l-93 -246h188zM290 886q39 16 80 16q40 0 66 -19t26 -53q0 -25 -12 -41t-26.5 -26
t-26.5 -19t-12 -18q0 -12 16 -16q-9 -5 -23 -5q-18 0 -33 10t-15 30q0 22 28 43q27 20 27 36q0 24 -27 25q-20 0 -38.5 -14t-29.5 -31v82z" />
    <glyph glyph-name="uni1EA3" unicode="&#x1ea3;" horiz-adv-x="507" 
d="M63 278q-12 31 -12 56q0 63 60 107t142 44q180 0 180 -151v-185q0 -45 21 -69.5t60 -24.5l11 2l-122 -80q-24 4 -47.5 22t-30.5 39q-20 -26 -59.5 -39.5t-80.5 -13.5q-63 0 -103 32.5t-40 88.5q0 59 70.5 105.5t194.5 73.5v38q0 86 -66 86q-38 0 -55 -16.5t-17 -33.5
q0 -23 20 -33zM307 215q-143 -28 -145 -95q0 -24 18 -39.5t46 -15.5q31 0 56 20.5t25 56.5v73zM170 699q39 16 80 16q40 0 66 -19t26 -53q0 -25 -12 -41t-26.5 -26t-26.5 -19t-12 -18q0 -12 16 -16q-9 -5 -23 -5q-18 0 -33 10t-15 30q0 22 28 43q27 20 27 36q0 24 -27 25
q-20 0 -38.5 -14t-29.5 -31v82z" />
    <glyph glyph-name="uni1EA4" unicode="&#x1ea4;" horiz-adv-x="747" 
d="M309 666h118l220 -541q42 -108 95 -125h-269q16 2 26.5 14t10.5 33q0 15 -36 111h-255q-31 -85 -31 -106q0 -24 12.5 -37t28.5 -15h-224q20 3 45.5 36t48.5 92zM440 245l-95 246l-93 -246h188zM367 857l155 -160l-155 55l-151 -55zM494 925h122l-166 -138z" />
    <glyph glyph-name="uni1EA5" unicode="&#x1ea5;" horiz-adv-x="507" 
d="M63 278q-12 31 -12 56q0 63 60 107t142 44q180 0 180 -151v-185q0 -45 21 -69.5t60 -24.5l11 2l-122 -80q-24 4 -47.5 22t-30.5 39q-20 -26 -59.5 -39.5t-80.5 -13.5q-63 0 -103 32.5t-40 88.5q0 59 70.5 105.5t194.5 73.5v38q0 86 -66 86q-38 0 -55 -16.5t-17 -33.5
q0 -23 20 -33zM307 215q-143 -28 -145 -95q0 -24 18 -39.5t46 -15.5q31 0 56 20.5t25 56.5v73zM253 684l155 -160l-155 55l-151 -55zM380 752h122l-166 -138z" />
    <glyph glyph-name="uni1EA6" unicode="&#x1ea6;" horiz-adv-x="747" 
d="M309 666h118l220 -541q42 -108 95 -125h-269q16 2 26.5 14t10.5 33q0 15 -36 111h-255q-31 -85 -31 -106q0 -24 12.5 -37t28.5 -15h-224q20 3 45.5 36t48.5 92zM440 245l-95 246l-93 -246h188zM367 857l155 -160l-155 55l-151 -55zM244 925l44 -138l-166 138h122z" />
    <glyph glyph-name="uni1EA7" unicode="&#x1ea7;" horiz-adv-x="507" 
d="M63 278q-12 31 -12 56q0 63 60 107t142 44q180 0 180 -151v-185q0 -45 21 -69.5t60 -24.5l11 2l-122 -80q-24 4 -47.5 22t-30.5 39q-20 -26 -59.5 -39.5t-80.5 -13.5q-63 0 -103 32.5t-40 88.5q0 59 70.5 105.5t194.5 73.5v38q0 86 -66 86q-38 0 -55 -16.5t-17 -33.5
q0 -23 20 -33zM307 215q-143 -28 -145 -95q0 -24 18 -39.5t46 -15.5q31 0 56 20.5t25 56.5v73zM253 684l155 -160l-155 55l-151 -55zM130 752l44 -138l-166 138h122z" />
    <glyph glyph-name="uni1EA8" unicode="&#x1ea8;" horiz-adv-x="747" 
d="M309 666h118l220 -541q42 -108 95 -125h-269q16 2 26.5 14t10.5 33q0 15 -36 111h-255q-31 -85 -31 -106q0 -24 12.5 -37t28.5 -15h-224q20 3 45.5 36t48.5 92zM440 245l-95 246l-93 -246h188zM367 857l155 -160l-155 55l-151 -55zM434 930q31 12 62 12q32 0 52.5 -14.5
t20.5 -42.5q0 -20 -9.5 -32.5t-21 -21t-21 -15t-9.5 -15.5q0 -11 13 -13q-6 -5 -19 -5q-16 0 -27.5 8.5t-11.5 24.5q0 18 23 36q22 17 22 28q0 19 -21 19q-27 0 -53 -36v67z" />
    <glyph glyph-name="uni1EA9" unicode="&#x1ea9;" horiz-adv-x="507" 
d="M63 278q-12 31 -12 56q0 63 60 107t142 44q180 0 180 -151v-185q0 -45 21 -69.5t60 -24.5l11 2l-122 -80q-24 4 -47.5 22t-30.5 39q-20 -26 -59.5 -39.5t-80.5 -13.5q-63 0 -103 32.5t-40 88.5q0 59 70.5 105.5t194.5 73.5v38q0 86 -66 86q-38 0 -55 -16.5t-17 -33.5
q0 -23 20 -33zM307 215q-143 -28 -145 -95q0 -24 18 -39.5t46 -15.5q31 0 56 20.5t25 56.5v73zM253 684l155 -160l-155 55l-151 -55zM320 757q31 12 62 12q32 0 52.5 -14.5t20.5 -42.5q0 -20 -9.5 -32.5t-21 -21t-21 -15t-9.5 -15.5q0 -11 13 -13q-6 -5 -19 -5
q-16 0 -27.5 8.5t-11.5 24.5q0 18 23 36q22 17 22 28q0 19 -21 19q-27 0 -53 -36v67z" />
    <glyph glyph-name="uni1EAA" unicode="&#x1eaa;" horiz-adv-x="747" 
d="M309 666h118l220 -541q42 -108 95 -125h-269q16 2 26.5 14t10.5 33q0 15 -36 111h-255q-31 -85 -31 -106q0 -24 12.5 -37t28.5 -15h-224q20 3 45.5 36t48.5 92zM440 245l-95 246l-93 -246h188zM367 857l155 -160l-155 55l-151 -55zM253 858q-20 20 -20 50t20 53t57 23
q29 0 73.5 -25t63.5 -25q21 0 33 18.5t11 42.5q20 -20 20 -50q0 -31 -22 -54.5t-57 -23.5q-27 0 -69.5 25.5t-63.5 25.5t-33 -17t-13 -43z" />
    <glyph glyph-name="uni1EAB" unicode="&#x1eab;" horiz-adv-x="507" 
d="M63 278q-12 31 -12 56q0 63 60 107t142 44q180 0 180 -151v-185q0 -45 21 -69.5t60 -24.5l11 2l-122 -80q-24 4 -47.5 22t-30.5 39q-20 -26 -59.5 -39.5t-80.5 -13.5q-63 0 -103 32.5t-40 88.5q0 59 70.5 105.5t194.5 73.5v38q0 86 -66 86q-38 0 -55 -16.5t-17 -33.5
q0 -23 20 -33zM307 215q-143 -28 -145 -95q0 -24 18 -39.5t46 -15.5q31 0 56 20.5t25 56.5v73zM253 684l155 -160l-155 55l-151 -55zM139 685q-20 20 -20 50t20 53t57 23q29 0 73.5 -25t63.5 -25q21 0 33 18.5t11 42.5q20 -20 20 -50q0 -31 -22 -54.5t-57 -23.5
q-27 0 -69.5 25.5t-63.5 25.5t-33 -17t-13 -43z" />
    <glyph glyph-name="uni1EAC" unicode="&#x1eac;" horiz-adv-x="747" 
d="M309 666h118l220 -541q42 -108 95 -125h-269q16 2 26.5 14t10.5 33q0 15 -36 111h-255q-31 -85 -31 -106q0 -24 12.5 -37t28.5 -15h-224q20 3 45.5 36t48.5 92zM440 245l-95 246l-93 -246h188zM294 -128q0 26 17.5 44.5t49.5 18.5q30 0 48 -18.5t18 -44.5
q0 -27 -18 -45.5t-48 -18.5q-31 0 -49 18.5t-18 45.5zM527 697l-160 66l-156 -66l156 187z" />
    <glyph glyph-name="uni1EAD" unicode="&#x1ead;" horiz-adv-x="507" 
d="M63 278q-12 31 -12 56q0 63 60 107t142 44q180 0 180 -151v-185q0 -45 21 -69.5t60 -24.5l11 2l-122 -80q-24 4 -47.5 22t-30.5 39q-20 -26 -59.5 -39.5t-80.5 -13.5q-63 0 -103 32.5t-40 88.5q0 59 70.5 105.5t194.5 73.5v38q0 86 -66 86q-38 0 -55 -16.5t-17 -33.5
q0 -23 20 -33zM307 215q-143 -28 -145 -95q0 -24 18 -39.5t46 -15.5q31 0 56 20.5t25 56.5v73zM185 -127q0 26 17.5 44.5t49.5 18.5q30 0 48 -18.5t18 -44.5q0 -27 -18 -45.5t-48 -18.5q-31 0 -49 18.5t-18 45.5zM253 697l144 -191l-144 73l-141 -73z" />
    <glyph glyph-name="uni1EAE" unicode="&#x1eae;" horiz-adv-x="747" 
d="M309 666h118l220 -541q42 -108 95 -125h-269q16 2 26.5 14t10.5 33q0 15 -36 111h-255q-31 -85 -31 -106q0 -24 12.5 -37t28.5 -15h-224q20 3 45.5 36t48.5 92zM440 245l-95 246l-93 -246h188zM241 851q46 -61 125 -62q78 0 126 62q-2 -61 -38.5 -98.5t-87.5 -37.5
t-87 38t-38 98zM371 955h122l-166 -138z" />
    <glyph glyph-name="uni1EAF" unicode="&#x1eaf;" horiz-adv-x="507" 
d="M63 278q-12 31 -12 56q0 63 60 107t142 44q180 0 180 -151v-185q0 -45 21 -69.5t60 -24.5l11 2l-122 -80q-24 4 -47.5 22t-30.5 39q-20 -26 -59.5 -39.5t-80.5 -13.5q-63 0 -103 32.5t-40 88.5q0 59 70.5 105.5t194.5 73.5v38q0 86 -66 86q-38 0 -55 -16.5t-17 -33.5
q0 -23 20 -33zM307 215q-143 -28 -145 -95q0 -24 18 -39.5t46 -15.5q31 0 56 20.5t25 56.5v73zM128 674q46 -61 125 -62q78 0 126 62q-2 -61 -38.5 -98.5t-87.5 -37.5t-87 38t-38 98zM258 778h122l-166 -138z" />
    <glyph glyph-name="uni1EB0" unicode="&#x1eb0;" horiz-adv-x="747" 
d="M309 666h118l220 -541q42 -108 95 -125h-269q16 2 26.5 14t10.5 33q0 15 -36 111h-255q-31 -85 -31 -106q0 -24 12.5 -37t28.5 -15h-224q20 3 45.5 36t48.5 92zM440 245l-95 246l-93 -246h188zM242 851q47 -62 125 -62t126 62q-2 -62 -38.5 -99t-87.5 -37t-87 38t-38 98z
M364 955l44 -138l-166 138h122z" />
    <glyph glyph-name="uni1EB1" unicode="&#x1eb1;" horiz-adv-x="507" 
d="M63 278q-12 31 -12 56q0 63 60 107t142 44q180 0 180 -151v-185q0 -45 21 -69.5t60 -24.5l11 2l-122 -80q-24 4 -47.5 22t-30.5 39q-20 -26 -59.5 -39.5t-80.5 -13.5q-63 0 -103 32.5t-40 88.5q0 59 70.5 105.5t194.5 73.5v38q0 86 -66 86q-38 0 -55 -16.5t-17 -33.5
q0 -23 20 -33zM307 215q-143 -28 -145 -95q0 -24 18 -39.5t46 -15.5q31 0 56 20.5t25 56.5v73zM129 674q47 -62 125 -62t126 62q-2 -62 -38.5 -99t-87.5 -37t-87 38t-38 98zM251 778l44 -138l-166 138h122z" />
    <glyph glyph-name="uni1EB2" unicode="&#x1eb2;" horiz-adv-x="747" 
d="M309 666h118l220 -541q42 -108 95 -125h-269q16 2 26.5 14t10.5 33q0 15 -36 111h-255q-31 -85 -31 -106q0 -24 12.5 -37t28.5 -15h-224q20 3 45.5 36t48.5 92zM440 245l-95 246l-93 -246h188zM241 851q47 -62 125 -62t126 62q-2 -62 -38.5 -99t-87.5 -37t-87 38t-38 98z
M291 985q33 15 77 15q39 0 64.5 -17.5t25.5 -49.5q0 -23 -11.5 -38t-26 -24.5t-26 -16.5t-11.5 -17q0 -13 15 -16q-9 -4 -22 -4q-18 0 -32.5 9t-14.5 28q0 13 8.5 23t18 17t18 15t8.5 18q0 23 -26 23q-37 0 -65 -43v78z" />
    <glyph glyph-name="uni1EB3" unicode="&#x1eb3;" horiz-adv-x="507" 
d="M63 278q-12 31 -12 56q0 63 60 107t142 44q180 0 180 -151v-185q0 -45 21 -69.5t60 -24.5l11 2l-122 -80q-24 4 -47.5 22t-30.5 39q-20 -26 -59.5 -39.5t-80.5 -13.5q-63 0 -103 32.5t-40 88.5q0 59 70.5 105.5t194.5 73.5v38q0 86 -66 86q-38 0 -55 -16.5t-17 -33.5
q0 -23 20 -33zM307 215q-143 -28 -145 -95q0 -24 18 -39.5t46 -15.5q31 0 56 20.5t25 56.5v73zM129 674q47 -62 125 -62t126 62q-2 -62 -38.5 -99t-87.5 -37t-87 38t-38 98zM179 808q33 15 77 15q39 0 64.5 -17.5t25.5 -49.5q0 -23 -11.5 -38t-26 -24.5t-26 -16.5t-11.5 -17
q0 -13 15 -16q-9 -4 -22 -4q-18 0 -32.5 9t-14.5 28q0 13 8.5 23t18 17t18 15t8.5 18q0 23 -26 23q-37 0 -65 -43v78z" />
    <glyph glyph-name="uni1EB4" unicode="&#x1eb4;" horiz-adv-x="747" 
d="M309 666h118l220 -541q42 -108 95 -125h-269q16 2 26.5 14t10.5 33q0 15 -36 111h-255q-31 -85 -31 -106q0 -24 12.5 -37t28.5 -15h-224q20 3 45.5 36t48.5 92zM440 245l-95 246l-93 -246h188zM250 858q-20 20 -20 50t19.5 53t57.5 23q19 0 38 -8t36.5 -17t33 -17
t29.5 -8q22 0 33 18.5t11 42.5q20 -20 20 -50q0 -31 -22 -54.5t-57 -23.5q-28 0 -70 25.5t-63 25.5t-33 -17t-13 -43zM241 851q46 -62 125 -62q78 0 126 62q-3 -62 -39 -99t-87 -37t-87 38t-38 98z" />
    <glyph glyph-name="uni1EB5" unicode="&#x1eb5;" horiz-adv-x="507" 
d="M63 278q-12 31 -12 56q0 63 60 107t142 44q180 0 180 -151v-185q0 -45 21 -69.5t60 -24.5l11 2l-122 -80q-24 4 -47.5 22t-30.5 39q-20 -26 -59.5 -39.5t-80.5 -13.5q-63 0 -103 32.5t-40 88.5q0 59 70.5 105.5t194.5 73.5v38q0 86 -66 86q-38 0 -55 -16.5t-17 -33.5
q0 -23 20 -33zM307 215q-143 -28 -145 -95q0 -24 18 -39.5t46 -15.5q31 0 56 20.5t25 56.5v73zM137 681q-20 20 -20 50t19.5 53t57.5 23q19 0 38 -8t36.5 -17t33 -17t29.5 -8q22 0 33 18.5t11 42.5q20 -20 20 -50q0 -31 -22 -54.5t-57 -23.5q-28 0 -70 25.5t-63 25.5
t-33 -17t-13 -43zM128 674q46 -62 125 -62q78 0 126 62q-3 -62 -39 -99t-87 -37t-87 38t-38 98z" />
    <glyph glyph-name="uni1EB6" unicode="&#x1eb6;" horiz-adv-x="747" 
d="M309 666h118l220 -541q42 -108 95 -125h-269q16 2 26.5 14t10.5 33q0 15 -36 111h-255q-31 -85 -31 -106q0 -24 12.5 -37t28.5 -15h-224q20 3 45.5 36t48.5 92zM440 245l-95 246l-93 -246h188zM294 -128q0 26 17.5 44.5t49.5 18.5q30 0 48 -18.5t18 -44.5
q0 -27 -18 -45.5t-48 -18.5q-31 0 -49 18.5t-18 45.5zM244 879q20 -38 53 -56t69 -18q37 0 69.5 18.5t54.5 55.5q0 -71 -35.5 -115t-88.5 -44q-52 0 -87 44.5t-35 114.5z" />
    <glyph glyph-name="uni1EB7" unicode="&#x1eb7;" horiz-adv-x="507" 
d="M63 278q-12 31 -12 56q0 63 60 107t142 44q180 0 180 -151v-185q0 -45 21 -69.5t60 -24.5l11 2l-122 -80q-24 4 -47.5 22t-30.5 39q-20 -26 -59.5 -39.5t-80.5 -13.5q-63 0 -103 32.5t-40 88.5q0 59 70.5 105.5t194.5 73.5v38q0 86 -66 86q-38 0 -55 -16.5t-17 -33.5
q0 -23 20 -33zM307 215q-143 -28 -145 -95q0 -24 18 -39.5t46 -15.5q31 0 56 20.5t25 56.5v73zM130 696q19 -37 52 -55.5t70 -18.5t70 19t53 55q0 -72 -35.5 -115.5t-88.5 -43.5q-51 0 -86 44t-35 115zM185 -127q0 26 17.5 44.5t49.5 18.5q30 0 48 -18.5t18 -44.5
q0 -27 -18 -45.5t-48 -18.5q-31 0 -49 18.5t-18 45.5z" />
    <glyph glyph-name="uni1EB8" unicode="&#x1eb8;" 
d="M90 554q0 44 -16 74.5t-46 37.5h453v-178q-14 48 -44 67.5t-78 19.5h-126v-193h110q63 -1 80 34v-158q-2 13 -21.5 23t-56.5 10h-112v-199h136q63 0 95.5 20.5t60.5 73.5l-32 -186h-457q13 2 25 14.5t20.5 37.5t8.5 67v435zM219 -128q0 26 17.5 44.5t49.5 18.5
q30 0 48 -18.5t18 -44.5q0 -27 -18 -45.5t-48 -18.5q-31 0 -49 18.5t-18 45.5z" />
    <glyph glyph-name="uni1EB9" unicode="&#x1eb9;" horiz-adv-x="491" 
d="M310 81q42 0 82.5 17.5t68.5 51.5q-33 -165 -204 -165q-101 0 -161.5 68.5t-60.5 171.5q0 110 63.5 185t160.5 75q92 0 143 -69.5t52 -197.5h-295q13 -69 54.5 -103t96.5 -34zM333 290q0 49 -20.5 81.5t-57.5 32.5q-38 0 -64.5 -32.5t-31.5 -81.5h174zM180 -128
q0 26 17.5 44.5t49.5 18.5q30 0 48 -18.5t18 -44.5q0 -27 -18 -45.5t-48 -18.5q-31 0 -49 18.5t-18 45.5z" />
    <glyph glyph-name="uni1EBA" unicode="&#x1eba;" 
d="M90 554q0 44 -16 74.5t-46 37.5h453v-178q-14 48 -44 67.5t-78 19.5h-126v-193h110q63 -1 80 34v-158q-2 13 -21.5 23t-56.5 10h-112v-199h136q63 0 95.5 20.5t60.5 73.5l-32 -186h-457q13 2 25 14.5t20.5 37.5t8.5 67v435zM192 886q39 16 80 16q40 0 66 -19t26 -53
q0 -25 -12 -41t-26.5 -26t-26.5 -19t-12 -18q0 -12 16 -16q-9 -5 -23 -5q-18 0 -33 10t-15 30q0 22 28 43q27 20 27 36q0 24 -27 25q-20 0 -38.5 -14t-29.5 -31v82z" />
    <glyph glyph-name="uni1EBB" unicode="&#x1ebb;" horiz-adv-x="491" 
d="M310 81q42 0 82.5 17.5t68.5 51.5q-33 -165 -204 -165q-101 0 -161.5 68.5t-60.5 171.5q0 110 63.5 185t160.5 75q92 0 143 -69.5t52 -197.5h-295q13 -69 54.5 -103t96.5 -34zM333 290q0 49 -20.5 81.5t-57.5 32.5q-38 0 -64.5 -32.5t-31.5 -81.5h174zM171 699
q39 16 80 16q40 0 66 -19t26 -53q0 -25 -12 -41t-26.5 -26t-26.5 -19t-12 -18q0 -12 16 -16q-9 -5 -23 -5q-18 0 -33 10t-15 30q0 22 28 43q27 20 27 36q0 24 -27 25q-20 0 -38.5 -14t-29.5 -31v82z" />
    <glyph glyph-name="uni1EBC" unicode="&#x1ebc;" 
d="M90 554q0 44 -16 74.5t-46 37.5h453v-178q-14 48 -44 67.5t-78 19.5h-126v-193h110q63 -1 80 34v-158q-2 13 -21.5 23t-56.5 10h-112v-199h136q63 0 95.5 20.5t60.5 73.5l-32 -186h-457q13 2 25 14.5t20.5 37.5t8.5 67v435zM142 712q-24 25 -24 60t24 59.5t62 24.5
q31 0 83 -26.5t72 -26.5q47 0 47 68q23 -24 23 -57q0 -34 -24.5 -62t-63.5 -28q-33 0 -79.5 28t-71.5 28q-46 0 -48 -68z" />
    <glyph glyph-name="uni1EBD" unicode="&#x1ebd;" horiz-adv-x="491" 
d="M310 81q42 0 82.5 17.5t68.5 51.5q-33 -165 -204 -165q-101 0 -161.5 68.5t-60.5 171.5q0 110 63.5 185t160.5 75q92 0 143 -69.5t52 -197.5h-295q13 -69 54.5 -103t96.5 -34zM333 290q0 49 -20.5 81.5t-57.5 32.5q-38 0 -64.5 -32.5t-31.5 -81.5h174zM122 530
q-24 25 -24 57q0 35 23.5 61t62.5 26q20 0 41.5 -8t42 -18.5t39 -18.5t32.5 -8q47 0 47 68q22 -22 22 -54q0 -39 -25.5 -66t-63.5 -27q-30 0 -78 28q-46 28 -71 28q-46 0 -48 -68z" />
    <glyph glyph-name="uni1EBE" unicode="&#x1ebe;" 
d="M90 554q0 44 -16 74.5t-46 37.5h453v-178q-14 48 -44 67.5t-78 19.5h-126v-193h110q63 -1 80 34v-158q-2 13 -21.5 23t-56.5 10h-112v-199h136q63 0 95.5 20.5t60.5 73.5l-32 -186h-457q13 2 25 14.5t20.5 37.5t8.5 67v435zM272 857l155 -160l-155 55l-151 -55zM399 925
h122l-166 -138z" />
    <glyph glyph-name="uni1EBF" unicode="&#x1ebf;" horiz-adv-x="491" 
d="M310 81q42 0 82.5 17.5t68.5 51.5q-33 -165 -204 -165q-101 0 -161.5 68.5t-60.5 171.5q0 110 63.5 185t160.5 75q92 0 143 -69.5t52 -197.5h-295q13 -69 54.5 -103t96.5 -34zM333 290q0 49 -20.5 81.5t-57.5 32.5q-38 0 -64.5 -32.5t-31.5 -81.5h174zM251 684l155 -160
l-155 55l-151 -55zM378 752h122l-166 -138z" />
    <glyph glyph-name="uni1EC0" unicode="&#x1ec0;" 
d="M90 554q0 44 -16 74.5t-46 37.5h453v-178q-14 48 -44 67.5t-78 19.5h-126v-193h110q63 -1 80 34v-158q-2 13 -21.5 23t-56.5 10h-112v-199h136q63 0 95.5 20.5t60.5 73.5l-32 -186h-457q13 2 25 14.5t20.5 37.5t8.5 67v435zM272 857l155 -160l-155 55l-151 -55zM149 925
l44 -138l-166 138h122z" />
    <glyph glyph-name="uni1EC1" unicode="&#x1ec1;" horiz-adv-x="491" 
d="M310 81q42 0 82.5 17.5t68.5 51.5q-33 -165 -204 -165q-101 0 -161.5 68.5t-60.5 171.5q0 110 63.5 185t160.5 75q92 0 143 -69.5t52 -197.5h-295q13 -69 54.5 -103t96.5 -34zM333 290q0 49 -20.5 81.5t-57.5 32.5q-38 0 -64.5 -32.5t-31.5 -81.5h174zM251 684l155 -160
l-155 55l-151 -55zM128 752l44 -138l-166 138h122z" />
    <glyph glyph-name="uni1EC2" unicode="&#x1ec2;" 
d="M90 554q0 44 -16 74.5t-46 37.5h453v-178q-14 48 -44 67.5t-78 19.5h-126v-193h110q63 -1 80 34v-158q-2 13 -21.5 23t-56.5 10h-112v-199h136q63 0 95.5 20.5t60.5 73.5l-32 -186h-457q13 2 25 14.5t20.5 37.5t8.5 67v435zM272 857l155 -160l-155 55l-151 -55zM339 930
q31 12 62 12q32 0 52.5 -14.5t20.5 -42.5q0 -20 -9.5 -32.5t-21 -21t-21 -15t-9.5 -15.5q0 -11 13 -13q-6 -5 -19 -5q-16 0 -27.5 8.5t-11.5 24.5q0 18 23 36q22 17 22 28q0 19 -21 19q-27 0 -53 -36v67z" />
    <glyph glyph-name="uni1EC3" unicode="&#x1ec3;" horiz-adv-x="491" 
d="M310 81q42 0 82.5 17.5t68.5 51.5q-33 -165 -204 -165q-101 0 -161.5 68.5t-60.5 171.5q0 110 63.5 185t160.5 75q92 0 143 -69.5t52 -197.5h-295q13 -69 54.5 -103t96.5 -34zM333 290q0 49 -20.5 81.5t-57.5 32.5q-38 0 -64.5 -32.5t-31.5 -81.5h174zM251 684l155 -160
l-155 55l-151 -55zM318 757q31 12 62 12q32 0 52.5 -14.5t20.5 -42.5q0 -20 -9.5 -32.5t-21 -21t-21 -15t-9.5 -15.5q0 -11 13 -13q-6 -5 -19 -5q-16 0 -27.5 8.5t-11.5 24.5q0 18 23 36q22 17 22 28q0 19 -21 19q-27 0 -53 -36v67z" />
    <glyph glyph-name="uni1EC4" unicode="&#x1ec4;" 
d="M90 554q0 44 -16 74.5t-46 37.5h453v-178q-14 48 -44 67.5t-78 19.5h-126v-193h110q63 -1 80 34v-158q-2 13 -21.5 23t-56.5 10h-112v-199h136q63 0 95.5 20.5t60.5 73.5l-32 -186h-457q13 2 25 14.5t20.5 37.5t8.5 67v435zM272 857l155 -160l-155 55l-151 -55zM158 858
q-20 20 -20 50t20 53t57 23q29 0 73.5 -25t63.5 -25q21 0 33 18.5t11 42.5q20 -20 20 -50q0 -31 -22 -54.5t-57 -23.5q-27 0 -69.5 25.5t-63.5 25.5t-33 -17t-13 -43z" />
    <glyph glyph-name="uni1EC5" unicode="&#x1ec5;" horiz-adv-x="491" 
d="M310 81q42 0 82.5 17.5t68.5 51.5q-33 -165 -204 -165q-101 0 -161.5 68.5t-60.5 171.5q0 110 63.5 185t160.5 75q92 0 143 -69.5t52 -197.5h-295q13 -69 54.5 -103t96.5 -34zM333 290q0 49 -20.5 81.5t-57.5 32.5q-38 0 -64.5 -32.5t-31.5 -81.5h174zM251 685l155 -160
l-155 55l-151 -55zM137 686q-20 20 -20 50t20 53t57 23q29 0 73.5 -25t63.5 -25q21 0 33 18.5t11 42.5q20 -20 20 -50q0 -31 -22 -54.5t-57 -23.5q-27 0 -69.5 25.5t-63.5 25.5t-33 -17t-13 -43z" />
    <glyph glyph-name="uni1EC6" unicode="&#x1ec6;" 
d="M90 554q0 44 -16 74.5t-46 37.5h453v-178q-14 48 -44 67.5t-78 19.5h-126v-193h110q63 -1 80 34v-158q-2 13 -21.5 23t-56.5 10h-112v-199h136q63 0 95.5 20.5t60.5 73.5l-32 -186h-457q13 2 25 14.5t20.5 37.5t8.5 67v435zM219 -128q0 26 17.5 44.5t49.5 18.5
q30 0 48 -18.5t18 -44.5q0 -27 -18 -45.5t-48 -18.5q-31 0 -49 18.5t-18 45.5zM432 697l-160 66l-156 -66l156 187z" />
    <glyph glyph-name="uni1EC7" unicode="&#x1ec7;" horiz-adv-x="491" 
d="M310 81q42 0 82.5 17.5t68.5 51.5q-33 -165 -204 -165q-101 0 -161.5 68.5t-60.5 171.5q0 110 63.5 185t160.5 75q92 0 143 -69.5t52 -197.5h-295q13 -69 54.5 -103t96.5 -34zM333 290q0 49 -20.5 81.5t-57.5 32.5q-38 0 -64.5 -32.5t-31.5 -81.5h174zM180 -127
q0 26 17.5 44.5t49.5 18.5q30 0 48 -18.5t18 -44.5q0 -27 -18 -45.5t-48 -18.5q-31 0 -49 18.5t-18 45.5zM251 697l144 -191l-144 73l-141 -73z" />
    <glyph glyph-name="uni1EC8" unicode="&#x1ec8;" horiz-adv-x="314" 
d="M86 558q0 91 -52 108h246q-13 -3 -24.5 -14t-19.5 -35t-8 -59v-455q0 -44 14 -71.5t37 -31.5h-245q23 3 37.5 30t14.5 73v455zM78 886q39 16 80 16q40 0 66 -19t26 -53q0 -25 -12 -41t-26.5 -26t-26.5 -19t-12 -18q0 -12 16 -16q-9 -5 -23 -5q-18 0 -33 10t-15 30
q0 22 28 43q27 20 27 36q0 24 -27 25q-20 0 -38.5 -14t-29.5 -31v82z" />
    <glyph glyph-name="uni1EC9" unicode="&#x1ec9;" horiz-adv-x="266" 
d="M72 322q0 92 -59 92h-13l201 75v-383q0 -49 14.5 -76t35.5 -30h-231q14 2 25 13t19 33.5t8 59.5v216zM53 699q39 16 80 16q40 0 66 -19t26 -53q0 -25 -12 -41t-26.5 -26t-26.5 -19t-12 -18q0 -12 16 -16q-9 -5 -23 -5q-18 0 -33 10t-15 30q0 22 28 43q27 20 27 36
q0 24 -27 25q-20 0 -38.5 -14t-29.5 -31v82z" />
    <glyph glyph-name="uni1ECA" unicode="&#x1eca;" horiz-adv-x="314" 
d="M86 558q0 91 -52 108h246q-13 -3 -24.5 -14t-19.5 -35t-8 -59v-455q0 -44 14 -71.5t37 -31.5h-245q23 3 37.5 30t14.5 73v455zM91 -128q0 26 17.5 44.5t49.5 18.5q30 0 48 -18.5t18 -44.5q0 -27 -18 -45.5t-48 -18.5q-31 0 -49 18.5t-18 45.5z" />
    <glyph glyph-name="uni1ECB" unicode="&#x1ecb;" horiz-adv-x="266" 
d="M70 323q0 91 -58 91h-13l198 75v-383q0 -49 14.5 -76t35.5 -30h-228q14 3 24.5 13.5t18.5 33t8 59.5v217zM47 613q0 32 21.5 53t56.5 21q36 0 57 -21t21 -53t-21 -54t-57 -22q-35 0 -56.5 22t-21.5 54zM68 -128q0 26 17.5 44.5t49.5 18.5q30 0 48 -18.5t18 -44.5
q0 -27 -18 -45.5t-48 -18.5q-31 0 -49 18.5t-18 45.5z" />
    <glyph glyph-name="uni1ECC" unicode="&#x1ecc;" horiz-adv-x="752" 
d="M366 -15q-145 0 -235.5 94.5t-90.5 243.5q0 99 44.5 181.5t125.5 129.5t179 47q144 0 233.5 -94.5t89.5 -243.5q0 -152 -97 -255t-249 -103zM389 88q79 0 128.5 62.5t49.5 165.5q0 118 -55 191t-148 73q-79 0 -128.5 -60.5t-49.5 -165.5q0 -121 54 -193.5t149 -72.5z
M310 -128q0 26 17.5 44.5t49.5 18.5q30 0 48 -18.5t18 -44.5q0 -27 -18 -45.5t-48 -18.5q-31 0 -49 18.5t-18 45.5z" />
    <glyph glyph-name="uni1ECD" unicode="&#x1ecd;" horiz-adv-x="562" 
d="M275 -15q-107 0 -173 66t-66 175q0 110 70 184.5t178 74.5q107 0 174.5 -65.5t67.5 -174.5q0 -115 -70 -187.5t-181 -72.5zM289 75q46 0 75.5 42.5t29.5 107.5q0 72 -35 121t-88 49q-47 0 -76 -40.5t-29 -105.5q0 -74 35 -124t88 -50zM215 -128q0 26 17.5 44.5t49.5 18.5
q30 0 48 -18.5t18 -44.5q0 -27 -18 -45.5t-48 -18.5q-31 0 -49 18.5t-18 45.5z" />
    <glyph glyph-name="uni1ECE" unicode="&#x1ece;" horiz-adv-x="752" 
d="M366 -15q-145 0 -235.5 94.5t-90.5 243.5q0 99 44.5 181.5t125.5 129.5t179 47q144 0 233.5 -94.5t89.5 -243.5q0 -152 -97 -255t-249 -103zM389 88q79 0 128.5 62.5t49.5 165.5q0 118 -55 191t-148 73q-79 0 -128.5 -60.5t-49.5 -165.5q0 -121 54 -193.5t149 -72.5z
M297 896q39 16 80 16q40 0 66 -19t26 -53q0 -25 -12 -41t-26.5 -26t-26.5 -19t-12 -18q0 -12 16 -16q-9 -5 -23 -5q-18 0 -33 10t-15 30q0 22 28 43q27 20 27 36q0 24 -27 25q-20 0 -38.5 -14t-29.5 -31v82z" />
    <glyph glyph-name="uni1ECF" unicode="&#x1ecf;" horiz-adv-x="562" 
d="M275 -15q-107 0 -173 66t-66 175q0 110 70 184.5t178 74.5q107 0 174.5 -65.5t67.5 -174.5q0 -115 -70 -187.5t-181 -72.5zM289 75q46 0 75.5 42.5t29.5 107.5q0 72 -35 121t-88 49q-47 0 -76 -40.5t-29 -105.5q0 -74 35 -124t88 -50zM202 699q39 16 80 16q40 0 66 -19
t26 -53q0 -25 -12 -41t-26.5 -26t-26.5 -19t-12 -18q0 -12 16 -16q-9 -5 -23 -5q-18 0 -33 10t-15 30q0 22 28 43q27 20 27 36q0 24 -27 25q-20 0 -38.5 -14t-29.5 -31v82z" />
    <glyph glyph-name="uni1ED0" unicode="&#x1ed0;" horiz-adv-x="752" 
d="M366 -15q-145 0 -235.5 94.5t-90.5 243.5q0 99 44.5 181.5t125.5 129.5t179 47q144 0 233.5 -94.5t89.5 -243.5q0 -152 -97 -255t-249 -103zM389 88q79 0 128.5 62.5t49.5 165.5q0 118 -55 191t-148 73q-79 0 -128.5 -60.5t-49.5 -165.5q0 -121 54 -193.5t149 -72.5z
M375 863l155 -160l-155 55l-151 -55zM502 931h122l-166 -138z" />
    <glyph glyph-name="uni1ED1" unicode="&#x1ed1;" horiz-adv-x="562" 
d="M275 -15q-107 0 -173 66t-66 175q0 110 70 184.5t178 74.5q107 0 174.5 -65.5t67.5 -174.5q0 -115 -70 -187.5t-181 -72.5zM289 75q46 0 75.5 42.5t29.5 107.5q0 72 -35 121t-88 49q-47 0 -76 -40.5t-29 -105.5q0 -74 35 -124t88 -50zM280 684l155 -160l-155 55l-151 -55
zM407 752h122l-166 -138z" />
    <glyph glyph-name="uni1ED2" unicode="&#x1ed2;" horiz-adv-x="752" 
d="M366 -15q-145 0 -235.5 94.5t-90.5 243.5q0 99 44.5 181.5t125.5 129.5t179 47q144 0 233.5 -94.5t89.5 -243.5q0 -152 -97 -255t-249 -103zM389 88q79 0 128.5 62.5t49.5 165.5q0 118 -55 191t-148 73q-79 0 -128.5 -60.5t-49.5 -165.5q0 -121 54 -193.5t149 -72.5z
M375 863l155 -160l-155 55l-151 -55zM252 931l44 -138l-166 138h122z" />
    <glyph glyph-name="uni1ED3" unicode="&#x1ed3;" horiz-adv-x="562" 
d="M275 -15q-107 0 -173 66t-66 175q0 110 70 184.5t178 74.5q107 0 174.5 -65.5t67.5 -174.5q0 -115 -70 -187.5t-181 -72.5zM289 75q46 0 75.5 42.5t29.5 107.5q0 72 -35 121t-88 49q-47 0 -76 -40.5t-29 -105.5q0 -74 35 -124t88 -50zM280 684l155 -160l-155 55l-151 -55
zM157 752l44 -138l-166 138h122z" />
    <glyph glyph-name="uni1ED4" unicode="&#x1ed4;" horiz-adv-x="752" 
d="M366 -15q-145 0 -235.5 94.5t-90.5 243.5q0 99 44.5 181.5t125.5 129.5t179 47q144 0 233.5 -94.5t89.5 -243.5q0 -152 -97 -255t-249 -103zM389 88q79 0 128.5 62.5t49.5 165.5q0 118 -55 191t-148 73q-79 0 -128.5 -60.5t-49.5 -165.5q0 -121 54 -193.5t149 -72.5z
M375 863l155 -160l-155 55l-151 -55zM442 936q31 12 62 12q32 0 52.5 -14.5t20.5 -42.5q0 -20 -9.5 -32.5t-21 -21t-21 -15t-9.5 -15.5q0 -11 13 -13q-6 -5 -19 -5q-16 0 -27.5 8.5t-11.5 24.5q0 18 23 36q22 17 22 28q0 19 -21 19q-27 0 -53 -36v67z" />
    <glyph glyph-name="uni1ED5" unicode="&#x1ed5;" horiz-adv-x="562" 
d="M275 -15q-107 0 -173 66t-66 175q0 110 70 184.5t178 74.5q107 0 174.5 -65.5t67.5 -174.5q0 -115 -70 -187.5t-181 -72.5zM289 75q46 0 75.5 42.5t29.5 107.5q0 72 -35 121t-88 49q-47 0 -76 -40.5t-29 -105.5q0 -74 35 -124t88 -50zM280 684l155 -160l-155 55l-151 -55
zM347 757q31 12 62 12q32 0 52.5 -14.5t20.5 -42.5q0 -20 -9.5 -32.5t-21 -21t-21 -15t-9.5 -15.5q0 -11 13 -13q-6 -5 -19 -5q-16 0 -27.5 8.5t-11.5 24.5q0 18 23 36q22 17 22 28q0 19 -21 19q-27 0 -53 -36v67z" />
    <glyph glyph-name="uni1ED6" unicode="&#x1ed6;" horiz-adv-x="752" 
d="M366 -15q-145 0 -235.5 94.5t-90.5 243.5q0 99 44.5 181.5t125.5 129.5t179 47q144 0 233.5 -94.5t89.5 -243.5q0 -152 -97 -255t-249 -103zM389 88q79 0 128.5 62.5t49.5 165.5q0 118 -55 191t-148 73q-79 0 -128.5 -60.5t-49.5 -165.5q0 -121 54 -193.5t149 -72.5z
M375 863l155 -160l-155 55l-151 -55zM261 864q-20 20 -20 50t20 53t57 23q29 0 73.5 -25t63.5 -25q21 0 33 18.5t11 42.5q20 -20 20 -50q0 -31 -22 -54.5t-57 -23.5q-27 0 -69.5 25.5t-63.5 25.5t-33 -17t-13 -43z" />
    <glyph glyph-name="uni1ED7" unicode="&#x1ed7;" horiz-adv-x="562" 
d="M275 -15q-107 0 -173 66t-66 175q0 110 70 184.5t178 74.5q107 0 174.5 -65.5t67.5 -174.5q0 -115 -70 -187.5t-181 -72.5zM289 75q46 0 75.5 42.5t29.5 107.5q0 72 -35 121t-88 49q-47 0 -76 -40.5t-29 -105.5q0 -74 35 -124t88 -50zM280 684l155 -160l-155 55l-151 -55
zM166 685q-20 20 -20 50t20 53t57 23q29 0 73.5 -25t63.5 -25q21 0 33 18.5t11 42.5q20 -20 20 -50q0 -31 -22 -54.5t-57 -23.5q-27 0 -69.5 25.5t-63.5 25.5t-33 -17t-13 -43z" />
    <glyph glyph-name="uni1ED8" unicode="&#x1ed8;" horiz-adv-x="752" 
d="M366 -15q-145 0 -235.5 94.5t-90.5 243.5q0 99 44.5 181.5t125.5 129.5t179 47q144 0 233.5 -94.5t89.5 -243.5q0 -152 -97 -255t-249 -103zM389 88q79 0 128.5 62.5t49.5 165.5q0 118 -55 191t-148 73q-79 0 -128.5 -60.5t-49.5 -165.5q0 -121 54 -193.5t149 -72.5z
M310 -127q0 26 17.5 44.5t49.5 18.5q30 0 48 -18.5t18 -44.5q0 -27 -18 -45.5t-48 -18.5q-31 0 -49 18.5t-18 45.5zM539 697l-160 66l-156 -66l156 187z" />
    </font>
</defs>
</svg>
